<?xml version="1.0" encoding="iso-8859-1"?>
<svg id="Group_2" data-name="Group 2" xmlns="http://www.w3.org/2000/svg" width="191.835" height="44" viewBox="0 0 191.835 44">
    <defs>
        <clipPath id="clip-path">
            <path id="Rectangle_6" data-name="Rectangle 6" class="cls-1" d="M0 0h191.835v44H0z"/>
        </clipPath>
        <style>
            .cls-1{fill:#252930}
        </style>
    </defs>
    <g id="Group_1" data-name="Group 1" style="clip-path:url(#clip-path)">
        <path id="Path_1" data-name="Path 1" class="cls-1" d="M343.753 33.1h-.066l-4.458-11.956h-3.7v15.032h2.383v-7.309q0-2.446-.186-5.243h.088l4.655 12.552h2.316l4.82-12.531h.088q-.044.38-.1 2.179t-.061 2.92v7.432h2.525V21.147h-3.711z" transform="translate(-256.782 -16.184)"/>
        <path id="Path_2" data-name="Path 2" class="cls-1" d="M447.8 30.636q0 3.65-3.711 3.65a3.962 3.962 0 0 1-2.832-.884 3.645 3.645 0 0 1-.922-2.744v-9.51H437.7v9.683a5.179 5.179 0 0 0 1.658 4.071 6.734 6.734 0 0 0 4.644 1.48 8.113 8.113 0 0 0 3.452-.673 4.973 4.973 0 0 0 2.208-1.923 5.482 5.482 0 0 0 .763-2.914v-9.724H447.8z" transform="translate(-334.977 -16.185)"/>
        <path id="Path_3" data-name="Path 3" class="cls-1" d="M529.108 22.874v-1.727h-11.045v2.108h7.872l-8.092 11.215v1.706h11.484v-2.107h-8.344z" transform="translate(-396.308 -16.184)"/>
        <path id="Path_4" data-name="Path 4" class="cls-1" d="M572.99 27.448h-6.216v1.923h6.216v6.805h9.08V34.09h-6.456v-4.719h6.049v-2.056h-6.049v-4.091h6.456v-2.077h-9.08z" transform="translate(-433.755 -16.184)"/>
        <path id="Path_5" data-name="Path 5" class="cls-1" d="M670.59 30.636q0 3.65-3.711 3.65a3.962 3.962 0 0 1-2.832-.884 3.645 3.645 0 0 1-.922-2.744v-9.51h-2.635v9.683a5.179 5.179 0 0 0 1.658 4.071 6.733 6.733 0 0 0 4.644 1.48 8.114 8.114 0 0 0 3.453-.673 4.972 4.972 0 0 0 2.207-1.923 5.482 5.482 0 0 0 .763-2.914v-9.724h-2.625z" transform="translate(-505.476 -16.185)"/>
        <path id="Path_6" data-name="Path 6" class="cls-1" d="M759.385 21.147 754.8 33.1h-.066l-4.457-11.956h-3.7v15.032h2.382v-7.308q0-2.446-.186-5.243h.088l4.655 12.551h2.316l4.82-12.531h.088q-.045.38-.1 2.179t-.06 2.92v7.432h2.52V21.147z" transform="translate(-571.357 -16.184)"/>
        <path id="Path_7" data-name="Path 7" class="cls-1" d="M100.377 31.624H93.72l.005-26.6H75.887L66.124 0 55.889 5.02 38.295 5v37.692h55.43l-.005-8.862h6.657zm-53.211 8.867H40.5V33.83h6.667zm24.389 0H60.461v-7.938s.027-1.408.03-1.487a5.526 5.526 0 0 1 11.03-.152c.009.13.034 1.639.034 1.639zm11.089 0h-8.883V33.83h8.883zm8.869 0H84.85V33.83h6.663zm0-8.867H73.767v-.319a7.754 7.754 0 0 0-15.509 0v.319H51.6v2.206h6.659v6.66h-8.886V18.313h-2.207v13.311H40.5V16.089h42.144V29.4h2.206V13.883H40.5V7.227h15.959l9.641-4.74 9.2 4.736h16.213z" transform="translate(-29.306)"/>
        <path id="Rectangle_1" data-name="Rectangle 1" class="cls-1" transform="translate(0 13.876)" d="M0 0h6.651v2.207H0z"/>
        <path id="Path_8" data-name="Path 8" class="cls-1" d="M341.914 121.627a1.432 1.432 0 0 1-.5 1.179 2.223 2.223 0 0 1-1.434.41h-.51v1.837h-.8v-4.91h1.414a2.139 2.139 0 0 1 1.378.376 1.349 1.349 0 0 1 .458 1.108m-2.448.913h.426a1.531 1.531 0 0 0 .907-.215.783.783 0 0 0 .288-.672.762.762 0 0 0-.258-.631 1.279 1.279 0 0 0-.806-.209h-.557z" transform="translate(-259.18 -91.946)"/>
        <path id="Path_9" data-name="Path 9" class="cls-1" d="M364.66 122.341a2.687 2.687 0 0 1-.6 1.863 2.519 2.519 0 0 1-3.405.005 2.7 2.7 0 0 1-.6-1.876 2.66 2.66 0 0 1 .6-1.867 2.21 2.21 0 0 1 1.711-.652 2.164 2.164 0 0 1 1.692.662 2.68 2.68 0 0 1 .6 1.864m-3.748 0a2.2 2.2 0 0 0 .366 1.375 1.491 1.491 0 0 0 2.165.006 2.788 2.788 0 0 0 0-2.751 1.278 1.278 0 0 0-1.076-.467 1.3 1.3 0 0 0-1.09.467 2.182 2.182 0 0 0-.368 1.371" transform="translate(-275.555 -91.695)"/>
        <path id="Path_10" data-name="Path 10" class="cls-1" d="M386.59 125.053v-1.679l-.3.171-.3-.52.6-.36v-2.522h.8v2.042l.735-.44.309.531-1.044.618v1.471h2.079v.688z" transform="translate(-295.399 -91.946)"/>
        <path id="Path_11" data-name="Path 11" class="cls-1" d="M412.592 120.143v3.177a1.887 1.887 0 0 1-.233.952 1.557 1.557 0 0 1-.675.628 2.343 2.343 0 0 1-1.056.22 1.977 1.977 0 0 1-1.42-.483 1.751 1.751 0 0 1-.507-1.33v-3.163h.806v3.106a1.244 1.244 0 0 0 .282.9 1.165 1.165 0 0 0 .866.288q1.135 0 1.135-1.192v-3.1z" transform="translate(-312.78 -91.946)"/>
        <path id="Path_12" data-name="Path 12" class="cls-1" d="M439.023 122.551a2.447 2.447 0 0 1-.675 1.859 2.712 2.712 0 0 1-1.945.643h-1.373v-4.91h1.518a2.51 2.51 0 0 1 1.823.632 2.358 2.358 0 0 1 .651 1.776m-.846.027q0-1.763-1.649-1.763h-.695v3.563h.571a1.579 1.579 0 0 0 1.773-1.8" transform="translate(-332.93 -91.946)"/>
        <path id="Path_13" data-name="Path 13" class="cls-1" d="M465.024 125.053h-.984l-2.415-3.912h-.025l.017.219q.047.624.047 1.142v2.552h-.728v-4.91h.974l2.407 3.892h.021c0-.051-.014-.239-.027-.562s-.02-.576-.02-.758v-2.572h.736z" transform="translate(-352.755 -91.946)"/>
        <path id="Rectangle_2" data-name="Rectangle 2" class="cls-1" transform="translate(114.597 28.197)" d="M0 0h.803v4.91H0z"/>
        <path id="Path_14" data-name="Path 14" class="cls-1" d="M505.189 122.341a2.685 2.685 0 0 1-.6 1.863 2.52 2.52 0 0 1-3.405.005 2.7 2.7 0 0 1-.6-1.876 2.66 2.66 0 0 1 .6-1.867 2.209 2.209 0 0 1 1.711-.652 2.166 2.166 0 0 1 1.693.662 2.683 2.683 0 0 1 .6 1.864m-3.748 0a2.2 2.2 0 0 0 .366 1.375 1.491 1.491 0 0 0 2.165.006 2.787 2.787 0 0 0 0-2.751 1.277 1.277 0 0 0-1.076-.467 1.3 1.3 0 0 0-1.09.467 2.182 2.182 0 0 0-.368 1.371" transform="translate(-383.102 -91.695)"/>
        <path id="Path_15" data-name="Path 15" class="cls-1" d="M531.628 125.053h-.873l-.833-2.928c-.036-.128-.081-.312-.135-.552s-.086-.408-.1-.5q-.033.215-.109.558t-.126.51l-.813 2.915h-.873l-.635-2.458-.645-2.451h.82l.7 2.861a12.261 12.261 0 0 1 .235 1.215c.025-.19.062-.4.111-.638s.094-.426.134-.571l.8-2.868h.8l.82 2.882a10.847 10.847 0 0 1 .248 1.2A8.772 8.772 0 0 1 531.4 123l.7-2.855h.813z" transform="translate(-402.925 -91.946)"/>
        <path id="Path_16" data-name="Path 16" class="cls-1" d="M563.968 125.053h-2.777v-4.91h2.777v.679h-1.974v1.337h1.85v.672h-1.85v1.541h1.974z" transform="translate(-429.482 -91.946)"/>
        <path id="Path_17" data-name="Path 17" class="cls-1" d="M583.161 122.162h1.807v2.465a5.29 5.29 0 0 1-.852.2 6.015 6.015 0 0 1-.881.061 2.215 2.215 0 0 1-1.719-.66 2.657 2.657 0 0 1-.6-1.862 2.484 2.484 0 0 1 .682-1.856 2.563 2.563 0 0 1 1.878-.669 3.653 3.653 0 0 1 1.457.3l-.282.668a2.836 2.836 0 0 0-1.2-.275 1.608 1.608 0 0 0-1.242.494 1.906 1.906 0 0 0-.457 1.35 2.013 2.013 0 0 0 .411 1.369 1.488 1.488 0 0 0 1.184.468 3.873 3.873 0 0 0 .833-.1v-1.265h-1.018z" transform="translate(-444.574 -91.718)"/>
        <path id="Path_18" data-name="Path 18" class="cls-1" d="M611.184 122.341a2.685 2.685 0 0 1-.6 1.863 2.52 2.52 0 0 1-3.405.005 2.7 2.7 0 0 1-.6-1.876 2.66 2.66 0 0 1 .6-1.867 2.209 2.209 0 0 1 1.711-.652 2.166 2.166 0 0 1 1.693.662 2.683 2.683 0 0 1 .6 1.864m-3.748 0a2.2 2.2 0 0 0 .366 1.375 1.49 1.49 0 0 0 2.164.006 2.787 2.787 0 0 0 0-2.751 1.276 1.276 0 0 0-1.076-.467 1.3 1.3 0 0 0-1.09.467 2.185 2.185 0 0 0-.367 1.371" transform="translate(-464.221 -91.695)"/>
        <path id="Path_19" data-name="Path 19" class="cls-1" d="M650.334 121.627a1.433 1.433 0 0 1-.5 1.179 2.223 2.223 0 0 1-1.434.41h-.51v1.837h-.8v-4.91h1.41a2.139 2.139 0 0 1 1.379.376 1.35 1.35 0 0 1 .458 1.108m-2.448.913h.427a1.531 1.531 0 0 0 .907-.215.783.783 0 0 0 .288-.672.763.763 0 0 0-.258-.631 1.278 1.278 0 0 0-.806-.209h-.557z" transform="translate(-495.216 -91.946)"/>
        <path id="Path_20" data-name="Path 20" class="cls-1" d="M673.08 122.341a2.683 2.683 0 0 1-.6 1.863 2.519 2.519 0 0 1-3.405.005 2.7 2.7 0 0 1-.6-1.876 2.66 2.66 0 0 1 .6-1.867 2.209 2.209 0 0 1 1.711-.652 2.165 2.165 0 0 1 1.693.662 2.68 2.68 0 0 1 .6 1.864m-3.748 0a2.2 2.2 0 0 0 .366 1.375 1.49 1.49 0 0 0 2.164.006 2.786 2.786 0 0 0 0-2.751 1.278 1.278 0 0 0-1.076-.467 1.3 1.3 0 0 0-1.09.467 2.182 2.182 0 0 0-.368 1.371" transform="translate(-511.59 -91.695)"/>
        <path id="Path_21" data-name="Path 21" class="cls-1" d="M700.962 122.551a2.446 2.446 0 0 1-.675 1.859 2.711 2.711 0 0 1-1.944.643h-1.373v-4.91h1.518a2.511 2.511 0 0 1 1.823.632 2.359 2.359 0 0 1 .651 1.776m-.846.027q0-1.763-1.649-1.763h-.7v3.563h.571a1.579 1.579 0 0 0 1.773-1.8" transform="translate(-533.394 -91.946)"/>
        <path id="Path_22" data-name="Path 22" class="cls-1" d="M722.872 125.053v-4.91h.8v4.222h2.078v.688z" transform="translate(-553.217 -91.946)"/>
        <path id="Path_23" data-name="Path 23" class="cls-1" d="m744.082 124.988-.49-1.363h-1.877l-.48 1.363h-.846l1.837-4.93h.873l1.837 4.93zm-.7-2.055-.46-1.336q-.05-.135-.139-.423t-.123-.424a7.48 7.48 0 0 1-.265.9l-.443 1.28z" transform="translate(-566.622 -91.881)"/>
        <path id="Path_24" data-name="Path 24" class="cls-1" d="M768.732 123.491a1.234 1.234 0 0 1-.474 1.027 2.058 2.058 0 0 1-1.306.373 3.113 3.113 0 0 1-1.364-.259v-.759a3.712 3.712 0 0 0 .714.249 3.022 3.022 0 0 0 .7.091 1.117 1.117 0 0 0 .7-.181.591.591 0 0 0 .227-.487.609.609 0 0 0-.208-.467 3.122 3.122 0 0 0-.859-.453 2.274 2.274 0 0 1-.947-.621 1.314 1.314 0 0 1-.276-.839 1.175 1.175 0 0 1 .437-.967 1.811 1.811 0 0 1 1.172-.352 3.437 3.437 0 0 1 1.4.309l-.255.655a3.07 3.07 0 0 0-1.169-.276.9.9 0 0 0-.591.17.556.556 0 0 0-.2.448.635.635 0 0 0 .08.328.834.834 0 0 0 .265.257 4.641 4.641 0 0 0 .665.319 3.655 3.655 0 0 1 .793.42 1.228 1.228 0 0 1 .369.44 1.321 1.321 0 0 1 .118.577" transform="translate(-585.908 -91.717)"/>
        <path id="Rectangle_3" data-name="Rectangle 3" class="cls-1" transform="translate(184.805 28.197)" d="M0 0h.803v4.91H0z"/>
        <path id="Path_25" data-name="Path 25" class="cls-1" d="m801.7 124.988-.49-1.363h-1.88l-.48 1.363H798l1.837-4.93h.873l1.837 4.93zm-.7-2.055-.46-1.336q-.05-.135-.139-.423t-.122-.424a7.479 7.479 0 0 1-.265.9l-.443 1.28z" transform="translate(-610.715 -91.881)"/>
        <path id="Path_26" data-name="Path 26" class="cls-1" d="M344.437 165.628h-.873l-.833-2.928q-.054-.192-.135-.552t-.1-.5q-.034.215-.109.558t-.126.51l-.813 2.915h-.873l-.635-2.458-.644-2.451h.819l.7 2.861a12.338 12.338 0 0 1 .235 1.215c.025-.19.061-.4.111-.638s.094-.425.134-.571l.8-2.868h.8l.819 2.882a10.84 10.84 0 0 1 .248 1.2 8.771 8.771 0 0 1 .242-1.222l.7-2.855h.813z" transform="translate(-259.667 -122.998)"/>
        <path id="Path_27" data-name="Path 27" class="cls-1" d="M386.008 160.719h1.457a2.763 2.763 0 0 1 1.466.3 1.033 1.033 0 0 1 .452.933 1.135 1.135 0 0 1-.221.716.994.994 0 0 1-.638.359v.034a1.269 1.269 0 0 1 .761.384 1.164 1.164 0 0 1 .243.778 1.26 1.26 0 0 1-.462 1.036 1.985 1.985 0 0 1-1.284.374h-1.773zm.8 2.028h.772a1.324 1.324 0 0 0 .736-.16.611.611 0 0 0 .232-.542.543.543 0 0 0-.25-.5 1.561 1.561 0 0 0-.794-.154h-.7zm0 .652v1.555h.853a1.256 1.256 0 0 0 .76-.193.714.714 0 0 0 .257-.61.647.647 0 0 0-.262-.568 1.387 1.387 0 0 0-.8-.185z" transform="translate(-295.414 -122.999)"/>
        <path id="Rectangle_4" data-name="Rectangle 4" class="cls-1" transform="translate(96.167 37.72)" d="M0 0h.803v4.91H0z"/>
        <path id="Path_28" data-name="Path 28" class="cls-1" d="m424.02 165.563-.49-1.363h-1.877l-.48 1.363h-.846l1.837-4.93h.873l1.837 4.93zm-.7-2.055-.46-1.336q-.05-.135-.139-.423t-.122-.424a7.553 7.553 0 0 1-.265.9l-.443 1.28z" transform="translate(-321.677 -122.933)"/>
        <path id="Path_29" data-name="Path 29" class="cls-1" d="M444.9 165.628v-1.679l-.3.171-.3-.52.6-.36v-2.522h.8v2.042l.735-.44.309.531-1.044.618v1.471h2.078v.688z" transform="translate(-340.021 -122.998)"/>
        <path id="Path_30" data-name="Path 30" class="cls-1" d="M469.97 165.628h-2.777v-4.91h2.777v.679H468v1.337h1.85v.672H468v1.542h1.974z" transform="translate(-357.545 -122.998)"/>
        <path id="Path_31" data-name="Path 31" class="cls-1" d="M483.5 167a1.563 1.563 0 0 1-.551-.084v-.675a2.056 2.056 0 0 0 .49.071q.658 0 .658-.833v-4.758h.806v4.731a1.667 1.667 0 0 1-.358 1.151 1.334 1.334 0 0 1-1.046.4" transform="translate(-369.604 -122.999)"/>
        <path id="Path_32" data-name="Path 32" class="cls-1" d="M516.354 162.2a1.432 1.432 0 0 1-.5 1.179 2.221 2.221 0 0 1-1.434.41h-.511v1.837h-.8v-4.91h1.414a2.137 2.137 0 0 1 1.379.376 1.348 1.348 0 0 1 .458 1.108m-2.448.913h.427a1.531 1.531 0 0 0 .907-.215.783.783 0 0 0 .288-.672.761.761 0 0 0-.258-.631 1.277 1.277 0 0 0-.806-.209h-.557z" transform="translate(-392.68 -122.998)"/>
        <path id="Path_33" data-name="Path 33" class="cls-1" d="M539.1 162.916a2.683 2.683 0 0 1-.6 1.863 2.519 2.519 0 0 1-3.405.005 2.706 2.706 0 0 1-.6-1.876 2.658 2.658 0 0 1 .6-1.867 2.207 2.207 0 0 1 1.711-.652 2.164 2.164 0 0 1 1.692.662 2.681 2.681 0 0 1 .6 1.864m-3.748 0a2.2 2.2 0 0 0 .366 1.375 1.49 1.49 0 0 0 2.164.006 2.786 2.786 0 0 0 0-2.751 1.278 1.278 0 0 0-1.076-.467 1.3 1.3 0 0 0-1.09.467 2.183 2.183 0 0 0-.368 1.371" transform="translate(-409.054 -122.747)"/>
        <path id="Path_34" data-name="Path 34" class="cls-1" d="M566.982 163.126a2.445 2.445 0 0 1-.675 1.859 2.711 2.711 0 0 1-1.944.643h-1.373v-4.91h1.518a2.511 2.511 0 0 1 1.823.632 2.36 2.36 0 0 1 .651 1.776m-.846.027q0-1.763-1.649-1.763h-.7v3.563h.572a1.579 1.579 0 0 0 1.773-1.8" transform="translate(-430.859 -122.998)"/>
        <path id="Path_35" data-name="Path 35" class="cls-1" d="M588.891 165.628v-4.91h.8v4.222h2.079v.688z" transform="translate(-450.681 -122.998)"/>
        <path id="Path_36" data-name="Path 36" class="cls-1" d="m610.1 165.563-.49-1.363h-1.877l-.481 1.363h-.846l1.837-4.93h.873l1.837 4.93zm-.7-2.055-.46-1.336q-.05-.135-.139-.423t-.123-.424a7.558 7.558 0 0 1-.265.9l-.443 1.28z" transform="translate(-464.088 -122.933)"/>
        <path id="Path_37" data-name="Path 37" class="cls-1" d="M634.751 164.066a1.234 1.234 0 0 1-.474 1.027 2.058 2.058 0 0 1-1.306.373 3.121 3.121 0 0 1-1.364-.258v-.759a3.709 3.709 0 0 0 .714.249 3.022 3.022 0 0 0 .7.091 1.119 1.119 0 0 0 .7-.181.592.592 0 0 0 .226-.487.609.609 0 0 0-.208-.467 3.121 3.121 0 0 0-.859-.453 2.273 2.273 0 0 1-.947-.621 1.313 1.313 0 0 1-.275-.839 1.176 1.176 0 0 1 .436-.967 1.811 1.811 0 0 1 1.172-.352 3.437 3.437 0 0 1 1.4.309l-.255.655a3.068 3.068 0 0 0-1.169-.276.9.9 0 0 0-.591.17.556.556 0 0 0-.2.448.635.635 0 0 0 .081.328.833.833 0 0 0 .265.257 4.642 4.642 0 0 0 .665.319 3.648 3.648 0 0 1 .793.42 1.227 1.227 0 0 1 .369.44 1.321 1.321 0 0 1 .118.577" transform="translate(-483.373 -122.769)"/>
        <path id="Path_38" data-name="Path 38" class="cls-1" d="M657.194 165.628h-.931l-1.541-2.223-.474.386v1.837h-.8v-4.91h.8v2.344q.329-.4.655-.776l1.326-1.568h.914q-1.286 1.512-1.844 2.153z" transform="translate(-500.085 -122.998)"/>
        <path id="Rectangle_5" data-name="Rectangle 5" class="cls-1" transform="translate(158.789 37.72)" d="M0 0h.803v4.91H0z"/>
        <path id="Path_39" data-name="Path 39" class="cls-1" d="M692.689 165.628h-2.777v-4.91h2.777v.679h-1.975v1.337h1.851v.672h-1.851v1.542h1.975z" transform="translate(-527.992 -122.998)"/>
        <path id="Path_40" data-name="Path 40" class="cls-1" d="M706.218 167a1.567 1.567 0 0 1-.551-.084v-.675a2.06 2.06 0 0 0 .49.071q.659 0 .659-.833v-4.758h.806v4.731a1.669 1.669 0 0 1-.358 1.151 1.334 1.334 0 0 1-1.046.4" transform="translate(-540.05 -122.999)"/>
    </g>
</svg>
