<svg xmlns="http://www.w3.org/2000/svg" viewBox="0 0 750 500"><g id="freepik--background-complete--inject-2"><polygon points="30.53 407.02 59.54 407.02 55.89 400.17 44.37 390.71 19.68 397.03 17.24 407.02 30.53 407.02" style="fill:#f5f5f5"></polygon><path d="M77.83,421c-1,.83-21,8.84-21,8.84L56.08,442l36.59-.14,5.19-8.27Z" style="fill:#ebebeb"></path><polygon points="44.37 390.71 51.84 400.17 53.7 407.02 59.54 407.02 55.89 400.17 44.37 390.71" style="fill:#e0e0e0"></polygon><polygon points="77.83 421.02 90.58 435.29 88.28 442.04 92.67 441.88 97.86 433.61 77.83 421.02" style="fill:#e0e0e0"></polygon><path d="M732.69,206c0,.14-142.28.26-317.75.26S97.15,206.13,97.15,206s142.25-.26,317.79-.26S732.69,205.84,732.69,206Z" style="fill:#f5f5f5"></path><polygon points="172.34 243.45 171.99 224.41 174.44 218.69 174.44 158.64 142.88 158.64 142.88 308.81 174.44 308.81 174.44 247.28 172.34 243.45" style="fill:#f5f5f5"></polygon><path d="M143.47,300h31.8A8.73,8.73,0,0,1,184,308.7H134.74A8.73,8.73,0,0,1,143.47,300Z" style="fill:#f5f5f5"></path><path d="M177.33,158.64H140a3.72,3.72,0,0,1-3.72-3.72h0A3.72,3.72,0,0,1,140,151.2h37.33a3.72,3.72,0,0,1,3.71,3.72h0A3.72,3.72,0,0,1,177.33,158.64Z" style="fill:#f5f5f5"></path><polygon points="226.98 227.45 226.6 206.48 229.29 200.18 229.29 134 194.53 134 194.53 299.48 229.29 299.48 229.29 231.67 226.98 227.45" style="fill:#e0e0e0"></polygon><path d="M195.17,289.74h35a9.62,9.62,0,0,1,9.62,9.62H185.55A9.62,9.62,0,0,1,195.17,289.74Z" style="fill:#e0e0e0"></path><path d="M232.48,134H191.34a4.09,4.09,0,0,1-4.09-4.09h0a4.1,4.1,0,0,1,4.09-4.1h41.14a4.1,4.1,0,0,1,4.09,4.1h0A4.09,4.09,0,0,1,232.48,134Z" style="fill:#e0e0e0"></path><polygon points="397.62 210.73 550.67 56.46 705.52 210.71 397.62 210.73" style="fill:#fafafa"></polygon><polygon points="550.67 56.46 606.97 210.73 705.52 210.71 550.67 56.46" style="fill:#f5f5f5"></polygon><polygon points="335.82 210.73 444.54 101.14 554.54 210.71 335.82 210.73" style="fill:#f5f5f5"></polygon><polygon points="444.54 101.14 484.53 210.73 554.54 210.71 444.54 101.14" style="fill:#ebebeb"></polygon><path d="M285.48,53.89c.51-3.72-4.74-6.78-8.69-7.1-1.88-.15-3.83.14-5.62-.48C267.31,45,265.77,40,262,38.38c-2.82-1.18-6.06-.13-8.79,1.25s-5.44,3.1-8.49,3.3c-2.65.17-5.53-.82-7.86.48-1.73,1-2.63,3-4.23,4.14a10.15,10.15,0,0,1-5.53,1.5,15.46,15.46,0,0,0-5.71.93c-1.76.81-3.22,2.67-2.85,4.58Z" style="fill:#f5f5f5"></path><path d="M693.11,105.67c.51-3.72-4.74-6.78-8.69-7.1-1.88-.15-3.84.14-5.62-.48-3.86-1.35-5.4-6.34-9.17-7.93-2.82-1.19-6.06-.13-8.8,1.25s-5.43,3.1-8.48,3.3c-2.65.17-5.54-.82-7.86.48-1.73,1-2.63,3-4.23,4.14a10.15,10.15,0,0,1-5.53,1.5,15.46,15.46,0,0,0-5.71.93c-1.76.81-3.22,2.67-2.85,4.57Z" style="fill:#f5f5f5"></path><path d="M182.37,88.31c.75-5.44-6.93-9.92-12.7-10.38-2.75-.22-5.61.2-8.22-.71-5.65-2-7.9-9.27-13.41-11.59-4.12-1.74-8.87-.19-12.86,1.82s-8,4.54-12.41,4.82c-3.88.25-8.1-1.19-11.49.71-2.53,1.41-3.86,4.33-6.19,6s-5.26,2-8.09,2.19-5.77.18-8.34,1.37-4.71,3.9-4.18,6.69Z" style="fill:#f5f5f5"></path><path d="M448.16,83.46c.75-5.44-6.93-9.91-12.7-10.38-2.75-.22-5.61.2-8.22-.71-5.65-2-7.9-9.26-13.42-11.59C409.7,59,405,60.59,401,62.6s-7.94,4.54-12.4,4.83c-3.88.25-8.1-1.19-11.49.7-2.54,1.42-3.86,4.33-6.19,6.05s-5.26,2-8.09,2.2-5.77.18-8.35,1.36-4.71,3.91-4.17,6.69Z" style="fill:#f5f5f5"></path></g><g id="freepik--Floor--inject-2"><path d="M694,336.14c0,.15-149.24.26-333.29.26s-333.32-.11-333.32-.26,149.21-.26,333.32-.26S694,336,694,336.14Z" style="fill:#263238"></path></g><g id="freepik--Tent--inject-2"><path d="M37.68,273.08,80,236.5s55,1.75,79.42,0,58-5.24,58-5.24l31.42,43.2Z" style="fill:#455a64"></path><path d="M37.68,273.08s5.65,45.07,3.47,63l205.18-.14s.68-47.19,2.21-59.52c.1-.81.2-1.47.31-2C250.59,266.61,37.68,273.08,37.68,273.08Z" style="fill:#455a64"></path><path d="M217.43,231.26s0,.08-.15.22l-.47.61c-.46.56-1.08,1.34-1.88,2.33l-7,8.56-23.67,28.61.06-.17v6.15c0,16.11-.06,30.68-.08,41.28,0,5.25-.06,9.52-.08,12.51,0,1.45,0,2.58-.05,3.4,0,.36,0,.65,0,.88a1.16,1.16,0,0,1,0,.3,1.16,1.16,0,0,1,0-.3c0-.23,0-.52,0-.88,0-.82,0-1.95-.05-3.4,0-3,0-7.26-.08-12.51,0-10.6-.05-25.17-.08-41.28v-6.24l.06-.07,23.8-28.5,7.13-8.46,1.95-2.27.51-.58A1.32,1.32,0,0,1,217.43,231.26Z" style="fill:#263238"></path><rect x="207.67" y="287.02" width="19.36" height="48.92" style="fill:#263238"></rect><path d="M226.26,290.33H209.35a3.31,3.31,0,0,1-3.3-3.31h0a3.31,3.31,0,0,1,3.3-3.31h16.91a3.31,3.31,0,0,1,3.31,3.31h0A3.31,3.31,0,0,1,226.26,290.33Z" style="fill:#455a64"></path><path d="M226.26,290.33a4,4,0,0,0,1.94-.75,3.19,3.19,0,0,0,1.18-2.05,3.12,3.12,0,0,0-2.69-3.58c-.62-.06-1.36,0-2.07,0L220,284l-10.62,0a3.07,3.07,0,0,0-2,5.42,3.14,3.14,0,0,0,2.18.7l8.68.06,5.85.08,1.59,0a2.39,2.39,0,0,1,.55.05,1.84,1.84,0,0,1-.55.05l-1.59.05-5.85.09-8.68.05a3.62,3.62,0,0,1-2.49-.8,3.49,3.49,0,0,1-1.29-2.42,3.56,3.56,0,0,1,.88-2.7,3.61,3.61,0,0,1,2.67-1.2l10.62,0,4.64,0c.74,0,1.4,0,2.13.05a3.47,3.47,0,0,1,2.92,4,3.4,3.4,0,0,1-1.35,2.16,3.21,3.21,0,0,1-1.5.59A1.62,1.62,0,0,1,226.26,290.33Z" style="fill:#263238"></path><path d="M10.06,339.13c-.13-.05,6-14.89,13.57-33.12s13.92-33,14.05-32.93S31.74,288,24.11,306.21,10.2,339.19,10.06,339.13Z" style="fill:#263238"></path><path d="M147.86,335.6c-.12-.07,7.88-14.23,17.87-31.61s18.2-31.41,18.32-31.34-7.87,14.22-17.87,31.6S148,335.67,147.86,335.6Z" style="fill:#263238"></path><path d="M274.61,335.94c-.13.06-6-13.66-13.12-30.63s-12.77-30.79-12.64-30.85,6,13.66,13.12,30.64S274.74,335.89,274.61,335.94Z" style="fill:#263238"></path><path d="M247.9,273.08c0,.14-47.06.26-105.1.26s-105.12-.12-105.12-.26,47.06-.26,105.12-.26S247.9,272.93,247.9,273.08Z" style="fill:#263238"></path><path d="M176.61,241.85a.88.88,0,0,1-.23.11l-.7.26-2.71.95c-2.34.83-5.77,2-10,3.3-8.5,2.67-20.35,6-33.6,9s-25.41,5.08-34.23,6.33c-4.41.63-8,1.09-10.46,1.35l-2.86.31-.74.06a.67.67,0,0,1-.25,0s.08,0,.24-.06l.74-.12,2.84-.4c2.47-.33,6-.84,10.43-1.51,8.8-1.35,20.92-3.48,34.17-6.48s25.1-6.31,33.61-8.89c4.26-1.28,7.7-2.36,10.07-3.13l2.74-.86.71-.21A.8.8,0,0,1,176.61,241.85Z" style="fill:#263238"></path><path d="M135.83,288.73a5.58,5.58,0,0,1-.65.45l-1.93,1.21c-1.68,1-4.13,2.52-7.17,4.32-6.08,3.6-14.57,8.43-24.09,13.5s-18.27,9.41-24.65,12.45c-3.19,1.52-5.79,2.72-7.59,3.53l-2.08.92a3.75,3.75,0,0,1-.74.29,5.91,5.91,0,0,1,.7-.38l2-1,7.52-3.68c6.33-3.13,15-7.52,24.57-12.58s18-9.84,24.14-13.36c3-1.74,5.5-3.16,7.25-4.18l2-1.12A4.3,4.3,0,0,1,135.83,288.73Z" style="fill:#263238"></path></g><g id="freepik--Ruins--inject-2"><polygon points="81.63 408.66 77.15 387.58 97.67 367.19 127.47 370.63 132.55 408.66 81.63 408.66" style="fill:#e0e0e0"></polygon><path d="M106.66,408.66a5.55,5.55,0,0,1,0-.85c0-.58,0-1.36,0-2.34,0-2.07,0-5-.08-8.54s0-7.85-.08-12.57c0-2.37,0-4.85,0-7.42,0-.63,0-1.32,0-1.91a2.21,2.21,0,0,0-4-.92,2.28,2.28,0,0,0-.36,1.19v4.15c0,1.81,0,3.59,0,5.31,0,3.45,0,6.71,0,9.71,0,5.94-.08,10.84-.1,14.19l-.13-.13,3.64.07,1,0,.35,0-.3,0-.93,0-3.72.07h-.12v-.12c0-3.35-.06-8.25-.1-14.19,0-3,0-6.26,0-9.71v-5.31c0-.91,0-1.83,0-2.76V375.3a2.78,2.78,0,0,1,.44-1.48,2.72,2.72,0,0,1,3.93-.7,2.71,2.71,0,0,1,1.07,1.85c0,.71,0,1.33,0,2,0,2.6,0,5.1,0,7.49,0,4.76,0,9.05-.07,12.67s-.07,6.43-.09,8.48c0,1,0,1.72,0,2.29A7.28,7.28,0,0,1,106.66,408.66Z" style="fill:#263238"></path><path d="M91.55,408.66a4.25,4.25,0,0,1,0-.74c0-.52,0-1.21,0-2.06,0-1.83,0-4.39-.07-7.54,0-6.39-.07-15.18-.11-25l.44.18-2.48,2.47-2.46,2.44.07-.18c0,13.23-.06,24.53-.13,30.47l-.13-.13,3.64.07,1,0,.35,0-.3,0-.94,0-3.71.07h-.12v-.12c-.08-5.94-.13-17.24-.14-30.47v-.11l.08-.08,2.46-2.44,2.48-2.47.45-.44v.63c0,9.94-.09,18.79-.12,25.23,0,3.13,0,5.66-.07,7.47,0,.84,0,1.5,0,2A5.47,5.47,0,0,1,91.55,408.66Z" style="fill:#263238"></path><path d="M130.11,361.58l-30.51.28-4.08,9h34.59a4.63,4.63,0,1,0,0-9.25Z" style="fill:#e0e0e0"></path><path d="M94.64,370.83c0-.15,7.71-.26,17.21-.26s17.22.11,17.22.26-7.71.26-17.22.26S94.64,371,94.64,370.83Z" style="fill:#263238"></path><path d="M119.4,408.66a5.55,5.55,0,0,1,0-.85c0-.58,0-1.36,0-2.34,0-2.07,0-5-.08-8.54s0-7.85-.08-12.57c0-2.37,0-4.85,0-7.42,0-.63,0-1.32,0-1.91a2.21,2.21,0,0,0-4.05-.92,2.28,2.28,0,0,0-.36,1.19v4.15c0,1.81,0,3.59,0,5.31,0,3.45,0,6.71,0,9.71,0,5.94-.08,10.84-.1,14.19l-.13-.13,3.64.07,1,0,.35,0-.3,0-.93,0-3.72.07h-.12v-.12c0-3.35-.06-8.25-.1-14.19,0-3,0-6.26,0-9.71v-5.31c0-.91,0-1.83,0-2.76V375.3a2.78,2.78,0,0,1,.44-1.48,2.72,2.72,0,0,1,3.93-.7,2.71,2.71,0,0,1,1.07,1.85c.05.71,0,1.33,0,2q0,3.9,0,7.49c0,4.76,0,9.05-.07,12.67s-.07,6.43-.09,8.48c0,1,0,1.72,0,2.29A7.28,7.28,0,0,1,119.4,408.66Z" style="fill:#263238"></path><path d="M120.35,398.78l-26,3.55s3.47,15.1,5.88,21.88h25.18Z" style="fill:#e0e0e0"></path><path d="M120.35,398.78a1.89,1.89,0,0,1,.11.44c.08.34.18.78.3,1.34l1.08,5.14c.92,4.51,2.21,10.87,3.76,18.46l.06.28h-.28l-24.09,0H100l-.06-.18c-1.35-3.91-2.35-7.78-3.31-11.46s-1.8-7.19-2.54-10.45l-.06-.24.25,0,18.93-2.46,5.29-.66,1.38-.16a2.34,2.34,0,0,1,.46,0l-.5.1-1.42.22-5.32.78-18.76,2.68.19-.28c.77,3.25,1.63,6.75,2.58,10.42s2,7.54,3.33,11.42l-.25-.17h1.09l24.09,0-.22.27-3.52-18.37c-.41-2.21-.74-4-1-5.21l-.25-1.39A4,4,0,0,1,120.35,398.78Z" style="fill:#263238"></path><path d="M109.41,400.17a14.18,14.18,0,0,1,.71,2.66c.37,1.65.84,3.94,1.33,6.47.24,1.28.5,2.47.66,3.6a4.54,4.54,0,0,1-.43,3,2.52,2.52,0,0,1-1.66,1.21c-.5.08-.77-.06-.76-.08s.28,0,.71-.12a2.5,2.5,0,0,0,1.4-1.2,4.35,4.35,0,0,0,.27-2.77c-.19-1.08-.46-2.29-.7-3.56-.49-2.53-.91-4.83-1.19-6.5A15,15,0,0,1,109.41,400.17Z" style="fill:#263238"></path><path d="M107.46,416.29a7.71,7.71,0,0,1-.72-2c-.37-1.24-.83-3-1.24-4.89s-.71-3.69-.89-5a8.29,8.29,0,0,1-.18-2.09,68.72,68.72,0,0,1,1.58,6.95C106.83,413.16,107.6,416.25,107.46,416.29Z" style="fill:#263238"></path><path d="M133.41,424.2c0,.14-9.3.26-20.77.26s-20.77-.12-20.77-.26,9.3-.26,20.77-.26S133.41,424.06,133.41,424.2Z" style="fill:#263238"></path><polygon points="349.97 336.1 362.9 311.47 485.75 327.66 543.43 336.14 349.97 336.1" style="fill:#e0e0e0"></polygon><polygon points="360.99 210.51 377.48 201.57 518.13 278.73 507.42 294.2 495.1 302.83 443.84 271.7 441.5 267.44 438.4 268.95 358.69 228 360.99 210.51" style="fill:#e0e0e0"></polygon><path d="M361,210.51s0,.4-.13,1.16-.23,1.9-.41,3.38c-.38,3-.94,7.34-1.66,13l-.05-.11,79.77,40.85h-.21l3.1-1.52.2-.1.11.2,2.34,4.26-.09-.09,51.27,31.11H495L507.27,294l-.06.07,2.1-3,8.6-12.44.09.38L377.42,201.67h.11l-12.28,6.59L362.08,210l-1.09.56,1.05-.6,3.13-1.73,12.25-6.7.06,0,0,0,140.72,77,.25.14-.16.24-8.61,12.43-2.09,3,0,0,0,0L495.25,303l-.14.1-.15-.09-51.24-31.14-.06,0,0-.06c-.81-1.48-1.62-2.95-2.33-4.26l.3.09-3.09,1.51-.11,0-.1,0-79.66-41.07-.07,0V228c.77-5.63,1.36-10,1.77-13,.2-1.47.36-2.59.47-3.36S361,210.51,361,210.51Z" style="fill:#263238"></path><path d="M371.93,206.22a1.64,1.64,0,0,1,.51-.64,2,2,0,0,1,2.3-.14l8.15,4.39,29.89,16.23,44.3,24.13,26.16,14.26L497.07,272l7.07,3.86,3.58,1.95.89.49a2.2,2.2,0,0,1-.94,4.17,2.15,2.15,0,0,1-1.11-.25l-.91-.49-3.57-2L495,275.92l-13.84-7.56L455,254.07l-44.26-24.23L381,213.47,372.87,209a2,2,0,0,1-1.18-2,1.52,1.52,0,0,1,.24-.79,3,3,0,0,0-.19.79,2,2,0,0,0,1.18,1.89l8.14,4.39L411,229.52l44.31,24.13,26.16,14.26,13.83,7.55,7.08,3.86,3.57,2,.89.48a1.76,1.76,0,0,0,.87.19,1.67,1.67,0,0,0,1.35-2.59,1.79,1.79,0,0,0-.65-.6l-.89-.49-3.57-1.95-7.08-3.87L483,264.9l-26.14-14.29L412.6,226.38,382.79,210l-8.1-4.48a2,2,0,0,0-2.22.09A2.63,2.63,0,0,0,371.93,206.22Z" style="fill:#263238"></path><path d="M367.94,213.68a1.57,1.57,0,0,1,.51-.64,2,2,0,0,1,2.3-.15l8.14,4.39,29.9,16.23,44.3,24.13,26.16,14.27,13.83,7.54,7.07,3.87,3.58,1.95.89.49a2.25,2.25,0,0,1,.95,3,2.22,2.22,0,0,1-1.89,1.18,2.37,2.37,0,0,1-1.11-.25l-.91-.49-3.57-1.95L491,283.37l-13.83-7.55L451,261.52l-44.26-24.23L377,220.92l-8.1-4.47a2.05,2.05,0,0,1-1.17-2,1.5,1.5,0,0,1,.24-.78,2.84,2.84,0,0,0-.19.78,2,2,0,0,0,1.17,1.89l8.14,4.39L407,237l44.31,24.13,26.16,14.27,13.83,7.55,7.08,3.86,3.57,2,.89.49a1.73,1.73,0,0,0,.86.18,1.66,1.66,0,0,0,1.36-2.58,1.81,1.81,0,0,0-.65-.61l-.89-.49-3.57-2-7.08-3.86L479,272.35l-26.13-14.29-44.26-24.22L378.8,217.46,370.7,213a2,2,0,0,0-2.22.09A2.4,2.4,0,0,0,367.94,213.68Z" style="fill:#263238"></path><path d="M364,221.13a1.52,1.52,0,0,1,.51-.64,2,2,0,0,1,2.3-.14l8.14,4.39L404.8,241l44.3,24.13,26.16,14.26,13.83,7.55,7.07,3.86,3.58,2,.89.49a2.33,2.33,0,0,1,.84.78,2.25,2.25,0,0,1,.11,2.22,2.23,2.23,0,0,1-1.89,1.17,2.15,2.15,0,0,1-1.11-.25l-.91-.49-3.57-1.95L487,290.83l-13.83-7.56L447.05,269l-44.26-24.23L373,228.38l-8.1-4.48a2,2,0,0,1-1.17-2,1.52,1.52,0,0,1,.24-.79,2.57,2.57,0,0,0-.19.79,2,2,0,0,0,1.17,1.89l8.14,4.39L403,244.43l44.31,24.13,26.15,14.26,13.84,7.55,7.08,3.87c1.18.64,2.38,1.29,3.57,1.95l.89.48a1.74,1.74,0,0,0,.86.19,1.68,1.68,0,0,0,1.36-2.59,1.87,1.87,0,0,0-.65-.6l-.89-.49-3.57-1.95-7.08-3.86L475,279.81l-26.14-14.29-44.25-24.23-29.81-16.37-8.1-4.48a2,2,0,0,0-2.22.09A2.91,2.91,0,0,0,364,221.13Z" style="fill:#263238"></path><path d="M326.08,336.14V255.45l4.11-3.8s2.85-40.51,3.17-39.56,12.65-13,12.65-13l13.36,5.59,1.52,131.43Z" style="fill:#e0e0e0"></path><path d="M326.08,336.14h.61l1.76,0,6.83,0,25.61-.09-.16.16c-.36-29.23-.93-75.59-1.58-127.67,0-1.25,0-2.51,0-3.75l.16.23-13.36-5.59.3-.07c-3.49,3.89-6.92,7.72-10.51,11.3-.45.44-.91.88-1.4,1.29-.13.1-.25.21-.39.3a1.38,1.38,0,0,1-.24.14.34.34,0,0,1-.18.06.33.33,0,0,1-.37-.2.22.22,0,0,0,.05.08c0,.13.46,0,.35,0,.05-.06,0-.07,0-.06v0l0,.1,0,.23-.06.46c-.14,1.23-.25,2.47-.36,3.7q-.3,3.71-.6,7.33c-.72,9.67-1.41,18.92-2.06,27.62v.1l-.06.06-4.12,3.79.07-.16c0,24.17-.08,44.32-.11,58.43,0,7.07-.05,12.62-.06,16.42,0,1.89,0,3.34,0,4.34v1.12c0,.25,0,.38,0,.38s0-.12,0-.36,0-.62,0-1.09c0-1,0-2.43,0-4.3,0-3.79,0-9.32-.06-16.36,0-14.15-.07-34.35-.12-58.58v-.1l.08-.07c1.34-1.24,2.69-2.5,4.11-3.8l-.08.15c.64-8.71,1.31-18,2-27.63q.3-3.63.6-7.33c.11-1.23.22-2.47.36-3.72l.06-.47,0-.25,0-.12a.47.47,0,0,1,0-.09s0,0,.06-.12c-.1,0,.34-.14.37,0a.5.5,0,0,1,.08.12c-.31.11-.09,0-.17.05h0a1.14,1.14,0,0,0,0-.15s0,0,0,0l.17-.11a4.22,4.22,0,0,0,.36-.27c.47-.39.92-.83,1.37-1.27,3.56-3.55,7-7.39,10.47-11.27l.12-.14.17.07,13.36,5.59.16.07v.17c0,1.25,0,2.5,0,3.76.56,52.08,1.06,98.44,1.38,127.67v.16h-.16l-25.71-.09-6.79,0-1.73,0Z" style="fill:#263238"></path><g style="opacity:0.30000000000000004"><polygon points="330.19 251.65 349.97 257.81 326.08 255.45 330.19 251.65"></polygon></g><path d="M330.2,255.85a2.18,2.18,0,0,1,0,.41c0,.3,0,.7,0,1.21,0,1.09,0,2.64.05,4.63,0,4,0,9.86.08,17s0,15.77.05,25.27c0,4.75,0,9.74,0,14.92v12.94a2.11,2.11,0,0,0,.15.89,1.7,1.7,0,0,0,2.93.3,1.87,1.87,0,0,0,.31-.82c0-.29,0-.67,0-1V319.71c0-5.18,0-10.17,0-14.93,0-9.5,0-18.06.05-25.26s.06-13,.08-17c0-2,0-3.55.05-4.63,0-.51,0-.91,0-1.21a2.18,2.18,0,0,1,0-.41s0,.14,0,.41,0,.7,0,1.21c0,1.08,0,2.64.05,4.63,0,4.05,0,9.86.08,17s0,15.76.06,25.26c0,4.76,0,9.75,0,14.93v7.89c0,1.33,0,2.68,0,4,0,.35,0,.65,0,1a2.19,2.19,0,0,1-.4,1.07,2.21,2.21,0,0,1-3.82-.39,2.41,2.41,0,0,1-.2-1.1v-1c0-1.35,0-2.7,0-4v-7.89c0-5.18,0-10.17,0-14.92,0-9.5,0-18.07.06-25.27s.06-13,.08-17c0-2,0-3.54,0-4.63,0-.51,0-.91,0-1.21S330.2,255.85,330.2,255.85Z" style="fill:#263238"></path><path d="M340,257a3,3,0,0,1,0,.4c0,.29,0,.68,0,1.18,0,1.07,0,2.6,0,4.55,0,4,0,9.68,0,16.71s-.06,15.47-.09,24.79c0,4.67,0,9.56-.07,14.64,0,2.54,0,5.12,0,7.74,0,1.31,0,2.63,0,4v1a1.77,1.77,0,0,0,.17.86,1.7,1.7,0,0,0,2.89.26,1.74,1.74,0,0,0,.32-.8c0-.27,0-.65,0-1v-4c0-2.62,0-5.21,0-7.75,0-5.07,0-10,0-14.64,0-9.32,0-17.72.06-24.79s.06-12.74.08-16.71c0-1.95,0-3.48.05-4.54,0-.5,0-.9,0-1.19a1.79,1.79,0,0,1,0-.4,2.12,2.12,0,0,1,0,.4c0,.29,0,.69,0,1.19,0,1.06,0,2.59,0,4.54,0,4,.05,9.68.09,16.71s0,15.47.05,24.79c0,4.67,0,9.57,0,14.64v11.71c0,.35,0,.64,0,1a2.22,2.22,0,0,1-4.2.7,2.3,2.3,0,0,1-.22-1.08v-1c0-1.33,0-2.65,0-4,0-2.62,0-5.21.05-7.74,0-5.08.07-10,.1-14.64.08-9.33.14-17.73.2-24.79s.14-12.74.18-16.71c0-2,.06-3.48.07-4.55,0-.5,0-.89,0-1.18A2,2,0,0,1,340,257Z" style="fill:#263238"></path><path d="M352.18,212.81s0,.21,0,.63,0,1.05,0,1.85c0,1.65,0,4,0,7.12-.05,6.2-.12,15.14-.2,26.18s-.23,24.23-.36,38.84c-.08,7.31-.16,15-.24,22.93q-.06,6-.12,12.13c0,2.05-.05,4.12-.07,6.2l0,3.14a1.72,1.72,0,0,0,1.52,2,1.69,1.69,0,0,0,1.86-1.58c0-1,0-2.09,0-3.12,0-2.09,0-4.15.07-6.21q.06-6.17.13-12.13c.09-8,.18-15.63.26-22.94.18-14.61.34-27.77.48-38.83s.28-20,.37-26.19c.05-3.07.09-5.47.12-7.11,0-.8,0-1.42.05-1.86s0-.63,0-.63,0,.22,0,.64,0,1,0,1.85c0,1.64,0,4,0,7.12,0,6.2-.12,15.14-.2,26.18s-.23,24.22-.37,38.84c-.07,7.31-.15,15-.23,22.93q-.06,6-.13,12.13,0,3.09-.06,6.21c0,1.05,0,2.1,0,3.15a2.22,2.22,0,0,1-2.43,2.07,2.25,2.25,0,0,1-1.53-.84,2.35,2.35,0,0,1-.46-1.65l0-3.13c0-2.08.05-4.15.07-6.2q.08-6.17.13-12.13c.1-7.95.18-15.63.27-22.93.17-14.62.34-27.78.47-38.84s.28-20,.37-26.18c0-3.08.09-5.47.12-7.12,0-.8,0-1.42,0-1.85S352.18,212.81,352.18,212.81Z" style="fill:#263238"></path><polygon points="490.95 330.68 490.95 304.56 498.61 293.66 531.58 291.5 531.58 334.82 490.95 330.68" style="fill:#e0e0e0"></polygon><path d="M498.61,293.66h33a3.37,3.37,0,0,0,3.37-3.37h0a3.36,3.36,0,0,0-3.37-3.36H502.27Z" style="fill:#e0e0e0"></path><path d="M529,286.93a2.66,2.66,0,0,1-.52,0L527,287l-5.6.08-19.09.09.22-.13L499,293.46l-.18.32-.22-.38,23.8-.09,7.2,0,2,0a3.32,3.32,0,0,1,.68,0,3.1,3.1,0,0,1-.68.06l-2,.06-7.2.13-23.8.24h-.45l.22-.39.17-.32,3.5-6.41.07-.13h.15l19.09.09,5.6.08,1.51,0A2.15,2.15,0,0,1,529,286.93Z" style="fill:#263238"></path><path d="M491,328.31a7.81,7.81,0,0,1-.11-1.46c0-1,0-2.37-.08-4-.05-3.36-.07-8-.07-13.11,0-1.82,0-3.57,0-5.21v-.08l0-.06c2.23-3.15,4.17-5.86,5.57-7.77l1.65-2.23a4.06,4.06,0,0,1,.65-.76,5.34,5.34,0,0,1-.51.86l-1.53,2.31c-1.33,2-3.21,4.71-5.42,7.88l.05-.15c0,1.64,0,3.39,0,5.21,0,5.12,0,9.75-.08,13.11,0,1.6-.06,2.93-.08,4A8.57,8.57,0,0,1,491,328.31Z" style="fill:#263238"></path><path d="M527.72,333.83a6.93,6.93,0,0,1-.05-.79c0-.56,0-1.31,0-2.26,0-2,0-4.84-.08-8.31s0-7.7-.06-12.32c0-2.33,0-4.76,0-7.28V299a8.25,8.25,0,0,0-.1-1.89,2.19,2.19,0,0,0-2.85-1.43,2.22,2.22,0,0,0-1.46,2v2.87c0,2.52,0,5,0,7.28,0,4.63,0,8.8,0,12.33s-.07,6.29-.09,8.31c0,.94,0,1.69,0,2.26a3.71,3.71,0,0,1-.05.79,4.83,4.83,0,0,1,0-.79c0-.57,0-1.32,0-2.26,0-2-.05-4.84-.08-8.31s0-7.7-.06-12.33c0-2.32,0-4.76,0-7.28,0-.63,0-1.27,0-1.91v-1a2.72,2.72,0,0,1,5.32-.7A3.28,3.28,0,0,1,528,298v4.83c0,2.52,0,4.95,0,7.28,0,4.62,0,8.8-.05,12.32s-.06,6.3-.08,8.31c0,1,0,1.7-.05,2.26A4,4,0,0,1,527.72,333.83Z" style="fill:#263238"></path><path d="M520.48,332.75a4.76,4.76,0,0,1-.05-.78c0-.56,0-1.3,0-2.23,0-2,0-4.77,0-8.19s0-7.59,0-12.16c0-2.29,0-4.69,0-7.17,0-1.25,0-2.52,0-3.8a3,3,0,0,0-.29-1.75,2.22,2.22,0,0,0-1.37-1,2.2,2.2,0,0,0-2.68,1.63,12.3,12.3,0,0,0-.06,1.85c0,.63,0,1.26,0,1.88,0,2.49,0,4.89,0,7.18,0,4.56,0,8.68-.06,12.16s-.06,6.2-.08,8.19c0,.93,0,1.67-.05,2.23a4.76,4.76,0,0,1,0,.78,3.66,3.66,0,0,1,0-.78c0-.56,0-1.3-.05-2.23,0-2,0-4.77-.08-8.19s0-7.6-.06-12.16c0-2.29,0-4.69,0-7.18v-1.88a13.34,13.34,0,0,1,.07-2,2.72,2.72,0,0,1,3.32-2,2.74,2.74,0,0,1,1.69,1.28,2.81,2.81,0,0,1,.34,1c0,.37,0,.68,0,1,0,1.29,0,2.55,0,3.8,0,2.49,0,4.89,0,7.17-.05,4.57-.09,8.68-.12,12.16s-.1,6.2-.13,8.19c0,.93-.05,1.67-.06,2.23A4,4,0,0,1,520.48,332.75Z" style="fill:#263238"></path><path d="M513.62,331.82a4.48,4.48,0,0,1,0-.76c0-.55,0-1.28-.05-2.19,0-2,0-4.69-.08-8.05s0-7.45-.06-11.93c0-2.25,0-4.61,0-7.05,0-1.23,0-2.47,0-3.73a2.45,2.45,0,0,0-.43-1.65,2.25,2.25,0,0,0-1.44-.87,2.22,2.22,0,0,0-2.5,1.83c-.06,1.18,0,2.48,0,3.69,0,2.44,0,4.8,0,7.05,0,4.48,0,8.52-.06,11.93s-.06,6.09-.08,8.05c0,.91,0,1.64-.05,2.19a4.48,4.48,0,0,1-.05.76,3.44,3.44,0,0,1-.05-.76c0-.55,0-1.28,0-2.19,0-2-.05-4.69-.09-8.05s0-7.45-.05-11.93c0-2.25,0-4.61,0-7.05,0-1.24,0-2.43,0-3.77a2.7,2.7,0,0,1,1.06-1.76,2.73,2.73,0,0,1,3.81.57,3,3,0,0,1,.53,2v3.73c0,2.44,0,4.8,0,7.05,0,4.48,0,8.52-.06,11.93s-.06,6.09-.08,8.05c0,.91,0,1.64-.05,2.19A3.44,3.44,0,0,1,513.62,331.82Z" style="fill:#263238"></path><path d="M506.76,330.79a3.52,3.52,0,0,1-.06-.74c0-.54,0-1.24-.06-2.13,0-1.9-.07-4.56-.13-7.82s-.07-7.26-.12-11.61q0-3.28-.05-6.86,0-1.78,0-3.63a2.21,2.21,0,0,0-4.36-.67,14.47,14.47,0,0,0-.05,1.77v1.8c0,2.37,0,4.67,0,6.86,0,4.35,0,8.28-.06,11.61s-.06,5.92-.08,7.82c0,.89,0,1.59-.05,2.13a6,6,0,0,1-.05.74,3.52,3.52,0,0,1-.06-.74c0-.54,0-1.24,0-2.13,0-1.9,0-4.56-.08-7.82s0-7.26,0-11.61c0-2.19,0-4.49,0-6.86v-1.8a15.14,15.14,0,0,1,.05-1.88,2.73,2.73,0,0,1,4.82-1.12,2.86,2.86,0,0,1,.57,1.9c0,1.23,0,2.44,0,3.63,0,2.37,0,4.67,0,6.85,0,4.36,0,8.29,0,11.61s0,5.93,0,7.83c0,.89,0,1.59,0,2.13A4.2,4.2,0,0,1,506.76,330.79Z" style="fill:#263238"></path><path d="M499.52,330a8.58,8.58,0,0,1-.1-1.57c0-1.1-.05-2.54-.09-4.28,0-3.62-.07-8.61-.07-14.13,0-6.64,0-12.52.1-16.08h.31a4.11,4.11,0,0,1-.18,1.29.83.83,0,0,1-.41.47,1,1,0,0,1-.53,0c-.61-.1-1-.19-1.26-.2h0c-.16-.18-.21-.25-.2-.26s.08,0,.26.2l0,0a7.89,7.89,0,0,1,1.27.09.58.58,0,0,0,.69-.41,4,4,0,0,0,.11-1.2h.31c.07,3.56.11,9.44.11,16.08,0,5.52,0,10.51-.08,14.13,0,1.74-.06,3.18-.08,4.28A9.9,9.9,0,0,1,499.52,330Z" style="fill:#263238"></path><path d="M494.59,299.37c.15,0,.26,6.65.26,14.84s-.11,14.85-.26,14.85-.26-6.65-.26-14.85S494.45,299.37,494.59,299.37Z" style="fill:#263238"></path><path d="M535,334.82c0,.14-13.86-1.71-30.9-4.14s-30.84-4.52-30.82-4.66,13.85,1.71,30.9,4.14S535,334.68,535,334.82Z" style="fill:#263238"></path><polygon points="298.57 258.38 298.15 235.72 301.07 228.9 301.07 157.4 263.5 157.4 263.5 336.22 301.07 336.22 301.07 262.94 298.57 258.38" style="fill:#e0e0e0"></polygon><path d="M295.55,159.32a1.82,1.82,0,0,1,.87.14,2.2,2.2,0,0,1,1.36,2.06c0,2.28,0,5.62,0,9.9-.05,8.62-.13,21.05-.23,36.42s-.25,33.68-.41,54c-.08,10.16-.16,20.83-.25,31.89q-.08,8.29-.14,16.86c0,2.86,0,5.74-.08,8.63l0,4.36,0,1.1a2.24,2.24,0,0,1-.34,1.16,2.42,2.42,0,0,1-4.12,0,2.41,2.41,0,0,1-.37-1.16c0-.39,0-.74,0-1.11,0-1.45,0-2.91,0-4.35,0-2.9.05-5.78.07-8.63q.08-8.58.15-16.88c.1-11.06.2-21.73.29-31.89.19-20.33.37-38.63.52-54s.3-27.8.39-36.41c.06-4.28.1-7.62.13-9.89a2.22,2.22,0,0,1,1.34-2.08,1.74,1.74,0,0,1,.86-.15,2.72,2.72,0,0,0-.84.2,2.13,2.13,0,0,0-1.25,2c0,2.27,0,5.61,0,9.9-.05,8.61-.13,21-.23,36.41s-.25,33.68-.4,54c-.09,10.17-.17,20.84-.26,31.9q-.07,8.3-.14,16.87,0,4.28-.07,8.63c0,1.45,0,2.9,0,4.36v1.08a1.89,1.89,0,0,0,1.92,1.78,1.87,1.87,0,0,0,1.6-.91,1.82,1.82,0,0,0,.27-.91v-1.08c0-1.46,0-2.91,0-4.36,0-2.9.05-5.77.08-8.63q.07-8.56.15-16.87c.1-11.05.19-21.72.29-31.88.19-20.33.37-38.63.51-54s.31-27.8.4-36.41c.06-4.29.1-7.62.13-9.9a2.12,2.12,0,0,0-1.27-2A2.5,2.5,0,0,0,295.55,159.32Z" style="fill:#263238"></path><path d="M286.22,159.32a1.83,1.83,0,0,1,.87.14,2.19,2.19,0,0,1,1.35,2.06c0,2.28,0,5.62,0,9.9-.06,8.62-.13,21.05-.23,36.42s-.26,33.68-.41,54c-.08,10.16-.17,20.83-.26,31.89q-.06,8.29-.14,16.86c0,2.86-.05,5.74-.07,8.63,0,1.45,0,2.9,0,4.36v1.1a2.25,2.25,0,0,1-.35,1.16,2.42,2.42,0,0,1-4.48-1.12c0-.39,0-.74,0-1.11,0-1.45,0-2.91,0-4.35,0-2.9.05-5.78.08-8.63q.07-8.58.14-16.88c.1-11.06.2-21.73.29-31.89.2-20.33.37-38.63.52-54s.3-27.8.4-36.41c.05-4.28.1-7.62.13-9.89a2.2,2.2,0,0,1,1.34-2.08,1.74,1.74,0,0,1,.86-.15,2.72,2.72,0,0,0-.84.2,2.13,2.13,0,0,0-1.26,2c0,2.27,0,5.61,0,9.9-.06,8.61-.13,21-.23,36.41s-.25,33.68-.41,54c-.08,10.17-.17,20.84-.25,31.9q-.07,8.3-.15,16.87,0,4.28-.07,8.63c0,1.45,0,2.9,0,4.36v1.08a1.72,1.72,0,0,0,.29.9,1.9,1.9,0,0,0,3.23,0,1.82,1.82,0,0,0,.27-.91v-1.08c0-1.46,0-2.91,0-4.36,0-2.9.05-5.77.07-8.63q.07-8.56.15-16.87c.1-11.05.2-21.72.29-31.88.2-20.33.37-38.63.52-54s.3-27.8.4-36.41c.05-4.29.1-7.62.13-9.9a2.13,2.13,0,0,0-1.27-2A2.5,2.5,0,0,0,286.22,159.32Z" style="fill:#263238"></path><path d="M276.89,159.32a1.79,1.79,0,0,1,.86.14,2.2,2.2,0,0,1,1.36,2.06c0,2.28,0,5.62,0,9.9-.06,8.62-.14,21.05-.23,36.42s-.26,33.68-.41,54c-.08,10.16-.17,20.83-.26,31.89q-.07,8.29-.14,16.86,0,4.29-.07,8.63c0,1.45,0,2.9,0,4.36v1.1a2.35,2.35,0,0,1-.35,1.16,2.42,2.42,0,0,1-4.12,0,2.29,2.29,0,0,1-.36-1.16c0-.39,0-.74,0-1.11,0-1.45,0-2.91,0-4.35,0-2.9.05-5.78.07-8.63q.07-8.58.15-16.88c.1-11.06.2-21.73.29-31.89.19-20.33.37-38.63.52-54s.3-27.8.39-36.41c.06-4.28.11-7.62.14-9.89a2.2,2.2,0,0,1,1.33-2.08,1.78,1.78,0,0,1,.87-.15,2.66,2.66,0,0,0-.84.2,2.13,2.13,0,0,0-1.26,2c0,2.27,0,5.61,0,9.9-.05,8.61-.13,21-.22,36.41s-.26,33.68-.41,54c-.08,10.17-.17,20.84-.26,31.9q-.06,8.3-.14,16.87c0,2.85-.05,5.73-.07,8.63,0,1.45,0,2.9,0,4.36v1.08a1.8,1.8,0,0,0,.28.9,1.91,1.91,0,0,0,3.24,0,1.93,1.93,0,0,0,.27-.91v-1.08c0-1.46,0-2.91,0-4.36,0-2.9.05-5.77.07-8.63q.08-8.56.15-16.87c.1-11.05.2-21.72.29-31.88.19-20.33.37-38.63.52-54s.3-27.8.39-36.41c.06-4.29.11-7.62.14-9.9a2.14,2.14,0,0,0-1.28-2A2.47,2.47,0,0,0,276.89,159.32Z" style="fill:#263238"></path><path d="M267.55,159.32a1.83,1.83,0,0,1,.87.14,2.2,2.2,0,0,1,1.36,2.06c0,2.28,0,5.62,0,9.9-.05,8.62-.13,21.05-.23,36.42s-.25,33.68-.41,54c-.08,10.16-.17,20.83-.25,31.89q-.08,8.29-.15,16.86,0,4.29-.07,8.63c0,1.45,0,2.9,0,4.36v1.1a2.34,2.34,0,0,1-.34,1.16,2.42,2.42,0,0,1-4.12,0,2.41,2.41,0,0,1-.37-1.16c0-.39,0-.74,0-1.11,0-1.45,0-2.91,0-4.35,0-2.9,0-5.78.08-8.63q.08-8.58.15-16.88c.1-11.06.19-21.73.29-31.89.19-20.33.37-38.63.51-54s.31-27.8.4-36.41c.06-4.28.1-7.62.13-9.89a2.22,2.22,0,0,1,1.34-2.08,1.74,1.74,0,0,1,.86-.15,2.72,2.72,0,0,0-.84.2,2.13,2.13,0,0,0-1.25,2c0,2.27,0,5.61,0,9.9-.05,8.61-.13,21-.23,36.41s-.25,33.68-.4,54c-.09,10.17-.17,20.84-.26,31.9q-.07,8.3-.14,16.87c0,2.85-.05,5.73-.08,8.63l0,4.36v1.08a1.89,1.89,0,0,0,1.91,1.78,1.89,1.89,0,0,0,1.61-.91,1.82,1.82,0,0,0,.27-.91v-1.08c0-1.46,0-2.91,0-4.36,0-2.9.05-5.77.08-8.63q.07-8.56.15-16.87c.1-11.05.19-21.72.28-31.88.2-20.33.38-38.63.52-54s.31-27.8.4-36.41c.06-4.29.1-7.62.13-9.9a2.13,2.13,0,0,0-1.27-2A2.5,2.5,0,0,0,267.55,159.32Z" style="fill:#263238"></path><path d="M263.22,325.68H303a9.42,9.42,0,0,1,9.42,9.42v1a0,0,0,0,1,0,0H253.8a0,0,0,0,1,0,0v-1a9.42,9.42,0,0,1,9.42-9.42Z" style="fill:#e0e0e0"></path><rect x="255.63" y="148.55" width="53.3" height="8.85" rx="4.01" style="fill:#e0e0e0"></rect><path d="M301.71,157.2c0,.15-9.28.26-20.73.26s-20.74-.11-20.74-.26,9.28-.26,20.74-.26S301.71,157.06,301.71,157.2Z" style="fill:#263238"></path><polygon points="102.6 258.38 102.19 235.72 105.1 228.9 105.1 157.4 67.53 157.4 67.53 336.22 105.1 336.22 105.1 262.94 102.6 258.38" style="fill:#e0e0e0"></polygon><path d="M99.59,159.32a1.83,1.83,0,0,1,.87.14,2.19,2.19,0,0,1,1.35,2.06c0,2.28,0,5.62,0,9.9-.06,8.62-.13,21.05-.23,36.42s-.26,33.68-.41,54c-.08,10.16-.17,20.83-.26,31.89q-.06,8.29-.14,16.86c0,2.86,0,5.74-.07,8.63,0,1.45,0,2.9,0,4.36v1.1a2.25,2.25,0,0,1-.35,1.16,2.42,2.42,0,0,1-4.48-1.12c0-.39,0-.74,0-1.11,0-1.45,0-2.91,0-4.35,0-2.9,0-5.78.08-8.63q.07-8.58.14-16.88c.1-11.06.2-21.73.29-31.89.2-20.33.37-38.63.52-54s.3-27.8.4-36.41c0-4.28.1-7.62.13-9.89a2.2,2.2,0,0,1,1.34-2.08,1.74,1.74,0,0,1,.86-.15,2.72,2.72,0,0,0-.84.2,2.13,2.13,0,0,0-1.26,2c0,2.27,0,5.61,0,9.9-.06,8.61-.13,21-.23,36.41s-.25,33.68-.41,54c-.08,10.17-.17,20.84-.26,31.9q-.06,8.3-.14,16.87,0,4.28-.07,8.63c0,1.45,0,2.9,0,4.36v1.08a1.72,1.72,0,0,0,.29.9,1.9,1.9,0,0,0,3.23,0,1.82,1.82,0,0,0,.27-.91v-1.08c0-1.46,0-2.91,0-4.36,0-2.9,0-5.77.07-8.63q.07-8.56.15-16.87c.1-11.05.2-21.72.29-31.88.2-20.33.37-38.63.52-54s.3-27.8.4-36.41c0-4.29.1-7.62.13-9.9a2.13,2.13,0,0,0-1.27-2A2.5,2.5,0,0,0,99.59,159.32Z" style="fill:#263238"></path><path d="M90.26,159.32a1.79,1.79,0,0,1,.86.14,2.2,2.2,0,0,1,1.36,2.06c0,2.28,0,5.62,0,9.9,0,8.62-.13,21.05-.22,36.42s-.26,33.68-.41,54c-.09,10.16-.17,20.83-.26,31.89q-.08,8.29-.14,16.86c0,2.86,0,5.74-.08,8.63l0,4.36v1.1a2.35,2.35,0,0,1-.35,1.16,2.42,2.42,0,0,1-4.12,0,2.29,2.29,0,0,1-.36-1.16c0-.39,0-.74,0-1.11l0-4.35c0-2.9,0-5.78.07-8.63q.08-8.58.15-16.88c.1-11.06.2-21.73.29-31.89.19-20.33.37-38.63.52-54s.3-27.8.39-36.41c.06-4.28.1-7.62.14-9.89a2.2,2.2,0,0,1,1.33-2.08,1.78,1.78,0,0,1,.87-.15,2.66,2.66,0,0,0-.84.2,2.13,2.13,0,0,0-1.26,2c0,2.27,0,5.61,0,9.9-.05,8.61-.13,21-.22,36.41s-.26,33.68-.41,54c-.08,10.17-.17,20.84-.26,31.9q-.06,8.3-.14,16.87L87,319.26l0,4.36v1.08a1.8,1.8,0,0,0,.28.9,1.91,1.91,0,0,0,3.24,0,1.93,1.93,0,0,0,.27-.91v-1.08l0-4.36c0-2.9.06-5.77.08-8.63Q91,302,91,293.72c.1-11.05.2-21.72.29-31.88.19-20.33.37-38.63.52-54s.3-27.8.39-36.41c.06-4.29.11-7.62.14-9.9a2.14,2.14,0,0,0-1.28-2A2.47,2.47,0,0,0,90.26,159.32Z" style="fill:#263238"></path><path d="M80.92,159.32a1.83,1.83,0,0,1,.87.14,2.2,2.2,0,0,1,1.36,2.06c0,2.28,0,5.62,0,9.9,0,8.62-.13,21.05-.23,36.42s-.25,33.68-.41,54c-.08,10.16-.17,20.83-.25,31.89q-.07,8.29-.15,16.86,0,4.29-.07,8.63c0,1.45,0,2.9,0,4.36v1.1a2.34,2.34,0,0,1-.34,1.16,2.42,2.42,0,0,1-4.12,0,2.41,2.41,0,0,1-.37-1.16c0-.39,0-.74,0-1.11l0-4.35c0-2.9,0-5.78.08-8.63q.08-8.58.15-16.88c.1-11.06.19-21.73.29-31.89.19-20.33.37-38.63.51-54s.3-27.8.4-36.41c.06-4.28.1-7.62.13-9.89a2.22,2.22,0,0,1,1.34-2.08,1.74,1.74,0,0,1,.86-.15,2.72,2.72,0,0,0-.84.2,2.13,2.13,0,0,0-1.25,2c0,2.27,0,5.61,0,9.9-.05,8.61-.13,21-.23,36.41s-.25,33.68-.4,54c-.09,10.17-.17,20.84-.26,31.9q-.08,8.3-.14,16.87c0,2.85-.05,5.73-.08,8.63l0,4.36v1.08a1.89,1.89,0,0,0,1.91,1.78,1.89,1.89,0,0,0,1.61-.91,1.82,1.82,0,0,0,.27-.91v-1.08c0-1.46,0-2.91,0-4.36,0-2.9,0-5.77.08-8.63q.07-8.56.14-16.87c.11-11.05.2-21.72.29-31.88.2-20.33.38-38.63.52-54s.3-27.8.4-36.41c.06-4.29.1-7.62.13-9.9a2.13,2.13,0,0,0-1.27-2A2.5,2.5,0,0,0,80.92,159.32Z" style="fill:#263238"></path><path d="M71.59,159.32a1.83,1.83,0,0,1,.87.14,2.19,2.19,0,0,1,1.35,2.06c0,2.28,0,5.62,0,9.9-.06,8.62-.14,21.05-.23,36.42s-.26,33.68-.41,54c-.08,10.16-.17,20.83-.26,31.89q-.06,8.29-.14,16.86c0,2.86,0,5.74-.07,8.63,0,1.45,0,2.9,0,4.36v1.1a2.25,2.25,0,0,1-.35,1.16,2.41,2.41,0,0,1-4.11,0,2.3,2.3,0,0,1-.37-1.16c0-.39,0-.74,0-1.11,0-1.45,0-2.91,0-4.35l.08-8.63q.07-8.58.14-16.88c.1-11.06.2-21.73.29-31.89.2-20.33.37-38.63.52-54s.3-27.8.39-36.41c.06-4.28.11-7.62.14-9.89a2.2,2.2,0,0,1,1.34-2.08,1.74,1.74,0,0,1,.86-.15,2.66,2.66,0,0,0-.84.2,2.13,2.13,0,0,0-1.26,2c0,2.27,0,5.61,0,9.9-.06,8.61-.14,21-.23,36.41s-.26,33.68-.41,54c-.08,10.17-.17,20.84-.26,31.9q-.06,8.3-.14,16.87c0,2.85,0,5.73-.07,8.63,0,1.45,0,2.9,0,4.36v1.08a1.72,1.72,0,0,0,.29.9,1.9,1.9,0,0,0,3.23,0,1.82,1.82,0,0,0,.27-.91v-1.08c0-1.46,0-2.91,0-4.36,0-2.9,0-5.77.07-8.63q.07-8.56.15-16.87c.1-11.05.2-21.72.29-31.88.2-20.33.37-38.63.52-54l.39-36.41c.06-4.29.11-7.62.14-9.9a2.14,2.14,0,0,0-1.28-2A2.43,2.43,0,0,0,71.59,159.32Z" style="fill:#263238"></path><path d="M67.26,325.68h39.81a9.42,9.42,0,0,1,9.42,9.42v1a0,0,0,0,1,0,0H57.83a0,0,0,0,1,0,0v-1A9.42,9.42,0,0,1,67.26,325.68Z" style="fill:#e0e0e0"></path><rect x="59.67" y="148.55" width="53.3" height="8.85" rx="4.01" style="fill:#e0e0e0"></rect><path d="M105.75,157.2c0,.15-9.29.26-20.74.26s-20.73-.11-20.73-.26,9.28-.26,20.73-.26S105.75,157.06,105.75,157.2Z" style="fill:#263238"></path><polygon points="586.23 256.5 585.81 233.29 588.8 226.31 588.8 153.08 550.32 153.08 550.32 336.22 588.8 336.22 588.8 261.17 586.23 256.5" style="fill:#e0e0e0"></polygon><path d="M583.15,155.05a1.71,1.71,0,0,1,.89.15,2.23,2.23,0,0,1,1.39,2.1c0,2.34,0,5.75,0,10.14-.06,8.82-.14,21.56-.24,37.3s-.26,34.49-.42,55.3c-.08,10.41-.17,21.34-.26,32.66-.05,5.66-.1,11.43-.15,17.28,0,2.92-.05,5.87-.07,8.83,0,1.48,0,3,0,4.46v1.13a2.4,2.4,0,0,1-.36,1.19,2.47,2.47,0,0,1-4.2,0,2.42,2.42,0,0,1-.38-1.19c0-.4,0-.75,0-1.13,0-1.49,0-3,0-4.46,0-3,.05-5.92.07-8.84,0-5.85.1-11.62.15-17.28.11-11.33.2-22.26.3-32.67.2-20.81.38-39.56.53-55.31s.31-28.47.4-37.29c.06-4.39.1-7.8.14-10.13a2.22,2.22,0,0,1,1.37-2.12,1.77,1.77,0,0,1,.88-.16,2.44,2.44,0,0,0-.86.2,2.2,2.2,0,0,0-1.29,2.08c0,2.33,0,5.74,0,10.14-.05,8.81-.13,21.55-.23,37.28s-.26,34.5-.42,55.32c-.09,10.41-.17,21.33-.27,32.66,0,5.66-.09,11.43-.14,17.28,0,2.92,0,5.87-.07,8.84,0,1.48,0,3,0,4.46v1.11a1.93,1.93,0,0,0,.3.93,2,2,0,0,0,3.32,0,1.94,1.94,0,0,0,.28-.94v-1.11c0-1.49,0-3,0-4.46,0-3,0-5.91.07-8.84q.09-8.78.16-17.27c.1-11.33.2-22.25.29-32.66.2-20.81.38-39.56.53-55.31s.31-28.47.4-37.29c.06-4.39.11-7.8.14-10.14a2.2,2.2,0,0,0-1.31-2.06A2.57,2.57,0,0,0,583.15,155.05Z" style="fill:#263238"></path><path d="M573.59,155.05a1.71,1.71,0,0,1,.89.15,2.23,2.23,0,0,1,1.39,2.1c0,2.34,0,5.75,0,10.14-.06,8.82-.14,21.56-.24,37.3s-.26,34.49-.42,55.3c-.08,10.41-.17,21.34-.26,32.66,0,5.66-.1,11.43-.15,17.28,0,2.92,0,5.87-.07,8.83,0,1.48,0,3,0,4.46v1.13a2.4,2.4,0,0,1-.36,1.19,2.47,2.47,0,0,1-4.2,0,2.42,2.42,0,0,1-.38-1.19c0-.4,0-.75,0-1.13,0-1.49,0-3,0-4.46,0-3,0-5.92.07-8.84,0-5.85.11-11.62.15-17.28.11-11.33.21-22.26.3-32.67.2-20.81.38-39.56.53-55.31s.31-28.47.4-37.29c.06-4.39.11-7.8.14-10.13a2.22,2.22,0,0,1,1.37-2.12,1.77,1.77,0,0,1,.88-.16,2.48,2.48,0,0,0-.86.2,2.2,2.2,0,0,0-1.29,2.08c0,2.33,0,5.74,0,10.14,0,8.81-.13,21.55-.23,37.28s-.26,34.5-.42,55.32c-.08,10.41-.17,21.33-.26,32.66,0,5.66-.1,11.43-.15,17.28,0,2.92-.05,5.87-.07,8.84,0,1.48,0,3,0,4.46v1.11a1.93,1.93,0,0,0,.3.93,2,2,0,0,0,3.32,0,1.84,1.84,0,0,0,.28-.94v-1.11c0-1.49,0-3,0-4.46,0-3,.05-5.91.07-8.84q.09-8.78.16-17.27c.1-11.33.2-22.25.29-32.66.2-20.81.38-39.56.53-55.31s.31-28.47.41-37.29c0-4.39.1-7.8.13-10.14a2.21,2.21,0,0,0-1.3-2.06A2.6,2.6,0,0,0,573.59,155.05Z" style="fill:#263238"></path><path d="M564,155.05a1.71,1.71,0,0,1,.89.15,2.23,2.23,0,0,1,1.39,2.1c0,2.34,0,5.75,0,10.14-.06,8.82-.14,21.56-.24,37.3s-.26,34.49-.42,55.3c-.08,10.41-.17,21.34-.26,32.66-.05,5.66-.1,11.43-.15,17.28,0,2.92-.05,5.87-.07,8.83,0,1.48,0,3,0,4.46v1.13a2.5,2.5,0,0,1-.35,1.19,2.52,2.52,0,0,1-2.1,1.19,2.49,2.49,0,0,1-2.11-1.15,2.31,2.31,0,0,1-.37-1.19c0-.4,0-.75,0-1.13,0-1.49,0-3,0-4.46,0-3,0-5.92.07-8.84.06-5.85.11-11.62.16-17.28.1-11.33.2-22.26.29-32.67.2-20.81.38-39.56.53-55.31s.31-28.47.4-37.29c.06-4.39.11-7.8.14-10.13a2.22,2.22,0,0,1,1.37-2.12,1.77,1.77,0,0,1,.88-.16,2.48,2.48,0,0,0-.86.2,2.2,2.2,0,0,0-1.29,2.08c0,2.33,0,5.74,0,10.14-.05,8.81-.13,21.55-.23,37.28s-.26,34.5-.42,55.32c-.08,10.41-.17,21.33-.26,32.66,0,5.66-.1,11.43-.15,17.28,0,2.92,0,5.87-.07,8.84,0,1.48,0,3,0,4.46v1.11a1.82,1.82,0,0,0,.29.93,2,2,0,0,0,3.32,0,1.84,1.84,0,0,0,.28-.94v-1.11c0-1.49,0-3,0-4.46,0-3,0-5.91.08-8.84q.07-8.78.15-17.27c.1-11.33.2-22.25.29-32.66.2-20.81.38-39.56.53-55.31s.31-28.47.41-37.29c.06-4.39.1-7.8.13-10.14a2.21,2.21,0,0,0-1.3-2.06A2.6,2.6,0,0,0,564,155.05Z" style="fill:#263238"></path><path d="M554.47,155.05a1.71,1.71,0,0,1,.89.15,2.2,2.2,0,0,1,.89.66,2.23,2.23,0,0,1,.5,1.44c0,2.34,0,5.75,0,10.14-.06,8.82-.14,21.56-.24,37.3s-.26,34.49-.42,55.3c-.08,10.41-.17,21.34-.26,32.66,0,5.66-.1,11.43-.15,17.28,0,2.92,0,5.87-.07,8.83,0,1.48,0,3,0,4.46v1.13a2.39,2.39,0,0,1-.35,1.19,2.52,2.52,0,0,1-2.1,1.19,2.49,2.49,0,0,1-2.11-1.15,2.31,2.31,0,0,1-.37-1.19c0-.4,0-.75,0-1.13,0-1.49,0-3,0-4.46,0-3,0-5.92.07-8.84.06-5.85.11-11.62.16-17.28.1-11.33.2-22.26.29-32.67.2-20.81.38-39.56.53-55.31s.31-28.47.4-37.29c.06-4.39.11-7.8.14-10.13a2.24,2.24,0,0,1,1.37-2.12,1.77,1.77,0,0,1,.88-.16,2.48,2.48,0,0,0-.86.2,2.2,2.2,0,0,0-1.29,2.08c0,2.33,0,5.74,0,10.14-.06,8.81-.14,21.55-.24,37.28s-.26,34.5-.42,55.32c-.08,10.41-.17,21.33-.26,32.66,0,5.66-.1,11.43-.15,17.28,0,2.92-.05,5.87-.07,8.84,0,1.48,0,3,0,4.46v1.11a1.82,1.82,0,0,0,.29.93,2,2,0,0,0,3.32,0,1.84,1.84,0,0,0,.28-.94v-1.11c0-1.49,0-3,0-4.46,0-3,.05-5.91.08-8.84q.07-8.78.15-17.27c.1-11.33.2-22.25.29-32.66.2-20.81.38-39.56.53-55.31s.31-28.47.41-37.29c.06-4.39.1-7.8.13-10.14a2.21,2.21,0,0,0-1.3-2.06A2.6,2.6,0,0,0,554.47,155.05Z" style="fill:#263238"></path><path d="M549.81,325.43H591a9.42,9.42,0,0,1,9.42,9.42v1.23a0,0,0,0,1,0,0H540.38a0,0,0,0,1,0,0v-1.23A9.42,9.42,0,0,1,549.81,325.43Z" style="fill:#e0e0e0"></path><rect x="542.26" y="144.01" width="54.59" height="9.07" rx="4.01" style="fill:#e0e0e0"></rect><path d="M589.45,152.88c0,.14-9.5.26-21.23.26S547,153,547,152.88s9.51-.26,21.24-.26S589.45,152.73,589.45,152.88Z" style="fill:#263238"></path><polyline points="654.88 337.69 654.15 333.04 660.76 313.59 665.34 308.68 687.32 247.75 655.3 236.2 618.57 338.04" style="fill:#e0e0e0"></polyline><path d="M646.83,337.17s0-.16.15-.47.28-.79.48-1.38c.45-1.23,1.09-3,1.91-5.29,1.68-4.61,4.11-11.24,7.1-19.42s6.62-17.95,10.6-28.78l6.28-17q1.64-4.43,3.32-9c.57-1.52,1.13-3.05,1.7-4.59.29-.77.57-1.54.86-2.32a2.25,2.25,0,0,1,2-1.63,2.22,2.22,0,0,1,2.19,1.46,2.17,2.17,0,0,1,0,1.38l-.43,1.17q-.86,2.32-1.71,4.6c-1.12,3-2.24,6-3.33,9-2.18,5.89-4.29,11.57-6.3,17L661,310.63,653.77,330c-.86,2.26-1.53,4-2,5.25-.22.59-.4,1-.53,1.37s-.2.45-.2.45l.15-.47q.18-.49.48-1.38c.45-1.23,1.09-3,1.91-5.29,1.69-4.61,4.11-11.24,7.11-19.42l10.6-28.78c2-5.41,4.1-11.09,6.27-17l3.33-9,1.7-4.6L683,250a1.67,1.67,0,0,0,0-1.06,1.71,1.71,0,0,0-3.26.18c-.29.78-.57,1.55-.86,2.32l-1.7,4.59-3.33,9-6.31,17c-4,10.81-7.65,20.55-10.7,28.74l-7.26,19.36c-.86,2.26-1.53,4-2,5.25l-.53,1.37C646.91,337,646.83,337.17,646.83,337.17Z" style="fill:#263238"></path><path d="M637.91,336.9s.05-.17.16-.49.28-.81.5-1.42l2-5.46c1.73-4.75,4.24-11.58,7.33-20s6.82-18.51,10.93-29.68c2.06-5.58,4.23-11.44,6.47-17.52q1.69-4.56,3.43-9.26l1.75-4.74.89-2.4a2.22,2.22,0,0,1,4.27.36,2.4,2.4,0,0,1-.19,1.39l-.44,1.19c-.59,1.59-1.17,3.17-1.76,4.74l-3.43,9.26c-2.26,6.08-4.43,11.94-6.51,17.52l-11,29.64c-3.15,8.41-5.71,15.23-7.48,20-.89,2.33-1.58,4.15-2.06,5.42-.23.6-.42,1.06-.55,1.4a4.38,4.38,0,0,1-.2.47s0-.17.15-.49.29-.81.5-1.42l2-5.45,7.33-20,10.93-29.68c2.07-5.58,4.23-11.45,6.48-17.52q1.68-4.56,3.43-9.27l1.75-4.74.45-1.19a1.92,1.92,0,0,0,.16-1.11,1.7,1.7,0,0,0-3.27-.28l-.89,2.4-1.75,4.74q-1.76,4.7-3.44,9.26L659.25,280l-11,29.64-7.48,20c-.89,2.34-1.59,4.16-2.06,5.42l-.55,1.41C638,336.75,637.91,336.9,637.91,336.9Z" style="fill:#263238"></path><path d="M628.89,336.91s.05-.17.16-.5.3-.84.52-1.47l2-5.61,7.55-20.61c3.21-8.7,7-19.05,11.25-30.54,2.13-5.75,4.36-11.78,6.67-18l3.52-9.53,1.81-4.88.91-2.46a2.46,2.46,0,0,1,.78-1.21,2.19,2.19,0,0,1,1.39-.48,2.24,2.24,0,0,1,2.17,1.72,2.34,2.34,0,0,1-.15,1.44L667,246q-.91,2.44-1.81,4.88l-3.53,9.53c-2.32,6.25-4.56,12.28-6.7,18-4.27,11.48-8.12,21.82-11.36,30.51s-5.87,15.68-7.7,20.55c-.91,2.41-1.62,4.28-2.12,5.58-.24.62-.42,1.1-.56,1.45s-.21.48-.21.48.05-.17.16-.5.29-.84.52-1.47l2-5.61,7.55-20.61c3.2-8.7,7-19,11.25-30.54,2.13-5.75,4.36-11.78,6.67-18,1.16-3.12,2.33-6.31,3.53-9.53l1.8-4.88.46-1.23a1.83,1.83,0,0,0,.13-1.14,1.7,1.7,0,0,0-1.66-1.32,1.73,1.73,0,0,0-1.68,1.35c-.31.82-.61,1.64-.91,2.46l-1.81,4.88q-1.8,4.85-3.53,9.53c-2.33,6.25-4.56,12.28-6.7,18l-11.35,30.51-7.71,20.55L629.67,335c-.25.62-.43,1.1-.57,1.45S628.89,336.91,628.89,336.91Z" style="fill:#263238"></path><path d="M619.91,336.83a5.06,5.06,0,0,1,.16-.52c.13-.36.3-.86.53-1.51.49-1.34,1.19-3.29,2.09-5.79,1.85-5,4.51-12.29,7.79-21.24s7.23-19.64,11.6-31.49L649,257.69q1.78-4.83,3.64-9.83c.61-1.67,1.23-3.34,1.86-5,.31-.84.62-1.69.94-2.54a2.22,2.22,0,0,1,4.34.46,3.09,3.09,0,0,1-.31,1.42l-.47,1.27c-.62,1.68-1.25,3.36-1.86,5q-1.86,5-3.65,9.83l-6.9,18.58c-4.4,11.83-8.37,22.49-11.71,31.45s-6.05,16.17-7.94,21.19l-2.18,5.75-.58,1.49c-.13.34-.21.5-.21.5s.05-.18.16-.52.31-.86.53-1.51c.49-1.34,1.19-3.29,2.09-5.78,1.85-5,4.51-12.29,7.79-21.25s7.24-19.64,11.6-31.49L653,258.12c1.2-3.22,2.41-6.51,3.64-9.83l1.86-5,.47-1.27a2.52,2.52,0,0,0,.28-1.2,1.7,1.7,0,0,0-1.52-1.55c-1.89-.22-2,2.24-2.75,3.77l-1.87,5-3.64,9.83-6.9,18.57c-4.41,11.84-8.37,22.5-11.71,31.46s-6.05,16.16-7.94,21.19l-2.18,5.75-.58,1.49C620,336.66,619.91,336.83,619.91,336.83Z" style="fill:#263238"></path><path d="M690.26,248.8l-37.89-13.66A4,4,0,0,1,650,230h0a4,4,0,0,1,5.14-2.42L693,241.26a4,4,0,0,1,2.41,5.13h0A4,4,0,0,1,690.26,248.8Z" style="fill:#e0e0e0"></path><path d="M687.93,247.78c0,.13-8-2.61-17.76-6.13s-17.63-6.49-17.58-6.62,8,2.61,17.76,6.13S688,247.64,687.93,247.78Z" style="fill:#263238"></path></g><g id="freepik--Spotlight--inject-2"><rect x="686.42" y="217.07" width="3.98" height="63.81" style="fill:#e0e0e0"></rect><path d="M690.4,280.88a2.3,2.3,0,0,1,0-.34c0-.25,0-.57,0-1,0-.88,0-2.13,0-3.71,0-3.24-.05-7.88-.08-13.62,0-11.5-.07-27.41-.11-45.17l.26.26h-4c.52-.52.14-.13.26-.24V228c0,3.54,0,7,0,10.34,0,6.67,0,12.88,0,18.45-.06,11.08-.1,19.58-.13,24.12l-.08-.08,3,.05h.75l.26,0s-.07,0-.23,0l-.73,0-3,.05h-.09v-.09c0-4.54-.06-13-.12-24.12,0-5.57,0-11.78,0-18.45,0-3.34,0-6.8,0-10.34V217.09c.12-.12-.27.24.26-.28h4.24v.26c0,17.84-.08,33.81-.11,45.36,0,5.72-.06,10.33-.08,13.56,0,1.56,0,2.78,0,3.65,0,.39,0,.7,0,.93A1.64,1.64,0,0,1,690.4,280.88Z" style="fill:#263238"></path><rect x="655.7" y="215.71" width="61.43" height="2.72" transform="translate(-23.86 99.61) rotate(-8.16)" style="fill:#263238"></rect><rect x="684.65" y="284" width="7.12" height="132.87" style="fill:#455a64"></rect><rect x="683.32" y="351.03" width="9.78" height="6.01" style="fill:#263238"></rect><rect x="683.29" y="278.54" width="9.85" height="6.01" style="fill:#263238"></rect><polygon points="640.03 427.39 686.09 405.7 686.09 410.88 648.04 427.39 640.03 427.39" style="fill:#455a64"></polygon><path d="M634,427.39c0-.14,24.18-.26,54-.26s54,.12,54,.26-24.17.26-54,.26S634,427.53,634,427.39Z" style="fill:#263238"></path><polygon points="735.39 427.39 689.34 405.7 689.34 410.88 727.38 427.39 735.39 427.39" style="fill:#455a64"></polygon><polygon points="672.36 195.37 674.27 200.94 673.96 217.91 670.99 217.91 670.99 201.99 668.6 197.96 672.36 195.37" style="fill:#263238"></polygon><path d="M644.26,182.87c0,.45,6.57,22,6.57,22L671,200.2l-6.87-23Z" style="fill:#263238"></path><polygon points="646.79 183.92 651.87 201.99 667.4 198.41 661.67 179.91 646.79 183.92" style="fill:#e0e0e0"></polygon><polygon points="664.93 179.91 673.53 180.78 674.42 182.43 677.56 182.43 678.75 187.5 676.22 189.3 676.66 191.98 670.08 197.17 664.93 179.91" style="fill:#263238"></polygon><polygon points="655.2 203.82 657.1 206.22 657.62 221.55 660.38 220.96 659.48 202.84 655.2 203.82" style="fill:#263238"></polygon><polygon points="650.94 205.31 650.71 204.34 670.36 199.83 663.64 177.34 664.6 177.06 671.62 200.57 650.94 205.31" style="fill:#455a64"></polygon><polygon points="712.63 189.52 714.55 195.09 714.55 212.06 711.26 212.06 711.26 196.14 708.87 192.11 712.63 189.52" style="fill:#263238"></polygon><path d="M684.53,177c0,.45,6.57,22,6.57,22l20.16-4.63-6.87-23Z" style="fill:#263238"></path><polygon points="687.07 178.07 692.15 196.14 707.68 192.55 701.94 174.06 687.07 178.07" style="fill:#e0e0e0"></polygon><polygon points="705.2 174.06 713.8 174.93 714.7 176.57 717.83 176.57 719.03 181.65 716.49 183.44 716.94 186.13 710.36 191.32 705.2 174.06" style="fill:#263238"></polygon><polygon points="695.48 197.97 697.37 200.37 697.9 215.7 700.66 215.1 699.75 196.99 695.48 197.97" style="fill:#263238"></polygon><polygon points="691.21 199.46 690.99 198.49 710.63 193.98 703.91 171.49 704.87 171.2 711.89 194.71 691.21 199.46" style="fill:#455a64"></polygon></g><g id="freepik--Vase--inject-2"><path d="M360.71,425l-14.23-17.38s-5.18,4.1-5.52,4.52c0,0-6.77-6.58-14.5-.23-8.72,7.17-10.93,24.68-10.93,24.68l41-.12a17,17,0,0,0-1.29-7Z" style="fill:#CFAE3D"></path><path d="M355.32,429.69a24.57,24.57,0,0,1-2.12-2.52L348.15,421l-5.08-6.11a22.17,22.17,0,0,1-2-2.61,19.64,19.64,0,0,1,2.3,2.37c1.36,1.51,3.21,3.63,5.2,6s3.73,4.59,4.94,6.23A18.25,18.25,0,0,1,355.32,429.69Z" style="fill:#263238"></path><path d="M349.08,436.58a2.29,2.29,0,0,1-.19-.58c-.11-.45-.25-1-.42-1.67l.1.09c-2.19-.09-5.88-.29-10.42-.56h-.21v-.21c-.15-2.77-.32-5.86-.5-9.13l.23.24-.31,0-11.73-1.47-.19,0V423c0-3.07.07-5.64.09-7.55,0-.85.05-1.55.06-2.11a3.19,3.19,0,0,1,.07-.75,3.19,3.19,0,0,1,.07.75c0,.56,0,1.26.06,2.11,0,1.91.05,4.48.09,7.55l-.19-.22,11.73,1.4.31,0,.22,0v.22c.16,3.27.32,6.37.45,9.13l-.22-.22c4.54.32,8.22.61,10.41.8h.09v.08c.13.68.23,1.24.32,1.7A2.65,2.65,0,0,1,349.08,436.58Z" style="fill:#263238"></path><path d="M346.82,436.58a1.42,1.42,0,0,1-.14-.41l.05,0c-1.16,0-5.06-.19-10.43-.51h-.2v-.2c-.15-2.71-.32-5.82-.51-9.13l.23.24-1.25-.15-10.79-1.36-.2,0v-.2c0-3.06.07-5.63.1-7.55,0-.84,0-1.55.06-2.11a2.51,2.51,0,0,1,.07-.74,3,3,0,0,1,.07.74c0,.56,0,1.27.06,2.11,0,1.92.05,4.49.09,7.55l-.19-.22,10.79,1.28,1.25.16.22,0v.22l.44,9.14-.21-.22c5.36.39,9.26.71,10.4.86h0v0C346.83,436.44,346.84,436.57,346.82,436.58Z" style="fill:#fff"></path><path d="M357.7,427.45c-.11.1-3.47-3.67-7.49-8.4s-7.2-8.66-7.09-8.75,3.46,3.67,7.49,8.41S357.81,427.36,357.7,427.45Z" style="fill:#fff"></path><path d="M364.53,436.63c0,.15-12.86.27-28.72.27s-28.73-.12-28.73-.27,12.86-.26,28.73-.26S364.53,436.49,364.53,436.63Z" style="fill:#263238"></path><polygon points="359.26 441.34 359.2 443.24 356.68 446.01 304.74 446.04 304.74 444.06 355.63 443.26 359.26 441.34" style="fill:#e0e0e0"></polygon><path d="M359.26,441.34a1.63,1.63,0,0,1-.25.15l-.69.39-2.65,1.46h0c-8.1.22-27.71.6-50.88,1l.25-.26v2l-.26-.26h.3c22.91,0,42.68,0,51.64.12l-.09,0c1.1-1.18,1.94-2.08,2.57-2.74l0,0c0-.62.06-1.08.08-1.42s0-.47,0-.48a2.64,2.64,0,0,1,0,.44v1.48l0,0-2.49,2.81,0,0h-.05c-9,.09-28.73.17-51.64.18h-.56v-2.49h.26c23.17-.36,42.78-.6,50.89-.64h-.05l2.77-1.39.69-.34Z" style="fill:#263238"></path><polygon points="355.88 444.01 304.74 444.06 307.96 441.57 359.26 441.34 355.88 444.01" style="fill:#fff"></polygon><path d="M356.57,446.08c-.14,0-.26-.47-.26-1s.12-1,.26-1,.26.47.26,1S356.72,446.08,356.57,446.08Z" style="fill:#263238"></path><polygon points="309.51 444.06 312.46 441.55 307.96 441.57 304.74 444.06 309.51 444.06" style="fill:#263238"></polygon><polygon points="319.16 444.06 322.01 441.55 317.1 441.57 314.39 444.06 319.16 444.06" style="fill:#263238"></polygon><polygon points="328.15 443.95 330.59 441.45 326.09 441.47 323.38 443.96 328.15 443.95" style="fill:#263238"></polygon><polygon points="337.78 443.95 340.22 441.45 335.72 441.47 333.02 443.96 337.78 443.95" style="fill:#263238"></polygon><polygon points="347.32 443.95 349.76 441.45 345.26 441.47 342.55 443.96 347.32 443.95" style="fill:#263238"></polygon><polygon points="356.5 444.01 359.26 441.34 354.25 441.36 351.78 444.01 356.5 444.01" style="fill:#263238"></polygon><path d="M356.5,444a1,1,0,0,1,.17-.19l.51-.53,2-2,.06.17c-7.86.13-27.86.29-51.3.39l.16-.05-.27.2-3,2.29-.16-.47,36.69.05,11,.07,3,0,.79,0a.85.85,0,0,1,.27,0,.67.67,0,0,1-.25,0l-.77,0-3,.05-11,.09-36.78.12H304l.6-.46,2.95-2.29.27-.2.07-.06H308c23.45-.1,43.45-.12,51.31-.06h.24l-.17.16-2.11,2-.53.48Z" style="fill:#263238"></path></g><g id="freepik--Cord--inject-2"><polygon points="140.94 469.87 139.62 440.87 136.26 435.61 146.28 435.61 143.48 440.87 143.43 469.87 140.94 469.87" style="fill:#263238"></polygon><polygon points="171.49 397.95 170.45 374.91 167.78 370.74 175.74 370.74 173.51 374.91 173.47 397.95 171.49 397.95" style="fill:#263238"></polygon><polygon points="492.75 397.95 491.71 374.91 489.04 370.74 497 370.74 494.77 374.91 494.73 397.95 492.75 397.95" style="fill:#263238"></polygon><polygon points="512.75 469.87 511.43 440.87 508.07 435.61 518.09 435.61 515.29 440.87 515.24 469.87 512.75 469.87" style="fill:#263238"></polygon><path d="M171.7,379.12l1.57,0,4.63,0,18-.08,67.08-.26L493,378h.19l.05.18c6.77,24.26,13.8,49.48,21,75.36l.1.33H486.3l-346.36-.1h-.23l.09-.21c10.09-23.56,18-42.18,23.5-54.91,2.73-6.34,4.83-11.22,6.24-14.52l1.61-3.72c.36-.84.55-1.25.55-1.25s-.17.44-.53,1.28-.88,2.11-1.58,3.76c-1.4,3.31-3.48,8.2-6.18,14.58-5.41,12.72-13.32,31.34-23.33,54.9l-.14-.21,346.36-.11H514l-.25.33c-7.21-25.88-14.24-51.1-21-75.36l.25.18L263.07,379l-67.13.11-18,0H171.7Z" style="fill:#263238"></path></g><g id="freepik--character-3--inject-2"><path d="M622.9,424.11,624.27,442l-3,14.44a1.84,1.84,0,0,0,1.55,2.19h0a1.8,1.8,0,0,0,1.58-.56c2.59-2.76,11.8-13.1,11.81-14.06,0-1.52-.11-19.16-.11-19.16Z" style="fill:#455a64"></path><path d="M622.83,458.6l13.41-16.05,0,.76a2.84,2.84,0,0,1-.56,1.82c-1.06,1.4-4.08,5.19-11.25,12.91a1.84,1.84,0,0,1-1.64.56Z" style="fill:#263238"></path><g style="opacity:0.6000000000000001"><path d="M632.26,437a1.11,1.11,0,0,0-.23,1.46,1.07,1.07,0,0,0,1.45.24,1.17,1.17,0,0,0,.23-1.56,1.1,1.1,0,0,0-1.53-.07" style="fill:#fff"></path></g><path d="M626.5,450.57a4,4,0,0,0-3.73-1.59c0-.05.2-.2.62-.28a2.86,2.86,0,0,1,1.62.2,2.81,2.81,0,0,1,1.26,1C626.5,450.29,626.54,450.55,626.5,450.57Z" style="fill:#fff"></path><path d="M625.35,453a13.39,13.39,0,0,0-1.62-.68,14.08,14.08,0,0,0-1.76-.13,2,2,0,0,1,1.85-.26C624.89,452.22,625.44,453,625.35,453Z" style="fill:#fff"></path><path d="M628.7,447.37a18.09,18.09,0,0,0-2.43-1.23,19,19,0,0,0-2.69-.47,5,5,0,0,1,5.12,1.7Z" style="fill:#fff"></path><path d="M628.74,441.9c0,.11-1-.25-2.34-.22s-2.29.38-2.34.27a4.57,4.57,0,0,1,4.68-.05Z" style="fill:#fff"></path><path d="M628.47,436.65a8.89,8.89,0,0,0-2.43-.3,9,9,0,0,0-2.34.72s.15-.27.55-.53A3.92,3.92,0,0,1,626,436a4,4,0,0,1,1.83.26C628.27,436.41,628.5,436.61,628.47,436.65Z" style="fill:#fff"></path><path d="M626,435.35a1.55,1.55,0,0,1-.06-.68,4.68,4.68,0,0,1,.44-1.8,2.09,2.09,0,0,1,.84-1,.72.72,0,0,1,.84.12,1.17,1.17,0,0,1,.33.79,2.61,2.61,0,0,1-2.14,2.52,3,3,0,0,1-3-1.42,1,1,0,0,1-.1-.86.73.73,0,0,1,.74-.42,2.47,2.47,0,0,1,1.21.55,5.44,5.44,0,0,1,1.3,1.32,1.54,1.54,0,0,1,.3.6,8.37,8.37,0,0,0-1.76-1.69,2.34,2.34,0,0,0-1.06-.46.4.4,0,0,0-.41.23.73.73,0,0,0,.1.57,2.71,2.71,0,0,0,2.65,1.19,2.24,2.24,0,0,0,1.84-2.11.82.82,0,0,0-.2-.57.41.41,0,0,0-.46-.07,1.89,1.89,0,0,0-.73.87A7,7,0,0,0,626,435.35Z" style="fill:#fff"></path><path d="M591.51,422.65l.58,14.8s-14.85,5.56-15,8.31l28.74-.1,0-23.09Z" style="fill:#455a64"></path><path d="M601,436.18a1.17,1.17,0,0,1,.82,1.33,1.13,1.13,0,0,1-1.32.82,1.24,1.24,0,0,1-.86-1.42,1.18,1.18,0,0,1,1.47-.7" style="fill:#e0e0e0"></path><path d="M605.82,445.66l-.09-2.33-27.52,1s-1.27.56-1.13,1.46Z" style="fill:#263238"></path><path d="M591.62,437.31c0,.14.71.2,1.4.65s1.06,1,1.19,1-.08-.87-.93-1.4S591.59,437.18,591.62,437.31Z" style="fill:#fff"></path><path d="M588.61,438.56c0,.14.58.38,1.06,1s.62,1.22.76,1.21.22-.8-.39-1.52S588.62,438.43,588.61,438.56Z" style="fill:#fff"></path><path d="M586.91,442.18c.13,0,.32-.68,0-1.44s-1-1.07-1.08-1,.35.53.64,1.16S586.77,442.16,586.91,442.18Z" style="fill:#fff"></path><path d="M591.87,433.92c0,.13.7-.07,1.49,0s1.41.3,1.49.18-.53-.62-1.46-.66S591.8,433.81,591.87,433.92Z" style="fill:#fff"></path><path d="M581.79,301.23s-3.49,10.76-3.13,21.06c.13,4,8,112,8,112l19.93.84-.71-103.51,1.47.38s5.69,43.89,6.2,51.06c.45,6.44,7.2,55.48,7.2,55.48l18.47-.63L636.55,376l-3.65-59.38-1.58-17.31Z" style="fill:#263238"></path><path d="M609.18,321.16a3.13,3.13,0,0,1-.77.4,9.09,9.09,0,0,1-2.27.69,4.75,4.75,0,0,1-1.67-.06,3.41,3.41,0,0,1-1.71-.91,4.22,4.22,0,0,1-1-1.9c-.18-.71-.27-1.45-.39-2.2-.45-3-.73-5.74-.87-7.72-.08-1-.12-1.8-.13-2.36a3.39,3.39,0,0,1,0-.86,3.44,3.44,0,0,1,.13.85c.07.63.16,1.42.26,2.34.21,2,.53,4.7,1,7.7.23,1.48.36,3,1.24,3.9a3.79,3.79,0,0,0,3.09,1,10.85,10.85,0,0,0,2.26-.56A5.23,5.23,0,0,1,609.18,321.16Z" style="fill:#455a64"></path><path d="M604.33,306.92s.12-.09.38-.09a1.59,1.59,0,0,1,1,.37,1.8,1.8,0,0,1,.7,1.43,1.8,1.8,0,0,1-3.11,1,1.81,1.81,0,0,1-.27-1.57,1.56,1.56,0,0,1,.58-.88c.21-.15.36-.17.36-.15a2,2,0,0,0-.68,1.1,1.58,1.58,0,0,0,.29,1.28,1.47,1.47,0,0,0,2.48-.81,1.61,1.61,0,0,0-.53-1.21A2.06,2.06,0,0,0,604.33,306.92Z" style="fill:#455a64"></path><path d="M589,306.61a7.58,7.58,0,0,1-1,1.8,20.45,20.45,0,0,1-3.3,3.76,20.91,20.91,0,0,1-4.11,2.86,7.63,7.63,0,0,1-1.91.81,16.47,16.47,0,0,1,1.77-1,26.64,26.64,0,0,0,4-2.91,25.89,25.89,0,0,0,3.34-3.64A14.86,14.86,0,0,1,589,306.61Z" style="fill:#455a64"></path><path d="M624.58,326.47a4.9,4.9,0,0,0,1,1.33,13.52,13.52,0,0,0,3.1,2.52,13.33,13.33,0,0,0,3.7,1.5A5.32,5.32,0,0,0,634,332a21.65,21.65,0,0,1-5.16-2A20.86,20.86,0,0,1,624.58,326.47Z" style="fill:#455a64"></path><path d="M579.81,330.36a6.23,6.23,0,0,0,3.1-.78,6,6,0,0,0,2.51-2c-.08-.07-1.11.92-2.66,1.67S579.8,330.25,579.81,330.36Z" style="fill:#455a64"></path><path d="M639.09,434c.07-4.86-2-7.81-6.22-8.11a26,26,0,0,0,.78-6.19A8.7,8.7,0,0,0,631.5,414a5.3,5.3,0,0,0-5.7-1.41,3.85,3.85,0,0,0-1.95,5.18,8.34,8.34,0,0,0-5.71,1.75l2.61,19,18.47-.63Z" style="fill:#a3615a"></path><path d="M631.48,403.27l-.16-.07a2.17,2.17,0,0,0-1.92,2.16,2.06,2.06,0,0,0,4.12-.06A2.11,2.11,0,0,0,631.48,403.27Z" style="fill:#a3615a"></path><path d="M628,230.66h0l-14.67-4.45s-2.12,8.45-10.78,7.81c-6.45-.49-7.07-4.4-7.07-4.4s-8.27,1.63-8.7,1.69c-.81.1-5.34,1.55-5.34,1.55L581.08,252l-.14,29.1s-1.8,20.09-2.36,24.25l-1,9.7s23.28,4.15,33.4,0a192.88,192.88,0,0,1,22.38-7.25s-.07-4.19-.07-11.15c0-7.3,1.09-26.92,1.09-26.92h0l1.81-20.89C636.55,238.43,632.24,232.05,628,230.66Z" style="fill:#455a64"></path><path d="M636.06,249.56a9.36,9.36,0,0,1-.2,1.23c-.18.86-.41,2-.7,3.41-.64,3-1.54,7.09-2.58,11.91l-.11.49-.31-.4-6.92-8.69-5.43-6.87-.09-.11,0-.13c1-2.6,1.48-5.18,2.11-7.42s1.19-4.23,1.78-5.84a20.92,20.92,0,0,1,1.66-3.66,6.38,6.38,0,0,1,.6-.88,1.35,1.35,0,0,1,.24-.29s-.27.43-.7,1.25a26.09,26.09,0,0,0-1.51,3.68c-.54,1.61-1.09,3.59-1.66,5.85s-1.1,4.8-2.06,7.49l0-.25,5.45,6.85,6.89,8.73-.42.09c1.12-4.8,2.08-8.89,2.77-11.87l.83-3.38A6.56,6.56,0,0,1,636.06,249.56Z" style="fill:#263238"></path><path d="M633.19,302.9c-.09-2.41-1-3.35-3.24-4.19a6.29,6.29,0,0,0-6.63,1.59,7.57,7.57,0,1,0-13.9,5.92,7.64,7.64,0,0,0-5.26,4.27,6.16,6.16,0,0,0,.18,6l4.84-.68,24.21-8Z" style="fill:#a3615a"></path><path d="M624.14,287.6a2.23,2.23,0,0,0-2.49.59,2.37,2.37,0,1,0,2.49-.59Z" style="fill:#a3615a"></path><path d="M620.61,206.66a7.28,7.28,0,0,1,1.21,4.11c0,1.43-.82,4.37-3.36,4.6.82,4.07-1.69,7.19-6.05,7.36s-9.62-7.14-13.72-8.64l-11.85-2.68c-1-.2-1.51-1.44-1.53-2.5a8.22,8.22,0,0,0-.19-3.14c-.56-1.34.62-2.36,0-3.69-.67-1.51-.63-4.45,1.53-5.91,1.37-.93.41-1,.7-2.66a14,14,0,0,1,1.62-4.08,24,24,0,0,1,1.86-3.64c.51-.74,1.54-.69,2-1.44a3.86,3.86,0,0,1,3.75-1.57c1.54.12,2.51-.38,4.05-.32a23.09,23.09,0,0,1,5.62,1c2.25.59,4.37,1.35,5.89,3.21l2,2.15a8.19,8.19,0,0,0,1.29,1c.81.48-.86,1.15-.15,1.78,1.51,1.36,4.07,3.73,2.53,5a4,4,0,0,1,2.82,3.82s.28,1.93-.93,2.84A2.68,2.68,0,0,1,620.61,206.66Z" style="fill:#263238"></path><path d="M612.9,210.91a54.31,54.31,0,0,0,2-9.16,19,19,0,0,0-1.07-9.23c-.18-.44-1.7-3.37-2.17-3.31s.63,2.8.47,3.1a16,16,0,0,0-1.47,9.45,42,42,0,0,0,2.21,9.15" style="fill:#263238"></path><path d="M605.21,236.35c4.85-.28,8.13-10.14,8.13-10.14L612.67,199c0-7.85-4.62-14.38-12.47-14.13l-.72.06A14,14,0,0,0,586.69,199c.06,6.81.22,14.33.59,17.95.77,7.49,8.38,8,8.38,8s-.11,3.49,0,5.7c.23,5,7.62,6,9.56,5.71Z" style="fill:#ffbf9d"></path><path d="M595.66,224.94a18.37,18.37,0,0,0,9.61-3.77,10,10,0,0,1-9.65,6.3Z" style="fill:#ff9a6c"></path><path d="M589,205.37a1.06,1.06,0,0,0,1.13,1,1,1,0,0,0,1-1.06,1.08,1.08,0,0,0-1.13-1A1,1,0,0,0,589,205.37Z" style="fill:#263238"></path><path d="M588.68,202c.14.12.9-.55,2.06-.65s2,.4,2.16.25-.1-.31-.5-.55a3,3,0,0,0-1.74-.37,2.84,2.84,0,0,0-1.62.69C588.71,201.65,588.61,201.91,588.68,202Z" style="fill:#263238"></path><path d="M599.06,204.73a1.08,1.08,0,0,0,1.13,1,1,1,0,0,0,1-1.07,1.08,1.08,0,0,0-1.13-1A1,1,0,0,0,599.06,204.73Z" style="fill:#263238"></path><path d="M600,201.42c.14.13.9-.55,2.06-.65s2,.4,2.16.25-.1-.31-.5-.54a2.87,2.87,0,0,0-1.74-.37,2.83,2.83,0,0,0-1.63.68C600.05,201.1,600,201.36,600,201.42Z" style="fill:#263238"></path><path d="M596.68,210.65a8.47,8.47,0,0,0-1.91-.17c-.29,0-.58,0-.65-.23a1.59,1.59,0,0,1,.12-.89c.22-.74.44-1.51.67-2.32a39.73,39.73,0,0,0,1.43-6,38.8,38.8,0,0,0-1.91,5.91l-.63,2.33a1.72,1.72,0,0,0,0,1.17.78.78,0,0,0,.52.39,2.28,2.28,0,0,0,.51,0A7.19,7.19,0,0,0,596.68,210.65Z" style="fill:#263238"></path><path d="M600.14,211.15c-.19,0-.08,1.25-1.07,2.24s-2.33,1-2.33,1.14.32.22.89.18a3.15,3.15,0,0,0,2-.88,2.71,2.71,0,0,0,.81-1.87C600.4,211.43,600.23,211.13,600.14,211.15Z" style="fill:#263238"></path><path d="M599.81,198.06c.14.3,1.28.05,2.65.09s2.49.31,2.65,0c.07-.14-.15-.42-.62-.68a4.58,4.58,0,0,0-4-.08C600,197.64,599.75,197.91,599.81,198.06Z" style="fill:#263238"></path><path d="M588.43,198.83c.23.24,1-.1,2-.2s1.78,0,1.94-.28c.07-.14-.08-.39-.46-.6a2.66,2.66,0,0,0-1.62-.29,2.69,2.69,0,0,0-1.51.67C588.41,198.43,588.33,198.71,588.43,198.83Z" style="fill:#263238"></path><path d="M612.66,204.57c.12-.06,5-2,5.32,3.16s-4.93,4.38-5,4.23S612.66,204.57,612.66,204.57Z" style="fill:#ffbf9d"></path><path d="M614.49,209.92s.09.06.25.12a.92.92,0,0,0,.67,0,2.22,2.22,0,0,0,.91-2.05,3,3,0,0,0-.32-1.27,1,1,0,0,0-.72-.65.45.45,0,0,0-.51.28c-.06.14,0,.25,0,.26s-.12-.08-.09-.3a.57.57,0,0,1,.19-.33.64.64,0,0,1,.48-.16,1.27,1.27,0,0,1,1,.74,3.22,3.22,0,0,1,.39,1.42,2.33,2.33,0,0,1-1.18,2.3,1,1,0,0,1-.83-.09C614.51,210.05,614.47,209.94,614.49,209.92Z" style="fill:#ff9a6c"></path><path d="M589.33,190.69c-.86-.42,1.89-3.62,3.89-4.65,3-1.56,7.71-2.65,10.61-2,3.48.8,6.42,2.37,8.29,5.41a20.25,20.25,0,0,1,2.78,10.23,6.15,6.15,0,0,1-.57,3.18c-.66,1.18-2,2-1.87,3.53A2.15,2.15,0,0,1,612,208c-.89,1.05-2.09.17-2.67-.75-1.23-2-1.47-4.36-1.68-6.67a15.25,15.25,0,0,1,.08-4.91c.21-.87.58-1.7.74-2.58a2.63,2.63,0,0,0-.93-3,5.37,5.37,0,0,0-5.37-.75c-2.85,1.17-7.73,2.94-9.07,2a7.84,7.84,0,0,1-2.42-2.23Z" style="fill:#263238"></path><path d="M603.52,183.37a11.32,11.32,0,0,0-8.67.9,5.94,5.94,0,0,0-2.94,3.57,3.39,3.39,0,0,0,1.89,3.92l.1.06c2.23.63,3.65.26,5.8-.6,1.81-.73,3.39-1.95,5.21-2.67a10.46,10.46,0,0,1,6.11-.47A17,17,0,0,0,603.52,183.37Z" style="fill:#263238"></path><path d="M613.5,188.11s-.47-.44-1.33-1a7.85,7.85,0,0,0-1.59-.78,4.88,4.88,0,0,0-2.11-.27,6.91,6.91,0,0,0-3.54,1.61c-.77.66-1.12,1.2-1.17,1.17s0-.16.21-.41a5.12,5.12,0,0,1,.8-.94,6.56,6.56,0,0,1,3.66-1.77,4.84,4.84,0,0,1,2.25.31,7.45,7.45,0,0,1,1.63.88A3.79,3.79,0,0,1,613.5,188.11Z" style="fill:#455a64"></path><path d="M598.1,182.45c0,.05-.53.2-1.34.56a11.24,11.24,0,0,0-5.13,4.54c-.46.77-.67,1.29-.72,1.27a3.86,3.86,0,0,1,.5-1.38,9.88,9.88,0,0,1,2.2-2.82,9.76,9.76,0,0,1,3-1.84A3.87,3.87,0,0,1,598.1,182.45Z" style="fill:#455a64"></path><path d="M585.29,196.24l33.79.73s-4-15.79-16.43-15.59C592.64,181.55,587,183.78,585.29,196.24Z" style="fill:#455a64"></path><path d="M619.9,192.7a2.16,2.16,0,0,0-3,.19v2.61a2.07,2.07,0,1,0,3-2.8Z" style="fill:#455a64"></path><path d="M632.11,197.36a1.79,1.79,0,0,0-.86-1.06,16.7,16.7,0,0,0-5.68-2.89,6.51,6.51,0,0,0-6,1.39l-.78,0a8.16,8.16,0,0,0,12.44,3.94C631.71,198.44,632.2,197.94,632.11,197.36Z" style="fill:#455a64"></path><path d="M621.28,186.5a6.71,6.71,0,0,0-2.42,3.4,7.64,7.64,0,0,0,.25,4.15l1,.91a3.9,3.9,0,0,0,3.61-2,8.73,8.73,0,0,0,1-4.22,35.41,35.41,0,0,1,.19-4.37A20.57,20.57,0,0,0,621.28,186.5Z" style="fill:#455a64"></path><polygon points="576.39 407.57 570.5 406.92 588.24 240.91 594.12 241.56 576.39 407.57" style="fill:#a3615a"></polygon><path d="M576.41,407.6h0l-5.91-.65v0l17.74-166h0l5.91.65v0Zm-5.88-.7,5.83.64,17.74-166-5.84-.64Z" style="fill:#844440"></path><path d="M557.28,408.07l12.05,1.71.28-2.2,1.72-11.48,6.44.93-1.13,11.37-.1,2.32,9.93.81s-2.81,26.45-4,30.35c-2.1,6.93-12.6,10.29-19.11,7.77s-9-8.19-8.82-17.64S557.28,408.07,557.28,408.07Z" style="fill:#e0e0e0"></path><path d="M576.31,412a2.93,2.93,0,0,1,0,.68c0,.5-.1,1.14-.17,1.94-.18,1.74-.43,4.16-.73,7.12-.17,1.5-.34,3.14-.53,4.91-.1.88-.2,1.79-.31,2.73a20.46,20.46,0,0,1-.43,2.91,5.31,5.31,0,0,1-1.56,2.76,3.14,3.14,0,0,1-3.23.68,4.07,4.07,0,0,1-2.23-2.6,9.51,9.51,0,0,1-.26-3.48c.34-4.61.92-9,1.4-12.93s1-7.51,1.37-10.52.76-5.35,1-7.08c.13-.79.23-1.43.31-1.92a2.93,2.93,0,0,1,.14-.67,4.86,4.86,0,0,1,0,.68c0,.5-.12,1.14-.21,1.94-.2,1.73-.49,4.15-.83,7.1s-.79,6.58-1.27,10.53-1,8.33-1.35,12.9a9.19,9.19,0,0,0,.23,3.29,3.55,3.55,0,0,0,1.93,2.28,2.6,2.6,0,0,0,2.71-.58,4.77,4.77,0,0,0,1.42-2.5,21.49,21.49,0,0,0,.45-2.84q.17-1.41.33-2.73c.21-1.76.41-3.4.59-4.91.37-2.95.68-5.36.9-7.09.11-.8.2-1.44.27-1.93A3.43,3.43,0,0,1,576.31,412Z" style="fill:#263238"></path><path d="M567.05,431.94s0-.18,0,0Z"></path><g style="opacity:0.30000000000000004"><path d="M576.54,410.57,575,422s-1.18,9.58-1.81,11.16-2,3-3.33,2.43c-1.49.07-2.29-1.68-2.85-3.8a8.38,8.38,0,0,0,.59,4.2,3.22,3.22,0,0,0,3,1.75,4.82,4.82,0,0,0,4.18-2.44,12.09,12.09,0,0,0,1.21-4.76c.78-6.74,1.68-13.07,2.45-19.81Z"></path></g><path d="M560.53,268s-.26-3.15,2.25-8.69a51.76,51.76,0,0,1,8-12.45c2.73-3.28,10.37-10.71,10.37-10.71l7.09,4.26-2,4.23-5.23,13.66s-.93,11-7.12,13.7S560.63,273.09,560.53,268Z" style="fill:#ffbf9d"></path><path d="M603.73,230.66l3.95,4.49c1.07,1.23,12.32,15.34,12.32,15.34l12.35,15.56-1.92,3.33s-5.83,9.76-11.38,5.78-8.49-12.85-11.23-18.82l-9.45-20.57Z" style="fill:#ffbf9d"></path><path d="M587.87,240.65l3.61.4s.61,6.9,3.48,7.19l.44,2.36s1.6,1.71,2.53-.3c0,0,1.16,1.12,2-.88,0,0,1.76,1.53,2.65-1.24,0,0,1.53-.25,1.54-1.24s.22-3.95.22-3.95l-5-7.84-8.08-.35-2.1.47-.63,1.53Z" style="fill:#ffbf9d"></path><path d="M599.31,235.15l-8.08-.35-2.1.47-.19,1.63-.43,3.24-1.16.93L587,242s-2.21.12-2.43-2.84c0,0-1.11,1.42-2.22,1.07l-.55-3.67s-.77.71-1.66-.47l1.55-3.91,7-4.37,9.63.94,5.42,1.9L620,250.49" style="fill:#ffbf9d"></path><path d="M620,250.49a2,2,0,0,1-.34-.35l-.92-1.06c-.82-1-2-2.34-3.4-4l-11.79-14.23.1.07L598.23,229h0l-9.62-.93.16,0-.59.37-6.38,4,.1-.12-1.56,3.9,0-.24a1.59,1.59,0,0,0,.63.54.72.72,0,0,0,.67-.1l.34-.28.06.42c.19,1.26.37,2.48.55,3.67l-.16-.19c.7.22,1.47-.4,2-1l.37-.43,0,.56a3.34,3.34,0,0,0,.62,1.86,2.05,2.05,0,0,0,1.57.78l-.19.14.34-.94,0-.06,0,0,1.17-.92-.08.13c.25-1.78.48-3.39.65-4.86v-.12l.12,0,2.1-.45h0l6,.34,1.57.11a4.06,4.06,0,0,1,.55.06,2.33,2.33,0,0,1-.55,0l-1.58,0-6-.19h0l-2.1.49.13-.15c-.14,1.48-.35,3.09-.58,4.87v.08l-.06,0-1.16.94.07-.09c-.11.3-.21.61-.33.94l-.05.14H587a2.45,2.45,0,0,1-1.94-.93,3.94,3.94,0,0,1-.73-2.1l.41.12a4,4,0,0,1-1,.91,1.8,1.8,0,0,1-1.45.24l-.14,0,0-.15c-.18-1.19-.37-2.41-.56-3.66l.41.14a1.16,1.16,0,0,1-1.17.2,2.07,2.07,0,0,1-.86-.7l-.08-.11,0-.13c.5-1.28,1-2.58,1.54-3.91l0-.08.07,0,6.38-4,.59-.37.08,0h.09l9.62.95h.06l5.42,1.9.07,0,0,.05,11.65,14.36c1.39,1.73,2.5,3.12,3.29,4.12l.86,1.11A1.77,1.77,0,0,1,620,250.49Z" style="fill:#ff9a6c"></path><polyline points="603.91 247.49 604.33 242.99 599.31 235.15" style="fill:#ffbf9d"></polyline><path d="M599.31,235.15a46.41,46.41,0,0,1,4,5.68c.44.71.87,1.39,1.28,2l0,.08V243a25.58,25.58,0,0,1-.66,4.47,25.69,25.69,0,0,1,.18-4.52l0,.16c-.41-.64-.85-1.31-1.3-2A44.36,44.36,0,0,1,599.31,235.15Z" style="fill:#ff9a6c"></path><path d="M586.79,230s-.31.47-1,.93a14.69,14.69,0,0,0-2.67,1.78,4.35,4.35,0,0,0-1,2.86,4.35,4.35,0,0,1-.14,1.36,3.16,3.16,0,0,1-.23-1.36,5.69,5.69,0,0,1,.12-1.53,3.52,3.52,0,0,1,.91-1.69,10.19,10.19,0,0,1,2.86-1.74C586.32,230.26,586.73,230,586.79,230Z" style="fill:#ff9a6c"></path><path d="M587.53,231.12c0,.07-.46.31-1.11.86a6,6,0,0,0-2.08,6,12,12,0,0,1,.33,1.38s-.42-.41-.69-1.29a5.68,5.68,0,0,1,2.21-6.33C587,231.18,587.51,231.06,587.53,231.12Z" style="fill:#ff9a6c"></path><path d="M588.38,232.86c0,.07-.47.26-.94.89a4.38,4.38,0,0,0-.7,2.93c.1,1.22.39,2.34.44,3.19a2.62,2.62,0,0,1-.08,1.36,6.06,6.06,0,0,1-.28-1.31,26.4,26.4,0,0,1-.6-3.21,4.18,4.18,0,0,1,.94-3.19C587.78,232.86,588.37,232.8,588.38,232.86Z" style="fill:#ff9a6c"></path><path d="M596.28,242.39a11.73,11.73,0,0,1,1.23,4,12.45,12.45,0,0,1,.3,4.14,28,28,0,0,1-.82-4A28.68,28.68,0,0,1,596.28,242.39Z" style="fill:#ff9a6c"></path><path d="M598.8,242.74a12.24,12.24,0,0,1,1.06,6.82,20.86,20.86,0,0,1-.55-3.41A21.1,21.1,0,0,1,598.8,242.74Z" style="fill:#ff9a6c"></path><path d="M600.93,241.52a23.74,23.74,0,0,1,1.72,6.77,23.74,23.74,0,0,1-1.72-6.77Z" style="fill:#ff9a6c"></path><polygon points="532.71 455.88 554.35 435.83 588.6 438.19 611.46 455.78 532.71 455.88" style="fill:#a3615a"></polygon><path d="M618.07,456.1c0,.15-20.5.26-45.78.26s-45.78-.11-45.78-.26,20.49-.26,45.78-.26S618.07,456,618.07,456.1Z" style="fill:#263238"></path></g><g id="freepik--character-2--inject-2"><path d="M395,404.38c-.22,0-20.32,13.65-20.32,13.65l-5-6,12.67-14,7.13,2.84Z" style="fill:#a3615a"></path><path d="M383.31,350.75s.4,3.7.66,7.11,4.34,18.67,4.34,18.67L386.73,387l-2,.52-4.3,10.76,15.79,6.84,4.72-8.87v-2.31l2-2.23,1.79-5.92,1.79-14.12-15.65-13.76Z" style="fill:#455a64"></path><path d="M400.93,396.2a7.85,7.85,0,0,1-2.31-1.56c-1.34-1.09-3-2.77-5.16-4.23a24,24,0,0,0-3.23-1.7,12,12,0,0,0-2.77-1c-1.65-.29-2.74-.1-2.74-.21a2.08,2.08,0,0,1,.74-.16,7.82,7.82,0,0,1,2.06,0,10.3,10.3,0,0,1,2.91,1,20.52,20.52,0,0,1,3.32,1.7,43.22,43.22,0,0,1,5.11,4.38C400.1,395.54,401,396.13,400.93,396.2Z" style="fill:#263238"></path><path d="M375.85,414.92a6.42,6.42,0,0,1,0,5.75,18.69,18.69,0,0,1-4.28,5.64c-.65.78-4.25,4.35-5.6,4.36s-2.73-.72-1.32-3.11,3.88-4,4.47-6.41.78-4.32,1-4.89S375.85,414.92,375.85,414.92Z" style="fill:#a3615a"></path><path d="M372,409.93c-.42.31-10.42,9.56-10.42,9.56l-1.82,12.65s-.71,1.69,1.12,1,3.1-5.18,3.1-5.18l10.37-12.16,3.74-1.79Z" style="fill:#a3615a"></path><path d="M374.2,423.5a4.53,4.53,0,0,1-.65.8c-.43.49-1,1.22-1.79,2.13a21,21,0,0,1-2.9,3,7.83,7.83,0,0,1-2.14,1.32,2.26,2.26,0,0,1-2.67-.64,1.79,1.79,0,0,1-.2-1.5,4.83,4.83,0,0,1,.59-1.23,14.73,14.73,0,0,1,1.52-2,13.21,13.21,0,0,0,2.39-3.28,4.86,4.86,0,0,0,.47-2.63c-.09-.63-.27-1-.23-1a1.85,1.85,0,0,1,.43,1,4.77,4.77,0,0,1-.33,2.81,12.66,12.66,0,0,1-2.37,3.44,16.64,16.64,0,0,0-1.45,1.92c-.43.67-.81,1.54-.39,2.16a1.44,1.44,0,0,0,.94.57,2.09,2.09,0,0,0,1.13-.11,8.4,8.4,0,0,0,2-1.21,24.06,24.06,0,0,0,2.91-2.87c.79-.88,1.44-1.58,1.92-2A3.59,3.59,0,0,1,374.2,423.5Z" style="fill:#844440"></path><path d="M368.94,420.73a7.19,7.19,0,0,1-1.54,1.17l-1.75,1.15a2.45,2.45,0,0,0-.86.72,1.9,1.9,0,0,0-.31,1.13,16.62,16.62,0,0,1-.78,4.63,4.11,4.11,0,0,1-.91,1.73c-.07,0,.26-.7.56-1.83a22.8,22.8,0,0,0,.61-4.56,2.49,2.49,0,0,1,.4-1.39,3.13,3.13,0,0,1,1-.84l1.81-1.05A7.15,7.15,0,0,1,368.94,420.73Z" style="fill:#844440"></path><path d="M359.86,431.19a22.12,22.12,0,0,1,.59-5.87c.6-3.19,1-5.78,1.11-5.78a22.41,22.41,0,0,1-.6,5.87C360.37,428.61,360,431.2,359.86,431.19Z" style="fill:#844440"></path><path d="M455.38,337.73l-33.94-16.05-14.24-1.11a15.79,15.79,0,0,0-4.94.39h0a15.92,15.92,0,0,0-5.57,2.54L393.25,326l-5.33-.52-3,20.44,2.28,4.09-4.31-3.63-.89,5.2,1.59,1.69,3,2.3c.4.27,21,19.23,21,19.23L428,382.19l8.82-19.87,23.79-2.49,10-8.95Z" style="fill:#455a64"></path><path d="M386.52,355.54a4.46,4.46,0,0,1,.83.68l2.11,2c1.78,1.67,4.24,4,7,6.47s5.28,4.73,7.11,6.34l2.17,1.92a4.36,4.36,0,0,1,.75.76,3.88,3.88,0,0,1-.88-.6c-.55-.41-1.33-1-2.27-1.79-1.9-1.55-4.47-3.74-7.23-6.24s-5.19-4.86-6.9-6.6c-.86-.87-1.54-1.58-2-2.09A4.26,4.26,0,0,1,386.52,355.54Z" style="fill:#263238"></path><path d="M406.77,367.18s-.16-.07-.43-.28-.66-.51-1.15-.92c-1-.81-2.41-2-4.16-3.53-3.5-3-8.36-7.27-13.81-12.09l0,0,0,0c-.6-1-1.24-2.11-1.89-3.21-.2-.36-.41-.71-.61-1.06l-.27-.46.52.07,7.67,1-.28.24c.24-5.93.44-11.05.59-14.76.09-1.77.16-3.2.21-4.26,0-.46.06-.83.08-1.14s0-.39.06-.39a1.93,1.93,0,0,1,0,.39v1.14l-.07,4.27c-.1,3.71-.24,8.83-.4,14.76v.27l-.27,0-7.67-.93.25-.39c.21.35.42.7.62,1.05l1.89,3.22-.06-.06,13.7,12.22,4.05,3.65,1.09,1A2.52,2.52,0,0,1,406.77,367.18Z" style="fill:#263238"></path><path d="M386,350.7a12.6,12.6,0,0,1-3.24-.4l.26-.36a10.88,10.88,0,0,1,.71,1.45,11.5,11.5,0,0,1,.61,2.16l.17,1-.59-.81a13.12,13.12,0,0,0-1.83-1.82,3.73,3.73,0,0,1,2.2,1.54l-.41.19a13.55,13.55,0,0,0-.64-2.05,12.38,12.38,0,0,0-.65-1.41l-.25-.47.52.11A13.22,13.22,0,0,1,386,350.7Z" style="fill:#263238"></path><path d="M461.39,349.15c0,.08-1.32.43-3.43,1.1a78,78,0,0,0-8.08,3.09,75,75,0,0,0-7.67,4,33.57,33.57,0,0,1-3.1,1.83,3.45,3.45,0,0,1,.74-.63c.49-.38,1.23-.9,2.16-1.51a57.51,57.51,0,0,1,7.65-4.18,58.42,58.42,0,0,1,8.2-3c1.07-.29,1.95-.5,2.56-.62A3.19,3.19,0,0,1,461.39,349.15Z" style="fill:#263238"></path><path d="M454.51,344.29c0,.08-1,.61-2.65,1.62a37.21,37.21,0,0,0-5.88,4.58,37.6,37.6,0,0,0-4.81,5.7c-1.08,1.58-1.65,2.62-1.73,2.58a2.81,2.81,0,0,1,.31-.78,22.55,22.55,0,0,1,1.11-2,30.57,30.57,0,0,1,10.81-10.39,22.89,22.89,0,0,1,2.05-1A2.88,2.88,0,0,1,454.51,344.29Z" style="fill:#263238"></path><path d="M387.8,326.29l-15.56-13.57c-6.24-5.65-14.51-7.11-20-.71l-.47.62a15,15,0,0,0,1.94,20.31c5.45,4.87,11.52,10.18,14.66,12.51,6.5,4.8,12.38-.87,12.38-.87.2.14,4.59,3.83,6.41,5.4l-2.28-4.09Z" style="fill:#a3615a"></path><path d="M380.75,344.59a19.5,19.5,0,0,0,3.89-10.26s3.14,5.61-2.31,11.6Z" style="fill:#91514c"></path><path d="M365.15,325.45c.2,0,.34-1.12,1.18-2.18s1.88-1.51,1.87-1.7-.29-.11-.75.08a4.06,4.06,0,0,0-1.63,1.26,3.91,3.91,0,0,0-.81,1.84C365,325.22,365.06,325.48,365.15,325.45Z" style="fill:#263238"></path><path d="M367.24,327.11a1.09,1.09,0,0,0,1.52-.17,1,1,0,0,0-.11-1.49,1.08,1.08,0,0,0-1.51.17A1,1,0,0,0,367.24,327.11Z" style="fill:#263238"></path><path d="M370,333.7a7.5,7.5,0,0,0-1.51,1.38c-.22.24-.45.44-.66.35s-.42-.39-.62-.74c-.43-.7-.88-1.43-1.35-2.21a41.89,41.89,0,0,0-3.76-5.49,40.38,40.38,0,0,0,3.3,5.78l1.4,2.19a1.81,1.81,0,0,0,.89.88.76.76,0,0,0,.68-.13,2.38,2.38,0,0,0,.39-.39A8.87,8.87,0,0,0,370,333.7Z" style="fill:#263238"></path><path d="M361.73,321.17c.31.1.86-.85,1.76-1.78s1.82-1.54,1.71-1.84c-.06-.14-.4-.17-.89,0a4,4,0,0,0-1.65,1.07,3.93,3.93,0,0,0-1,1.69C361.54,320.79,361.59,321.12,361.73,321.17Z" style="fill:#263238"></path><path d="M355.14,332.44c.28.05.77-.91,1.58-1.9s1.64-1.67,1.54-1.94-.36-.11-.8.1a4.29,4.29,0,0,0-1.48,1.21,4.47,4.47,0,0,0-.89,1.71C355,332.1,355,332.41,355.14,332.44Z" style="fill:#263238"></path><path d="M376.69,316.94c0-.15,2.3-5.62,6.71-1.85s-.29,7.42-.42,7.32Z" style="fill:#a3615a"></path><path d="M382.46,319.63s.12,0,.29-.11a1,1,0,0,0,.5-.56,2.48,2.48,0,0,0-.95-2.34,3.26,3.26,0,0,0-1.28-.73,1.18,1.18,0,0,0-1.09.08.51.51,0,0,0-.17.63c.07.16.18.21.17.24s-.16,0-.31-.16a.67.67,0,0,1-.13-.41.79.79,0,0,1,.26-.52,1.42,1.42,0,0,1,1.37-.22,3.53,3.53,0,0,1,1.45.79,2.62,2.62,0,0,1,.95,2.75,1.07,1.07,0,0,1-.72.6C382.58,319.71,382.46,319.65,382.46,319.63Z" style="fill:#91514c"></path><path d="M358.16,335c.2,0,.36-1.12,1.21-2.17s1.9-1.49,1.88-1.68-.28-.12-.75.07a4.14,4.14,0,0,0-1.64,1.24,4,4,0,0,0-.83,1.83C358,334.72,358.07,335,358.16,335Z" style="fill:#263238"></path><path d="M359.89,335.68a1.09,1.09,0,0,0,1.52-.17,1,1,0,0,0-.11-1.49,1.08,1.08,0,0,0-1.51.17A1,1,0,0,0,359.89,335.68Z" style="fill:#263238"></path><path d="M341.09,336.35a1.29,1.29,0,0,1-.16-1,4,4,0,0,1,1.11-1.77,11.67,11.67,0,0,0,2.38-4.61,6,6,0,0,1-1.76.42,3.47,3.47,0,0,1-3.24-1.52.83.83,0,0,1-.11-.68c.16-.34.63-.34,1-.34a3,3,0,0,0,2.74-1.32,4.83,4.83,0,0,0,.92-2s0-.07,0-.1c0-.41-.06-.81-.08-1.19h0a18.08,18.08,0,0,1,.59-7.06,18.72,18.72,0,0,1,6-8c2.4-1.62,5.77-2,8.18-.4a5.83,5.83,0,0,1,3.46-4.75v0c2-1.09,4.47-.51,6.52.45l.33.17a8.62,8.62,0,0,0,4-.3.74.74,0,0,1,.68,0,.68.68,0,0,1,.19.65,4.49,4.49,0,0,1-.6,1.77,10.4,10.4,0,0,0,1.59.46c.46.08,1,.19,1.19.63a.9.9,0,0,1-.31,1,2.68,2.68,0,0,1-1,.44l1.75.6a5.07,5.07,0,0,1-1.65,1.64,55.71,55.71,0,0,1,3.52,5.08c-.59.67-1.3,1.16-1.3,1.9,0,1,.74,2.09-.44,2.7-.6.32-2-.13-2.6-.39A31.6,31.6,0,0,1,363.13,311a10,10,0,0,0-3.75.86l.13,0c-2.07,1.17-4.33,2.57-4.95,4.87-.48,1.79.17,3.65.38,5.49a12,12,0,0,1-2.64,9.27c1.61,1.84,4.1,3.68,5.72,5.27l-4.13-.85v0a7.92,7.92,0,0,1-.87-.23l-.09,0h0a14.09,14.09,0,0,0-1.39-.38v0a1.41,1.41,0,0,1-2.78.3,3.16,3.16,0,0,1-.07-1,2.24,2.24,0,0,1-1,2,1.76,1.76,0,0,1-2.13-.22,1.47,1.47,0,0,1-.31-1.46,5,5,0,0,1-2.38,1.74A1.46,1.46,0,0,1,341.09,336.35Z" style="fill:#263238"></path><path d="M357.68,309.35a7.9,7.9,0,0,1,1.09-.11,5.63,5.63,0,0,1,2.82.84,10,10,0,0,1,1.68,1.19c.56.49,1.11,1.06,1.7,1.66a22.59,22.59,0,0,0,1.94,1.79,9.52,9.52,0,0,0,1.17.78,2.85,2.85,0,0,0,1.39.47,1.23,1.23,0,0,0,1-.6,1.8,1.8,0,0,0,.24-1.15,4.13,4.13,0,0,0-1-1.93l-.1.14a7.27,7.27,0,0,0,1.91.38,2.4,2.4,0,0,0,1.68-.62,1.57,1.57,0,0,0,.44-.71,1.44,1.44,0,0,0,0-.8,1.38,1.38,0,0,0-.43-.6,1.1,1.1,0,0,0-.64-.22V310a5.27,5.27,0,0,0,2.12-.44,3.66,3.66,0,0,0,.51-.27c.11-.07.17-.1.16-.11l-.17.09c-.12.05-.29.14-.52.23a5.38,5.38,0,0,1-2.1.38V310a1,1,0,0,1,.93.75,1.22,1.22,0,0,1,0,.71,1.31,1.31,0,0,1-.41.64,2.24,2.24,0,0,1-1.57.56,6.8,6.8,0,0,1-1.86-.39l-.27-.08.18.23a4.07,4.07,0,0,1,1,1.84,1.62,1.62,0,0,1-.22,1,1,1,0,0,1-.88.51,2.69,2.69,0,0,1-1.3-.44,8.42,8.42,0,0,1-1.14-.77,19.43,19.43,0,0,1-1.93-1.76c-.6-.6-1.16-1.16-1.73-1.65a9.72,9.72,0,0,0-1.71-1.2,5.78,5.78,0,0,0-2.89-.8A3.35,3.35,0,0,0,357.68,309.35Z" style="fill:#455a64"></path><path d="M347.09,333.23h.08l.25-.06a2,2,0,0,0,.39-.11,4.49,4.49,0,0,0,.52-.2,7.13,7.13,0,0,0,2.74-2.17,9.19,9.19,0,0,0,1.87-4.84,15.91,15.91,0,0,0-.85-6.31c-.35-1.09-.78-2.11-1.13-3.11a10.44,10.44,0,0,1-.65-3,5.43,5.43,0,0,1,.48-2.67,4.1,4.1,0,0,1,.7-1,4.41,4.41,0,0,1,.9-.69,4.73,4.73,0,0,1,1.87-.6,4.89,4.89,0,0,1,1.49.1,5.8,5.8,0,0,1,1.18.49l-.07-.05-.21-.14a4.12,4.12,0,0,0-.88-.37,4.69,4.69,0,0,0-3.44.45,4.47,4.47,0,0,0-.94.71,4.22,4.22,0,0,0-.74,1,5.55,5.55,0,0,0-.51,2.75,10.7,10.7,0,0,0,.65,3c.34,1,.78,2,1.12,3.11a15.78,15.78,0,0,1,.85,6.24,9,9,0,0,1-1.8,4.77,7.32,7.32,0,0,1-2.66,2.19C347.54,333.13,347.08,333.2,347.09,333.23Z" style="fill:#455a64"></path><path d="M344,331.44a1.58,1.58,0,0,0,.34-.08,7.52,7.52,0,0,0,.89-.36,7.9,7.9,0,0,0,1.23-.72,9.78,9.78,0,0,0,1.32-1.15,8.69,8.69,0,0,0,1.06-1.39,8.08,8.08,0,0,0,.65-1.27,6.27,6.27,0,0,0,.3-.91,1.45,1.45,0,0,0,.06-.34s-.16.47-.48,1.2a9.07,9.07,0,0,1-.67,1.23,9.61,9.61,0,0,1-1.06,1.35,10.93,10.93,0,0,1-1.28,1.14,8.89,8.89,0,0,1-1.19.74C344.42,331.25,343.94,331.41,344,331.44Z" style="fill:#455a64"></path><path d="M374.18,331.93s-1.23,2.8-1.64,3.92l1.27.48a2,2,0,0,0,2.71-2.22,2.06,2.06,0,0,0-.8-1.27A11.71,11.71,0,0,0,374.18,331.93Z" style="fill:#91514c"></path><path d="M372.54,335.85a22.73,22.73,0,0,1,1.45-4l.08-.2.2.1.09.05a9.56,9.56,0,0,1,1.47.89,2,2,0,0,1,.8,1.22c.15.85-.19,1.31-.22,1.28a4.19,4.19,0,0,0-.06-1.21c-.15-.76-1.12-1.28-2.18-1.82l-.09-.05.28-.09A22.09,22.09,0,0,1,372.54,335.85Z" style="fill:#263238"></path><path d="M424.27,420s-1.07,6.71-.62,9.09,9.2,10.54,17.16,10.2,43.9-17.47,43.9-17.47l-4-10.91s-21.28,4.27-23.78,4.61-9.33,4.73-9.33,4.73l-2.78,4Z" style="fill:#a3615a"></path><polygon points="470.67 389.03 444.84 424.21 421.44 419.64 433.87 381.25 470.43 381.25 470.67 389.03" style="fill:#263238"></polygon><path d="M415.14,361c-.38,0-8.24-.13-8.37,10.18S418.08,408,418.08,408l8,21.18,6.31,1.72,8.53-1.36s-1.76-27.3-3.43-33.22a77.26,77.26,0,0,0-5.11-12.47L444,387.7l22.92-4.9L463.7,361Z" style="fill:#a3615a"></path><path d="M415.14,361l.87,0,2.55,0,9.74-.05,35.4-.09h.18l0,.17c1,6.6,2.08,13.95,3.25,21.77l0,.22-.22,0-22.92,4.91-.07,0-.07,0-11.58-3.89.31-.37c1.17,2.28,2.26,4.67,3.26,7.15a37.79,37.79,0,0,1,2.37,7.79c.86,5.31,1.31,10.57,1.78,15.72s.82,10.21,1.15,15.14v.23l-.23,0-8.52,1.36h-.11l-6.3-1.73-.12,0,0-.12c-4-10.42-7.48-20.13-11-28.65a160.35,160.35,0,0,1-7.39-22.89,24,24,0,0,1-.58-9,11.54,11.54,0,0,1,1.12-3.49,8.63,8.63,0,0,1,1.93-2.37,8.05,8.05,0,0,1,3.78-1.72,6.17,6.17,0,0,1,1.43-.1,3.28,3.28,0,0,1-.36,0,9.68,9.68,0,0,0-1.06.15,7.86,7.86,0,0,0-5.55,4.1,11.22,11.22,0,0,0-1.06,3.43,23.71,23.71,0,0,0,.64,8.87,162.71,162.71,0,0,0,7.47,22.8c3.59,8.49,7.12,18.22,11.12,28.63l-.16-.14,6.3,1.71h-.1l8.53-1.37-.22.27c-.33-4.92-.71-10-1.15-15.12s-.93-10.41-1.78-15.68a37.48,37.48,0,0,0-2.34-7.68c-1-2.46-2.08-4.85-3.24-7.11l-.29-.57.6.21,11.59,3.9h-.14l22.93-4.88-.18.27c-1.15-7.82-2.22-15.17-3.19-21.78l.2.18-35.4-.09-9.74-.06-2.55,0Z" style="fill:#844440"></path><path d="M435.37,360.26a27.6,27.6,0,0,1,5.92,16.62c-.09,9.6-1.93,13.65-1.93,13.65s24.09.52,26.15,0,7.72-1.16,10.69-6.44,7.21-14.3.9-23.06l-7.21-5.54-9.15,3.35-23.89.26Z" style="fill:#263238"></path><path d="M470.43,350.68l-5.53,3.49-23.77,4.26-2.27.65s16.54,9.39,18.11,20.1a122.88,122.88,0,0,1,15.53-7.86c7-2.7,8.29-.15,11.84-1.77,2.05-.94,2.63-3.33,2.63-3Z" style="fill:#455a64"></path><path d="M424.44,427.65v1s-17.63,7.26-17.78,10.57l35.21-.68-.7-11.51A20.45,20.45,0,0,1,424.44,427.65Z" style="fill:#455a64"></path><g style="opacity:0.6000000000000001"><path d="M437.69,430.81a1.34,1.34,0,1,1-.58,2.61,1.48,1.48,0,0,1-1.07-1.7,1.43,1.43,0,0,1,1.78-.87" style="fill:#fff"></path></g><g style="opacity:0.6000000000000001"><path d="M441.88,438.57l-.17-2.77L408,437.47s-1.56.7-1.36,1.78Z" style="fill:#fff"></path></g><path d="M424.33,428.78c0,.17.87.23,1.73.76s1.32,1.23,1.47,1.16-.11-1.05-1.16-1.67S424.29,428.63,424.33,428.78Z" style="fill:#263238"></path><path d="M420.67,430.36c0,.16.71.43,1.31,1.14s.78,1.45.95,1.44.26-1-.5-1.83S420.67,430.19,420.67,430.36Z" style="fill:#263238"></path><path d="M418.65,434.74c.16,0,.38-.81-.08-1.73s-1.27-1.27-1.34-1.13.44.63.8,1.39S418.48,434.73,418.65,434.74Z" style="fill:#263238"></path><path d="M481.54,426.55l1-.29s11.78,15,15,14.24L487.3,406.81l-10.89,3.8A20.41,20.41,0,0,1,481.54,426.55Z" style="fill:#455a64"></path><g style="opacity:0.6000000000000001"><path d="M481,413a1.41,1.41,0,0,1,1.25-1.42,1.39,1.39,0,0,1,1.41,1.27,1.48,1.48,0,0,1-1.34,1.49,1.44,1.44,0,0,1-1.32-1.48" style="fill:#fff"></path></g><g style="opacity:0.6000000000000001"><path d="M487.3,406.81l-2.62.91,10.77,32s1.1,1.3,2.09.82Z" style="fill:#fff"></path></g><path d="M482.66,426.35c.16-.05,0-.89.26-1.86s.82-1.61.71-1.74-1,.4-1.28,1.58S482.52,426.44,482.66,426.35Z" style="fill:#263238"></path><path d="M485.17,429.45c.17,0,.23-.8.74-1.57s1.19-1.15,1.13-1.31-1,0-1.62,1S485,429.5,485.17,429.45Z" style="fill:#263238"></path><path d="M489.94,430.2c0-.16-.89-.14-1.65.55s-.88,1.56-.72,1.59.49-.59,1.12-1.15S490,430.37,489.94,430.2Z" style="fill:#263238"></path><path d="M440.87,383.8a1.68,1.68,0,0,1,0,.49c0,.31-.05.78-.12,1.37a17.52,17.52,0,0,1-1.23,5l-.15-.28a127.12,127.12,0,0,0,14.45.5,63.45,63.45,0,0,0,14.95-1.78,16.14,16.14,0,0,0,4.19-1.73c.91-.57,1.31-1,1.35-1s-.08.13-.28.34a6.07,6.07,0,0,1-1,.81,15.17,15.17,0,0,1-4.2,1.92,58.48,58.48,0,0,1-15,1.94,107,107,0,0,1-14.5-.64l-.26,0,.11-.25a19.37,19.37,0,0,0,1.36-4.81A16.57,16.57,0,0,1,440.87,383.8Z" style="fill:#455a64"></path><path d="M423.65,375.61a2.72,2.72,0,0,1,1.86.23,10.5,10.5,0,0,1,3.56,2.77,14.75,14.75,0,0,1,3.4,5.33,60.42,60.42,0,0,0-3.78-5,12.27,12.27,0,0,0-3.33-2.79A13.12,13.12,0,0,0,423.65,375.61Z" style="fill:#844440"></path><path d="M411.75,352.58c-.32.08-12.42,3.36-14.9,5.28s3.12,6.41,3.12,6.41l22.92-1.6-9.3-8.89Z" style="fill:#a3615a"></path><path d="M396.85,357.86s-3,3.53-3.37,4.73-2.64,10.1-2.64,10.1l.88,7.29,6.93,7s2.68-.64,1.32-2.89a47.1,47.1,0,0,0-2.8-4.08l.24-6.85,1.24-2.05,2.28.24s-.32,5.29,2.17,5.85l1.6-.8-.4-9.37-.37-3.21Z" style="fill:#a3615a"></path><path d="M398.66,368.27s.2.27.1.82a4.4,4.4,0,0,1-1.17,1.91,5.26,5.26,0,0,0-1.16,2.88,26.79,26.79,0,0,0-.06,3.94,6.15,6.15,0,0,0,1.13,3.61,11.86,11.86,0,0,1,2.07,2.57,2.1,2.1,0,0,1-.21,2.23c-.37.43-.72.44-.72.42s.28-.13.56-.54a1.9,1.9,0,0,0,0-1.95,13.27,13.27,0,0,0-2.1-2.43,6.36,6.36,0,0,1-1.28-3.88,23.24,23.24,0,0,1,.11-4,5.46,5.46,0,0,1,1.35-3.05,4.61,4.61,0,0,0,1.25-1.72A3.21,3.21,0,0,0,398.66,368.27Z" style="fill:#844440"></path><path d="M400.17,333.61c-1.79-4.93-1.06-10.45,4.08-11.51a23,23,0,0,1,11.31,1.28c5.44,2.49,19.78,22.5,21.29,25.44s.23,9.07-1.48,11.44-11.54,5.16-11.54,5.16-13.25-10.29-13.1-12.78,2.94-2.65,2.94-2.65-11.47-10.28-12.35-13.22C401.05,335.87,400.61,334.8,400.17,333.61Z" style="fill:#455a64"></path><path d="M400.17,333.61a1.19,1.19,0,0,1,.16.34c.1.27.24.61.41,1.05l.65,1.7a8.08,8.08,0,0,0,1.29,2.05,112.41,112.41,0,0,0,11.12,11.1l.32.29-.44.05a3.4,3.4,0,0,0-2.1.91,2.18,2.18,0,0,0-.56,1,2.46,2.46,0,0,0-.08.59,1.53,1.53,0,0,0,.17.54,10.78,10.78,0,0,0,1.6,2.11c.62.67,1.28,1.33,2,2,2.78,2.61,5.94,5.22,9.31,7.87l-.22,0a58.91,58.91,0,0,0,8.85-3.29,11,11,0,0,0,2-1.28,5.18,5.18,0,0,0,1.3-2,17.34,17.34,0,0,0,1.22-4.86,12.29,12.29,0,0,0-.07-3.21,5.35,5.35,0,0,0-.44-1.49,13.57,13.57,0,0,0-.8-1.37c-1.15-1.8-2.38-3.53-3.59-5.22-2.43-3.37-4.88-6.56-7.3-9.51a65.83,65.83,0,0,0-7.37-7.91c-.32-.27-.65-.52-1-.78s-.69-.42-1-.63a10.81,10.81,0,0,0-2.23-.8,26.88,26.88,0,0,0-4.44-.74,19.82,19.82,0,0,0-4.09.05,6.49,6.49,0,0,0-3.27,1.36,5.71,5.71,0,0,0-1.73,2.56,8.79,8.79,0,0,0-.45,2.61,12.67,12.67,0,0,0,.44,3.66c.21.82.36,1.25.33,1.26a9.76,9.76,0,0,1-.43-1.23,12.18,12.18,0,0,1-.54-3.7,8.36,8.36,0,0,1,.42-2.68,5.92,5.92,0,0,1,1.77-2.7,6.72,6.72,0,0,1,3.42-1.46,19,19,0,0,1,4.15-.09,25.64,25.64,0,0,1,4.52.71,12,12,0,0,1,2.31.81c.36.22.74.42,1.09.66l1,.79a67.23,67.23,0,0,1,7.46,7.94c2.44,3,4.9,6.14,7.35,9.52,1.21,1.69,2.44,3.42,3.61,5.24a14.09,14.09,0,0,1,.83,1.43,6.3,6.3,0,0,1,.49,1.62,13,13,0,0,1,.06,3.35,17.53,17.53,0,0,1-1.25,5A5.74,5.74,0,0,1,435,361a11.18,11.18,0,0,1-2.15,1.35,57.64,57.64,0,0,1-9,3.3l-.12,0-.1-.08c-3.38-2.66-6.52-5.29-9.31-7.94-.69-.66-1.36-1.33-2-2a10.9,10.9,0,0,1-1.66-2.22,1.73,1.73,0,0,1-.2-.71,2.63,2.63,0,0,1,.09-.7,2.55,2.55,0,0,1,.67-1.2,3.76,3.76,0,0,1,2.37-1l-.12.34a106.32,106.32,0,0,1-11-11.25,8.22,8.22,0,0,1-1.28-2.15c-.24-.66-.43-1.24-.6-1.71s-.26-.79-.35-1.06A2.2,2.2,0,0,1,400.17,333.61Z" style="fill:#263238"></path><path d="M424.22,356.66a55,55,0,0,0-5-3.93,58.83,58.83,0,0,0-5.68-2.87,5.49,5.49,0,0,1,1.84.44,19.63,19.63,0,0,1,4.12,2,19.42,19.42,0,0,1,3.54,2.88A5.86,5.86,0,0,1,424.22,356.66Z" style="fill:#263238"></path><path d="M401.86,361.68c.09-.11.93.45,1.57,1.49a3.09,3.09,0,0,1,.66,2.06c-.15,0-.49-.82-1.1-1.78S401.76,361.79,401.86,361.68Z" style="fill:#844440"></path><path d="M420.44,362.57a10,10,0,0,1-2.43.5c-1.52.23-3.62.45-5.95.63s-4.44.28-6,.34a12.4,12.4,0,0,1-2.49,0,12.1,12.1,0,0,1,2.46-.35c1.53-.15,3.63-.31,6-.49l6-.47A14.11,14.11,0,0,1,420.44,362.57Z" style="fill:#844440"></path><path d="M423,319.26s9.78-10.94,23.27-4.1,9.49,19.76,9.49,19.76Z" style="fill:#CFAE3D"></path><path d="M408.8,318.54l.35-1L423,319.26l32.86,15.3,9.08,8.25-.59,1.33a280.4,280.4,0,0,1-28.49-11.25C423.53,327,408.8,318.54,408.8,318.54Z" style="fill:#CFAE3D"></path><path d="M443.25,314.22a3.2,3.2,0,0,1,3.92-.79,2.7,2.7,0,0,1,1.25,3.47Z" style="fill:#CFAE3D"></path><path d="M455.85,334.58a7.7,7.7,0,0,1-1.36-.43c-.87-.31-2.11-.78-3.63-1.39-3.05-1.21-7.22-3-11.76-5.11s-8.57-4.19-11.46-5.74c-1.44-.78-2.6-1.42-3.4-1.88a8.6,8.6,0,0,1-1.21-.76,8.1,8.1,0,0,1,1.31.58l3.47,1.73c2.93,1.47,7,3.47,11.52,5.6s8.66,3.95,11.67,5.24l3.56,1.54A7.48,7.48,0,0,1,455.85,334.58Z" style="fill:#263238"></path><path d="M453.23,320.93c-.07.05-.65-.71-1.76-1.75a22.78,22.78,0,0,0-4.79-3.49,23,23,0,0,0-5.5-2.18c-1.48-.36-2.43-.45-2.42-.54a7.5,7.5,0,0,1,2.49.18,20.14,20.14,0,0,1,10.48,5.77A6.79,6.79,0,0,1,453.23,320.93Z" style="fill:#263238"></path><path d="M464.9,342.81a4.57,4.57,0,0,1-.61-.14l-1.7-.5c-1.48-.45-3.6-1.12-6.21-2s-5.7-2-9.08-3.38q-2.54-1-5.27-2.22c-1.83-.78-3.63-1.76-5.53-2.67l-5.5-2.73-5.08-2.63-8.57-4.47L411.58,319l-1.55-.85a3.42,3.42,0,0,1-.53-.33,2.27,2.27,0,0,1,.58.23l1.6.77,5.83,2.91,8.63,4.38,5.09,2.6,5.5,2.71c1.89.91,3.69,1.89,5.51,2.68s3.56,1.55,5.24,2.24c3.37,1.38,6.43,2.53,9,3.47l6.15,2.17,1.67.59A3,3,0,0,1,464.9,342.81Z" style="fill:#263238"></path><path d="M445.05,314.46c0,.09-1,.13-2.53.47a18.57,18.57,0,0,0-10.32,6.33c-1,1.23-1.49,2.09-1.57,2.05s.06-.25.27-.65a10.79,10.79,0,0,1,1-1.62,16.6,16.6,0,0,1,10.54-6.47,10.92,10.92,0,0,1,1.9-.17C444.8,314.4,445.05,314.42,445.05,314.46Z" style="fill:#263238"></path><path d="M449.82,317.26a6.55,6.55,0,0,1,.71,2,17.22,17.22,0,0,1,.4,5.21,17.75,17.75,0,0,1-1.16,5.09,6.42,6.42,0,0,1-1,1.9,30,30,0,0,0,1.65-7A30.82,30.82,0,0,0,449.82,317.26Z" style="fill:#263238"></path></g><g id="freepik--character-1--inject-2"><path d="M213.47,436.29l-13.51,0s-19,7.58-24.82,3.28l27.53-20.47,9.82,6.91Z" style="fill:#CFAE3D"></path><path d="M206.54,429.19a1.4,1.4,0,0,0-.17-1.86,1.34,1.34,0,0,0-1.85.16,1.47,1.47,0,0,0,.2,2,1.39,1.39,0,0,0,1.9-.37" style="fill:#e0e0e0"></path><path d="M202.26,418.47l1.6,2.14-26.59,19.52s-1.62.38-2.13-.59Z" style="fill:#263238"></path><path d="M203.88,420.59l-1.62-2.15,0,0-27.12,21.08v0a3.12,3.12,0,0,0,2.07,1l26.7-19.92Z" style="fill:#263238"></path><path d="M197.08,437.35c-.16,0,0-.87-.35-1.8s-.9-1.53-.8-1.66,1,.34,1.35,1.47S197.22,437.43,197.08,437.35Z" style="fill:#263238"></path><path d="M193.3,438.62c-.15-.08.11-.82-.06-1.71s-.63-1.5-.51-1.63.9.42,1.09,1.53S193.43,438.72,193.3,438.62Z" style="fill:#263238"></path><path d="M189.18,436.47c.1-.12.78.41,1,1.4s-.21,1.76-.35,1.69,0-.76-.23-1.57S189.05,436.58,189.18,436.47Z" style="fill:#263238"></path><path d="M200,436.44c-.14-.09.18-.82.23-1.77s-.16-1.72,0-1.79.66.71.59,1.82S200.12,436.54,200,436.44Z" style="fill:#263238"></path><path d="M186.76,380.22l-2.55,3.68s-4.4,5.21-5.71,8.9C176,400,177.16,409.36,180,412.87c2.25,2.8,8.8,7.08,16.67,8.42.42.08,10.65.6,10.65.6l-.36,16.68s37.52.57,45.37-.4c13.9-1.7,13.9-13.17,13.86-19.69,0-5.28-9.71-11.45-13.85-14s-34.87-11.73-34.87-11.73Z" style="fill:#263238"></path><path d="M257.91,436.94a14.43,14.43,0,0,0,3.32-2.22,11.42,11.42,0,0,0,2.63-3.83,23,23,0,0,0,1.6-6c.23-2.28.93-4.87,0-7.4a21,21,0,0,0-4.86-7c-.54-.54-1.1-1.07-1.69-1.59-.29-.25-.59-.51-.89-.74l-1-.65c-.68-.42-1.32-.91-2-1.29L252.77,405a67,67,0,0,0-9.54-3.81,131.54,131.54,0,0,0-19.38-4.53c-6-1-11.54-1.6-16.16-2-2.31-.23-4.4-.32-6.24-.46l-4.72-.24-3-.11-.78,0-.26,0,.26,0h3.77l4.73.15c1.84.11,3.94.18,6.25.38,4.63.35,10.14.91,16.2,1.88a130.17,130.17,0,0,1,19.47,4.51,67.37,67.37,0,0,1,9.61,3.86l2.2,1.18c.73.39,1.38.89,2.07,1.32l1,.66c.32.26.62.51.92.78.59.52,1.15,1.07,1.7,1.61a21.34,21.34,0,0,1,4.92,7.23,9,9,0,0,1,.47,4c-.14,1.26-.29,2.47-.47,3.62a23.05,23.05,0,0,1-1.69,6.05,11.4,11.4,0,0,1-2.77,3.86,10.64,10.64,0,0,1-2.48,1.67l-.72.31C258,436.92,257.92,437,257.91,436.94Z" style="fill:#455a64"></path><path d="M234.2,421.23c0,.14-6.1.29-13.63.33s-13.64-.05-13.64-.19,6.11-.3,13.64-.33S234.2,421.08,234.2,421.23Z" style="fill:#455a64"></path><path d="M260.72,435.43a5.14,5.14,0,0,0-8.38-5.47,6.94,6.94,0,0,0-13.4,2.39,6.46,6.46,0,0,0-8.28,6.65s17-.29,22-.88A18.81,18.81,0,0,0,260.72,435.43Z" style="fill:#a3615a"></path><path d="M276.37,410.72l-.72,17.07s17.11,6.47,17.28,9.63l-33.14-.21,0-26.64Z" style="fill:#CFAE3D"></path><path d="M265.41,426.29a1.35,1.35,0,0,0-.94,1.54,1.3,1.3,0,0,0,1.51.95,1.44,1.44,0,0,0,1-1.64,1.35,1.35,0,0,0-1.69-.81" style="fill:#e0e0e0"></path><path d="M259.76,437.91v-2.58l31.87.4s1.47.66,1.3,1.69Z" style="fill:#263238"></path><path d="M259.76,437.93h0V435.3l31.89.41h0s1.48.67,1.31,1.71h0Zm0-2.58v2.54l33.13-.49c.15-1-1.2-1.61-1.28-1.65Z" style="fill:#455a64"></path><path d="M276.19,427.62c0,.17-.82.23-1.62.75s-1.22,1.19-1.37,1.13.1-1,1.08-1.61S276.23,427.48,276.19,427.62Z" style="fill:#263238"></path><path d="M279.66,429.08c0,.16-.67.43-1.22,1.11s-.72,1.41-.88,1.4-.26-.93.44-1.76S279.65,428.93,279.66,429.08Z" style="fill:#263238"></path><path d="M281.6,433.26c-.14,0-.36-.78.06-1.66s1.18-1.23,1.25-1.1-.41.61-.74,1.34S281.76,433.24,281.6,433.26Z" style="fill:#263238"></path><path d="M275.92,423.72c-.07.14-.81-.08-1.72,0s-1.63.34-1.72.2.61-.71,1.69-.76S276,423.59,275.92,423.72Z" style="fill:#263238"></path><path d="M262.47,363.84s9.22-3.93,15,0,5.19,12.37,5.34,15.7-3.59,36.61-3.59,36.61l-20.8-.94,3.82-26.64-22.34,16.19-33-3.75V388.57Z" style="fill:#263238"></path><path d="M282.36,372.21a6.13,6.13,0,0,0-2.7,7.5s-6.21,4-2.15,9.41,4.42,1.92,4.42,1.92.92-9.16.92-11.63C282.86,376.42,282.36,372.21,282.36,372.21Z" style="fill:#a3615a"></path><path d="M186.05,380.22s-2,3.61,2.47,6.79a36.25,36.25,0,0,0,8.7,4.58s7.57,2.17,12.93,2,25.76-.82,25.76-.82l13.64-7.17,13.07-31.1L260,351.84s-6.91-8.14-17.89-9.62c-4.49-.61-12,2.06-18.81,4.95S188.24,371.77,186.05,380.22Z" style="fill:#CFAE3D"></path><path d="M266.26,369c0-12.18-4.35-15.23-4.35-15.23l-8.55,15.89-5.3,14.51,2.12,10,2.11,6,14.51-7.37a2.64,2.64,0,0,0,.78-4.09h0Z" style="fill:#CFAE3D"></path><path d="M218.31,362.25s-1.51,29.26,1.76,37.24,6.16,10.68,6.16,10.68l18.33-10-2.73-7.36-.79-.67s0-29.76-.24-34.7c-.27-5.87-6.79-11.79-13.07-9.67C223.28,349.3,218.22,356,218.31,362.25Z" style="fill:#CFAE3D"></path><path d="M218.31,362.25a10.44,10.44,0,0,1,0-1.44,14.64,14.64,0,0,1,1-4,18.85,18.85,0,0,1,3.43-5.58,14.74,14.74,0,0,1,3.11-2.69,8.49,8.49,0,0,1,4.43-1.33,11,11,0,0,1,8.95,5.1,10.32,10.32,0,0,1,1.8,5.63q0,3,.06,6.26c.06,8.57.13,18,.21,28l-.09-.2.79.67.05.05,0,.06,1.05,2.84q.85,2.28,1.68,4.52l.08.21-.2.1-18.33,10-.17.09-.12-.12a24.07,24.07,0,0,1-3.13-4.42,49.72,49.72,0,0,1-2.32-4.61c-.18-.39-.33-.78-.5-1.16a9.05,9.05,0,0,1-.43-1.17c-.13-.39-.25-.79-.38-1.18s-.17-.79-.25-1.18c-.18-.79-.29-1.57-.4-2.35s-.21-1.53-.27-2.28a152.28,152.28,0,0,1-.56-15.77c0-4.41.16-7.9.26-10.3.06-1.17.11-2.09.15-2.74l.05-.7a1.48,1.48,0,0,1,0-.24.87.87,0,0,1,0,.24c0,.18,0,.41,0,.7,0,.66,0,1.57-.07,2.75-.05,2.39-.13,5.89-.12,10.29s.06,9.73.67,15.72a27.18,27.18,0,0,0,2.24,9.18,48.82,48.82,0,0,0,2.31,4.56,23.36,23.36,0,0,0,3.06,4.3l-.29,0,18.32-10-.12.32-1.67-4.52c-.36-1-.72-1.94-1.06-2.84l.08.11-.79-.68-.09-.07v-.12c-.06-10-.11-19.4-.17-28,0-2.14,0-4.23,0-6.25a9.82,9.82,0,0,0-1.71-5.43,10.6,10.6,0,0,0-8.59-5,8.25,8.25,0,0,0-4.26,1.26,14.11,14.11,0,0,0-3.07,2.6,18.72,18.72,0,0,0-3.45,5.46,15,15,0,0,0-1.06,3.95c-.07.46-.06.82-.09,1.06A2.24,2.24,0,0,1,218.31,362.25Z" style="fill:#263238"></path><path d="M259.61,366.54a3.13,3.13,0,0,1-.05,1,21.87,21.87,0,0,1-.46,2.62,29.68,29.68,0,0,1-8.75,14.94,21.87,21.87,0,0,1-2,1.68,3.63,3.63,0,0,1-.82.52c-.06-.07,1-.91,2.62-2.47A33.06,33.06,0,0,0,258.74,370C259.33,367.9,259.52,366.53,259.61,366.54Z" style="fill:#263238"></path><path d="M262.62,358.41a15.31,15.31,0,0,1-1.33,3.68,15.09,15.09,0,0,1-1.81,3.47,14.66,14.66,0,0,1,1.33-3.68A15.09,15.09,0,0,1,262.62,358.41Z" style="fill:#263238"></path><path d="M238.22,393.47c.05.16-3.47,1.07-7.45,3s-6.86,4.21-7,4.08a8.37,8.37,0,0,1,1.8-1.56A33.46,33.46,0,0,1,235.89,394,9.31,9.31,0,0,1,238.22,393.47Z" style="fill:#263238"></path><path d="M307.61,403.09a5.27,5.27,0,0,0-3.47-3.33,5.93,5.93,0,0,0-4.8.69,3.65,3.65,0,0,0-1.4,1.41,2,2,0,0,0,0,1.93l.9-.35a34,34,0,0,0,8,.74,1,1,0,0,0,.74-.24A.9.9,0,0,0,307.61,403.09Z" style="fill:#e0e0e0"></path><path d="M285.47,395.53c.27.06,7,2.27,7,2.27l9.56-1.22a2.12,2.12,0,0,1,1.37.3l5.43,3.35,2.82,5.46s.45,1.67-1.58.48-5.65-5.25-5.65-5.25l-4.63-.31L293.89,407h-11.6a19.1,19.1,0,0,1,1.39-6.27C285.12,396.72,285.47,395.53,285.47,395.53Z" style="fill:#e0e0e0"></path><path d="M314.59,410.14h0a1.15,1.15,0,0,0-.41-1.58l-24.27-14.31a1.17,1.17,0,0,0-1.59.41h0a1.17,1.17,0,0,0,.41,1.59L313,410.55A1.15,1.15,0,0,0,314.59,410.14Z" style="fill:#455a64"></path><path d="M316.91,409.94a11.69,11.69,0,0,0,2.56.58,15.2,15.2,0,0,0,5.37-.45l2.52-.65a44.94,44.94,0,0,1-2.48,4.2,10.84,10.84,0,0,1-5.76-.13s3.72,1.35,5.15,1.32l-.6,1a17.72,17.72,0,0,1-3.95-.62,8.4,8.4,0,0,1-4.4-2.9Z" style="fill:#ff9a6c"></path><path d="M306.57,405l-4.92-1L295,400.8l-3.25,5.59s4.3,1.05,6.18,1.45a25.23,25.23,0,0,0,8.21.08,2.39,2.39,0,0,0,2-1.74C308.2,405.58,307.4,405.25,306.57,405Z" style="fill:#e0e0e0"></path><path d="M301.08,400a4.94,4.94,0,0,1,1.16.35c.71.25,1.68.62,2.74,1a2.88,2.88,0,0,1,.78.4,2.84,2.84,0,0,1,.57.58,12.38,12.38,0,0,1,.69,1.13c.36.65.7,1,.67,1a2.28,2.28,0,0,1-.84-.89c-.43-.61-.87-1.62-2-2s-2-.81-2.71-1.11A4.74,4.74,0,0,1,301.08,400Z" style="fill:#263238"></path><path d="M308.15,406.18s0-.19-.18-.41a2.47,2.47,0,0,0-1.08-.63,21.77,21.77,0,0,0-4.19-.9l-1.06-.13h-.05c-1.32-.56-2.45-1.11-3.28-1.45a11,11,0,0,1-1.33-.56,6.15,6.15,0,0,1,1.4.39c.85.29,2,.81,3.32,1.36h0l1.08.12a17.83,17.83,0,0,1,4.22,1,2.37,2.37,0,0,1,1.1.75C308.25,406,308.15,406.2,308.15,406.18Z" style="fill:#263238"></path><polygon points="311.67 409.93 315.32 412.3 316.91 409.94 313.15 407.77 311.67 409.93" style="fill:#e0e0e0"></polygon><path d="M286.26,395.19l-3.42,12.45a.75.75,0,0,1-.92.53h0a.76.76,0,0,1-.53-.93l3.41-12.45a.76.76,0,0,1,.93-.53h0A.77.77,0,0,1,286.26,395.19Z" style="fill:#e0e0e0"></path><path d="M286.18,395.27a10.69,10.69,0,0,1-.34,1.8c-.25,1.11-.63,2.62-1.09,4.28s-.94,3.16-1.3,4.23a10.41,10.41,0,0,1-.65,1.71,12.63,12.63,0,0,1,.46-1.77c.33-1.17.75-2.63,1.21-4.24s.85-3.09,1.18-4.26A13.13,13.13,0,0,1,286.18,395.27Z" style="fill:#263238"></path><polyline points="228.01 409.2 239.3 435.45 249 435.45 242.1 401.53" style="fill:#ffbf9d"></polyline><path d="M259.41,433.64l-2.84-1c-.9-.07-7-.8-7-.8l-2-7.88-11.09,5.72s2,7.56,3.52,8.95,16.56,2.54,18.46,2.68a3.91,3.91,0,0,0,2.9-.84s4.58.35,5.69,0,1-1.11,1-1.11,1.45-.28,1.81-1h0c.22-1-.74-1.65-1.72-2C265.11,435.07,259.41,433.64,259.41,433.64Z" style="fill:#e0e0e0"></path><path d="M248.07,424.35l-11.23,5.18a.73.73,0,0,1-1-.36h0a.72.72,0,0,1,.35-1L247.46,423a.72.72,0,0,1,1,.35h0A.72.72,0,0,1,248.07,424.35Z" style="fill:#e0e0e0"></path><path d="M247.71,424.79a16,16,0,0,1-1.69.65c-1,.39-2.48,1-4,1.66s-2.91,1.41-3.89,1.94a18.1,18.1,0,0,1-1.61.84s.13-.12.39-.3.64-.42,1.12-.71a37,37,0,0,1,3.88-2,38,38,0,0,1,4.08-1.59c.53-.17,1-.3,1.27-.38A1.4,1.4,0,0,1,247.71,424.79Z" style="fill:#263238"></path><path d="M249.59,431.83c0,.08-1,.34-2.29.84s-2.2,1-2.24,1a6.63,6.63,0,0,1,2.14-1.22A6.24,6.24,0,0,1,249.59,431.83Z" style="fill:#263238"></path><path d="M261.39,440.46s0-.1.09-.28a1.16,1.16,0,0,0,0-.75l.06.05c-.87-.22-2.22-.6-3.72-1.05-1.32-.4-2.51-.77-3.37-1.05a7.53,7.53,0,0,1-1.37-.51,8.15,8.15,0,0,1,1.43.33c.87.23,2.07.57,3.39,1,1.5.45,2.84.87,3.69,1.16h0v0a1.26,1.26,0,0,1,0,.86C261.48,440.4,261.4,440.47,261.39,440.46Z" style="fill:#263238"></path><path d="M256.39,435.06a1.52,1.52,0,0,1,.51,0c.33,0,.8.12,1.37.25a41.4,41.4,0,0,1,4.4,1.27c1.69.57,3.22,1.06,4.35,1.4a1.69,1.69,0,0,1,1.1.86c.14.33.06.53.05.52a1.81,1.81,0,0,0-.14-.47,1.68,1.68,0,0,0-1.07-.73c-1.13-.29-2.69-.75-4.38-1.32s-3.23-1.05-4.36-1.34S256.39,435.1,256.39,435.06Z" style="fill:#263238"></path><path d="M269.27,308.1c-3.39-2.18-7.2-2.15-11.15-1.4a19.91,19.91,0,0,0-10.42,5.74,19.65,19.65,0,0,0-5.56,11.19,15.73,15.73,0,0,0,3.34,11.91c3.72,4.43,10.15,6.18,15.77,4.78A19.91,19.91,0,0,0,274,329.42a19.1,19.1,0,0,0,1.68-11.65,14.57,14.57,0,0,0-6.45-9.67" style="fill:#263238"></path><path d="M253.59,316.08c1.13-1.17,1.59-2.82,2.43-4.21,1.86-3.06,5.6-4.55,9.18-4.53,3.33,0,6.67,1.76,9.6,4.31a14.07,14.07,0,0,1,4.39,6.56,11.09,11.09,0,0,1-2,10l-15.64-9.55a20,20,0,0,1-6.47,1.17,3.75,3.75,0,0,1-1.86-.46,1.69,1.69,0,0,1-.84-1.63C252.46,317.05,253.1,316.59,253.59,316.08Z" style="fill:#263238"></path><path d="M273.19,316.41l-15.87-3.13a3,3,0,0,0-3.67,1.58L242,343.12l10.3,17.34,5-8.62s.9-1.85.88-1.82,6.28,1.79,11.09-5.24c2.38-3.49,5.13-9.78,7.2-15C278.34,325.1,278,318.08,273.19,316.41Z" style="fill:#ffbf9d"></path><path d="M271.81,335.21a1.08,1.08,0,0,1-1.4.54,1,1,0,0,1-.59-1.36,1.08,1.08,0,0,1,1.4-.54A1,1,0,0,1,271.81,335.21Z" style="fill:#263238"></path><path d="M273.6,332.38c-.18.07-.66-.83-1.71-1.32s-2.07-.34-2.12-.52.2-.25.65-.34a3,3,0,0,1,1.77.26,2.83,2.83,0,0,1,1.29,1.21C273.68,332.07,273.68,332.35,273.6,332.38Z" style="fill:#263238"></path><path d="M261.91,330.77a1.08,1.08,0,0,1-1.41.54,1,1,0,0,1-.58-1.35,1.07,1.07,0,0,1,1.4-.54A1,1,0,0,1,261.91,330.77Z" style="fill:#263238"></path><path d="M263.58,327.8c-.18.07-.66-.83-1.71-1.32s-2.06-.34-2.12-.52.21-.25.66-.34a3,3,0,0,1,1.77.26,2.75,2.75,0,0,1,1.28,1.21C263.67,327.49,263.67,327.77,263.58,327.8Z" style="fill:#263238"></path><path d="M263.32,337.27a7.46,7.46,0,0,1,1.85.5c.28.1.56.16.69,0a1.47,1.47,0,0,0,.2-.88c.05-.76.11-1.57.17-2.41a38.93,38.93,0,0,1,.75-6.17,38,38,0,0,1-.25,6.22c-.07.84-.14,1.64-.21,2.41a1.66,1.66,0,0,1-.36,1.11.76.76,0,0,1-.63.19,1.93,1.93,0,0,1-.48-.16A7.63,7.63,0,0,1,263.32,337.27Z" style="fill:#263238"></path><path d="M258.17,350a21.37,21.37,0,0,1-8.88-7.53s.06,6.47,8,9.35Z" style="fill:#ff9a6c"></path><path d="M261.68,339.59a2.09,2.09,0,0,0-1.36-1.51,1.93,1.93,0,0,0-1.49.08,1.22,1.22,0,0,0-.68,1.21,1.43,1.43,0,0,0,1.21,1,4.57,4.57,0,0,0,1.72-.17,1.35,1.35,0,0,0,.45-.17.38.38,0,0,0,.18-.39" style="fill:#ff9a6c"></path><path d="M259.89,336.53c.18.07-.36,1.21.24,2.48s1.86,1.72,1.79,1.88-.37.1-.89-.13a3.12,3.12,0,0,1-1.53-1.51,2.73,2.73,0,0,1-.12-2C259.56,336.71,259.82,336.49,259.89,336.53Z" style="fill:#263238"></path><path d="M264.87,324.61c-.23.23-1.22-.4-2.52-.83s-2.45-.57-2.49-.9c0-.16.28-.35.81-.43a4.63,4.63,0,0,1,3.83,1.32C264.86,324.16,265,324.49,264.87,324.61Z" style="fill:#263238"></path><path d="M275.46,327.65c-.3.15-.9-.44-1.76-.86s-1.68-.6-1.73-.93c0-.16.21-.34.64-.42a2.74,2.74,0,0,1,1.62.3,2.65,2.65,0,0,1,1.19,1.15C275.61,327.28,275.6,327.57,275.46,327.65Z" style="fill:#263238"></path><path d="M251.88,312.69c3.4-3.79,12.57-7,17.05-4.61l5.4,7.77a7.82,7.82,0,0,1-7.3,3.28c-1.49-.19-3.11-.79-4.39,0s-1.61,2.67-2.88,3.53c-1.76,1.18-4.53-.16-6.09,1.27-.69.62-.93,1.63-1.63,2.24-.93.81-4.11.94-5,.12s-.1-2.65,0-3.77a5.57,5.57,0,0,1,1.38-3.47C249.81,317.08,250.26,314.5,251.88,312.69Z" style="fill:#263238"></path><path d="M249.77,328.6c.27-.56.25-2.21-.27-2.56-1.38-.94-4.13-2.09-5.95,1.69-2.48,5.16,3.21,6.59,3.29,6.45S248.85,330.56,249.77,328.6Z" style="fill:#ffbf9d"></path><path d="M246.21,331.46s-.12,0-.31,0a1.05,1.05,0,0,1-.68-.31,2.49,2.49,0,0,1-.06-2.5,3.22,3.22,0,0,1,.87-1.16,1.17,1.17,0,0,1,1-.37.51.51,0,0,1,.41.51c0,.17-.08.26-.06.28s.15,0,.21-.26a.66.66,0,0,0,0-.43.82.82,0,0,0-.44-.37,1.4,1.4,0,0,0-1.32.35,3.37,3.37,0,0,0-1,1.29,2.59,2.59,0,0,0,.24,2.86,1.06,1.06,0,0,0,.89.26C246.14,331.58,246.22,331.48,246.21,331.46Z" style="fill:#ff9a6c"></path><path d="M273.48,313.61c-.43,2.35,1.66,6.48,2.37,8.76,1.37,4.35,1.46,5.64-1.6,12.75a15.33,15.33,0,0,0,4.62-6.91c1.08-2.82.75-5.53.29-8.38a7.82,7.82,0,0,0-5.68-6.22" style="fill:#263238"></path><path d="M249.22,311.48a6.8,6.8,0,0,0,.8.6c.27.19.59.41,1,.64s.84.52,1.35.77a26.66,26.66,0,0,0,3.72,1.64,32.23,32.23,0,0,0,4.82,1.24,31.36,31.36,0,0,0,5,.38,28.41,28.41,0,0,0,4-.34c.58-.07,1.08-.2,1.53-.29s.83-.2,1.14-.29a6.88,6.88,0,0,0,1-.31,4.64,4.64,0,0,0-1,.18c-.31.07-.69.16-1.15.23s-.95.18-1.52.24a30.75,30.75,0,0,1-4,.27A33.49,33.49,0,0,1,261,316a31.94,31.94,0,0,1-4.77-1.2,30.9,30.9,0,0,1-3.7-1.55c-.53-.24-1-.51-1.37-.72s-.74-.42-1-.59A4.63,4.63,0,0,0,249.22,311.48Z" style="fill:#455a64"></path><path d="M247.06,315a3.32,3.32,0,0,0,.55.41,16.75,16.75,0,0,0,1.61.94,23.44,23.44,0,0,0,5.77,2.07,22.73,22.73,0,0,0,6.12.46,16.51,16.51,0,0,0,1.85-.2,3.46,3.46,0,0,0,.67-.15c0-.06-1,.07-2.53.11a25.86,25.86,0,0,1-11.78-2.51C247.92,315.48,247.1,315,247.06,315Z" style="fill:#455a64"></path><path d="M246.2,311.4s9.15-11.46,23-5.39,10.58,19.2,10.58,19.2Z" style="fill:#CFAE3D"></path><path d="M232,311.48l.3-1,13.89.91,33.66,13.45,9.52,7.72-.51,1.36a278.69,278.69,0,0,1-29.07-9.64C247.19,319.06,232,311.48,232,311.48Z" style="fill:#CFAE3D"></path><path d="M266.17,305.23a3.21,3.21,0,0,1,3.87-1,2.7,2.7,0,0,1,1.44,3.4Z" style="fill:#CFAE3D"></path><path d="M279.88,324.86a7.74,7.74,0,0,1-1.38-.35c-.88-.26-2.14-.66-3.7-1.18-3.11-1-7.38-2.58-12-4.45s-8.79-3.71-11.76-5.1c-1.49-.69-2.69-1.26-3.5-1.68a7.14,7.14,0,0,1-1.25-.69,7.78,7.78,0,0,1,1.33.51l3.57,1.53c3,1.3,7.17,3.08,11.8,4.94s8.88,3.46,11.95,4.59l3.65,1.34A6.7,6.7,0,0,1,279.88,324.86Z" style="fill:#263238"></path><path d="M276.51,311.38c-.07.05-.69-.67-1.85-1.65a23.48,23.48,0,0,0-5-3.21,23.1,23.1,0,0,0-5.62-1.87c-1.5-.28-2.45-.32-2.45-.41a7.58,7.58,0,0,1,2.51.05,18.84,18.84,0,0,1,5.79,1.76,19.48,19.48,0,0,1,5,3.4A7,7,0,0,1,276.51,311.38Z" style="fill:#263238"></path><path d="M289.38,332.57a2.66,2.66,0,0,1-.61-.1l-1.73-.4c-1.5-.37-3.66-.92-6.31-1.67s-5.8-1.69-9.25-2.86c-1.73-.58-3.54-1.22-5.39-1.92s-3.73-1.56-5.67-2.36l-5.65-2.42-5.21-2.34-8.82-4-5.92-2.73-1.6-.77a2.45,2.45,0,0,1-.54-.3,4.52,4.52,0,0,1,.58.21l1.64.68,6,2.58,8.86,3.88,5.23,2.32,5.64,2.4c1.93.8,3.79,1.68,5.65,2.36s3.64,1.35,5.36,1.95c3.44,1.19,6.56,2.17,9.2,3l6.26,1.82,1.7.5A2.5,2.5,0,0,1,289.38,332.57Z" style="fill:#263238"></path><path d="M268,305.37c0,.1-1,.2-2.5.62a18.42,18.42,0,0,0-10,6.9c-.93,1.28-1.37,2.17-1.46,2.12a2.11,2.11,0,0,1,.24-.66,10.72,10.72,0,0,1,.92-1.67,16.57,16.57,0,0,1,10.16-7.05,10.82,10.82,0,0,1,1.89-.27A1.91,1.91,0,0,1,268,305.37Z" style="fill:#263238"></path><path d="M272.9,307.91a6.57,6.57,0,0,1,.83,2,17.45,17.45,0,0,1,.68,5.17,17.23,17.23,0,0,1-.88,5.15,6.25,6.25,0,0,1-.9,2,30,30,0,0,0,1.26-7.12A30.69,30.69,0,0,0,272.9,307.91Z" style="fill:#263238"></path><path d="M246.05,333.93c2.28.57-2.31,4.28-2.44,6.63-.12,2.2,1.95,3.79,3.53,5.34a16.4,16.4,0,0,1,4.69,13.9,7.9,7.9,0,0,1-1.29,3.56,4,4,0,0,1-3.24,1.75c-2.27-.08-3.69-2.44-4.67-4.49q-2.62-5.5-5.26-11c-.83-1.73-1.93-3.67-3.82-4s-4.29,1.19-5.61-.24c-1-1.09-.4-4.26.43-5.48,3.4-5,5.75-9.78,14-10.71l.51.69A3.74,3.74,0,0,0,246.05,333.93Z" style="fill:#263238"></path><path d="M267.87,391.82l-15.58,8.38a9.9,9.9,0,0,0,5.73,2.74c7.63.88,24.27,4,24.27,4l3-10.23Z" style="fill:#ffbf9d"></path></g></svg>