<svg xmlns="http://www.w3.org/2000/svg" viewBox="0 0 750 500"><g id="freepik--background-complete--inject-7"><path d="M692.16,90.94c.55-4-5.06-7.24-9.27-7.58-2-.16-4.1.15-6-.51-4.12-1.44-5.77-6.77-9.8-8.47-3-1.26-6.47-.14-9.38,1.33s-5.8,3.32-9.06,3.53c-2.83.18-5.91-.87-8.39.51-1.85,1-2.82,3.16-4.52,4.42a10.76,10.76,0,0,1-5.91,1.6,16.68,16.68,0,0,0-6.09,1c-1.88.87-3.44,2.86-3,4.89Z" style="fill:#ebebeb"></path><rect x="141.65" y="64.69" width="75.62" height="144.36" transform="translate(-28.81 49.91) rotate(-14.67)" style="fill:#f5f5f5"></rect><rect x="114.29" y="62.75" width="96.18" height="12.08" rx="3.43" transform="matrix(0.97, -0.25, 0.25, 0.97, -12.13, 43.36)" style="fill:#f5f5f5"></rect><path d="M137.68,96c-3.6.43-3-1.62-4.26,1.71l-2.32-14.5A23.09,23.09,0,0,0,115,99.84c-1.78,7.9,1.57,16.84,8.37,21.26s16.63,3.69,22.41-2c3.81-3.76,5.69-9.6,4.11-14.72S143,95.36,137.68,96Z" style="fill:#f5f5f5"></path><path d="M218.65,72.7a23.06,23.06,0,0,0-22.2-6.59l4.78,15.69c-2.73-2.28-.9-2.71-4.25-1.32-4.94,2-7.66,8-6.52,13.28s5.63,9.4,10.8,10.81c7.82,2.13,16.75-2.06,20.51-9.24S224.07,78.72,218.65,72.7Z" style="fill:#f5f5f5"></path><path d="M204.59,64c0,.14-18.6,5.13-41.61,11.16s-41.72,10.8-41.75,10.66,18.59-5.14,41.61-11.16S204.55,63.84,204.59,64Z" style="fill:#e0e0e0"></path><path d="M134.62,103.66a2.87,2.87,0,0,1,.35-1.13,4.67,4.67,0,0,1,2.56-2.18,4.88,4.88,0,0,1,2.47-.23,5,5,0,0,1,2.6,1.37,6.29,6.29,0,0,1,1.7,2.93,6.4,6.4,0,0,1-.23,3.78,8.14,8.14,0,0,1-2.39,3.42,9.89,9.89,0,0,1-4,2,13.45,13.45,0,0,1-4.84.29,10.23,10.23,0,0,1-4.82-1.77,8.15,8.15,0,0,1-3-4.48,11.29,11.29,0,0,1-.07-5.63,14.14,14.14,0,0,1,7.19-9,13.51,13.51,0,0,1,5.79-1.57,14.61,14.61,0,0,1,5.74,1,15.41,15.41,0,0,1,8.06,7.25,16.38,16.38,0,0,1-2.25,17.54,17.2,17.2,0,0,1-5.66,4.31,18.24,18.24,0,0,1-5.13,1.55,17.32,17.32,0,0,1-3.39.16l-.88-.09c-.2,0-.3,0-.29-.05h.3l.87,0a19.59,19.59,0,0,0,3.36-.25,18.87,18.87,0,0,0,5-1.62,16.67,16.67,0,0,0,5.49-4.28,16,16,0,0,0,2.11-17.09,15,15,0,0,0-7.82-7,14.15,14.15,0,0,0-5.53-1,12.86,12.86,0,0,0-5.57,1.51,13.68,13.68,0,0,0-6.94,8.71,11,11,0,0,0,.06,5.38,7.62,7.62,0,0,0,2.81,4.22,9.75,9.75,0,0,0,4.59,1.71,13.21,13.21,0,0,0,4.67-.26,9.59,9.59,0,0,0,3.89-1.91,7.84,7.84,0,0,0,2.3-3.24,6.08,6.08,0,0,0,.26-3.58,6,6,0,0,0-1.58-2.8,4.86,4.86,0,0,0-2.45-1.34,4.73,4.73,0,0,0-4.88,2.22A6.68,6.68,0,0,0,134.62,103.66Z" style="fill:#e0e0e0"></path><path d="M203,85.76a7,7,0,0,0-.92-.72,4.61,4.61,0,0,0-3.21-.53,4.54,4.54,0,0,0-2.13,1,4.81,4.81,0,0,0-1.48,2.36,5.92,5.92,0,0,0,2,6.21,7.78,7.78,0,0,0,3.6,1.7,9.37,9.37,0,0,0,4.32-.24,13.24,13.24,0,0,0,4.2-2.06,9.86,9.86,0,0,0,3.17-3.74,7.67,7.67,0,0,0,.38-5.06A11,11,0,0,0,210.3,80,13.62,13.62,0,0,0,200,75.77a12.78,12.78,0,0,0-5.59,1.41A14.07,14.07,0,0,0,190,80.74a15,15,0,0,0-3.39,9.92,15.64,15.64,0,0,0,3.46,8.91,15.93,15.93,0,0,0,6.75,5,16.94,16.94,0,0,0,6.89,1,18.57,18.57,0,0,0,5.19-1.06,19.78,19.78,0,0,0,3.05-1.42l.74-.46a1,1,0,0,1,.27-.14l-.24.18c-.16.12-.4.3-.72.51a17.39,17.39,0,0,1-3,1.52,18.12,18.12,0,0,1-5.24,1.16,16.92,16.92,0,0,1-7-1,16.18,16.18,0,0,1-7-5,16,16,0,0,1-3.59-9.16,15.4,15.4,0,0,1,3.47-10.27,14.76,14.76,0,0,1,4.5-3.7A13.4,13.4,0,0,1,200,75.25a14.17,14.17,0,0,1,10.71,4.36,11.48,11.48,0,0,1,2.69,4.94,8.12,8.12,0,0,1-.43,5.38,10.16,10.16,0,0,1-3.33,3.91A13.69,13.69,0,0,1,205.26,96a9.94,9.94,0,0,1-4.52.21A8.16,8.16,0,0,1,197,94.35a6.31,6.31,0,0,1-2-3.18,6.18,6.18,0,0,1,0-3.39,5.05,5.05,0,0,1,1.6-2.47,4.88,4.88,0,0,1,5.56-.36A2.85,2.85,0,0,1,203,85.76Z" style="fill:#e0e0e0"></path><path d="M146.46,122.56a1.28,1.28,0,0,1,.49-.09,1.84,1.84,0,0,1,1.32.52c.53.45.61,1.3.87,2.16l.83,3.08c1.24,4.65,3,11.36,5.23,19.66,4.38,16.67,10.45,39.73,17.21,65.44l.07.25-.25.06-4.53,1.19-1.8.47-.26.07-.06-.25C158.71,188.77,152.52,165,148,147.8l-5.24-20.35c-.16-.6-.3-1.17-.44-1.7a2.06,2.06,0,0,1,.11-1.55,1.93,1.93,0,0,1,1-.91c.4-.14.75-.19,1.07-.28l1.44-.35a4.38,4.38,0,0,1,.49-.1s-.16.06-.48.15l-1.43.4c-.31.09-.68.17-1,.3a1.78,1.78,0,0,0-.9.86,1.87,1.87,0,0,0-.08,1.44l.46,1.69,5.4,20.31c4.52,17.19,10.77,40.94,17.69,67.27l-.32-.18,1.81-.47,4.52-1.19-.18.32c-6.7-25.72-12.71-48.8-17.06-65.48l-5.07-19.7c-.3-1.16-.56-2.19-.79-3.09s-.31-1.7-.79-2.12a1.86,1.86,0,0,0-1.25-.55A4.11,4.11,0,0,0,146.46,122.56Z" style="fill:#e0e0e0"></path><path d="M158.2,119.48a1.42,1.42,0,0,1,.48-.08,1.86,1.86,0,0,1,1.33.52c.52.45.61,1.3.87,2.16l.83,3.08c1.24,4.65,3,11.36,5.23,19.66l17.21,65.43.07.26-.26.06-4.52,1.19-1.8.47-.26.06-.06-.25c-6.87-26.35-13.06-50.11-17.54-67.31l-5.24-20.35c-.16-.6-.3-1.17-.44-1.7a2.09,2.09,0,0,1,.11-1.56,1.91,1.91,0,0,1,1-.9c.4-.14.75-.2,1.06-.28l1.45-.35.49-.11-.48.16-1.43.4c-.31.09-.68.16-1,.3a1.76,1.76,0,0,0-.9.85,1.87,1.87,0,0,0-.08,1.44c.15.53.3,1.1.46,1.7,1.28,4.81,3.12,11.74,5.4,20.3,4.52,17.2,10.77,41,17.69,67.28l-.32-.18,1.8-.48,4.53-1.18-.18.32c-6.7-25.72-12.71-48.8-17.06-65.48l-5.07-19.7c-.3-1.16-.56-2.19-.79-3.09s-.31-1.7-.79-2.13a1.84,1.84,0,0,0-1.26-.54C158.37,119.44,158.2,119.5,158.2,119.48Z" style="fill:#e0e0e0"></path><path d="M161.27,83.28a1.34,1.34,0,0,1,.66-.08,1.89,1.89,0,0,1,1.55,1.1c.51,1.66,1.12,4.1,2,7.26,1.67,6.32,4.09,15.45,7.09,26.76,5.95,22.65,14.18,54,23.34,88.86l.07.25-.26.07-4.52,1.18-1.81.48-.25.06-.06-.25c-9.27-35.5-17.63-67.55-23.68-90.74-3-11.59-5.42-21-7.1-27.45-.41-1.62-.78-3.06-1.1-4.31a2,2,0,0,1,.24-1.76,1.92,1.92,0,0,1,1.24-.8l1.94-.48c.44-.11.67-.15.67-.15s-.22.08-.65.2l-1.93.53a1.81,1.81,0,0,0-1.36,2.42c.33,1.25.72,2.68,1.15,4.3,1.71,6.48,4.19,15.84,7.26,27.4l23.82,90.71-.32-.19,1.81-.47,4.52-1.18-.18.31c-9.1-34.87-17.28-66.24-23.19-88.9l-6.94-26.8c-.82-3.16-1.41-5.63-1.87-7.27a1.83,1.83,0,0,0-1.47-1.08A2.48,2.48,0,0,0,161.27,83.28Z" style="fill:#e0e0e0"></path><path d="M173,80.21a1.34,1.34,0,0,1,.66-.08,1.89,1.89,0,0,1,1.55,1.1c.51,1.65,1.12,4.1,2,7.25,1.67,6.33,4.09,15.46,7.09,26.76,6,22.66,14.18,54,23.34,88.87l.06.25-.25.07-4.52,1.18-1.81.47-.25.07-.06-.25c-9.27-35.5-17.63-67.55-23.68-90.75-3-11.58-5.42-21-7.1-27.45l-1.1-4.3a2,2,0,0,1,.23-1.76,2,2,0,0,1,1.25-.8l1.94-.49.67-.14-.66.2-1.93.53a1.81,1.81,0,0,0-1.35,2.42c.33,1.25.71,2.68,1.15,4.29,1.71,6.49,4.19,15.84,7.26,27.41,6.08,23.18,14.5,55.22,23.82,90.71l-.32-.19,1.8-.47,4.53-1.19-.19.32c-9.09-34.87-17.27-66.24-23.19-88.9C181,104,178.64,94.87,177,88.53c-.82-3.15-1.41-5.63-1.87-7.26a1.87,1.87,0,0,0-1.47-1.09A2.16,2.16,0,0,0,173,80.21Z" style="fill:#e0e0e0"></path><path d="M193.42,110.26a1.34,1.34,0,0,1,.48-.08,1.86,1.86,0,0,1,1.33.52c.52.45.6,1.3.87,2.16l.82,3.08,5.24,19.66c4.38,16.67,10.45,39.73,17.21,65.44l.06.25-.25.06-4.53,1.19-1.8.47-.25.07-.07-.26c-6.86-26.34-13.05-50.11-17.54-67.31l-5.24-20.35c-.15-.6-.3-1.17-.43-1.7a2,2,0,0,1,.11-1.55,1.89,1.89,0,0,1,1-.91c.39-.14.74-.19,1.06-.28l1.44-.35.5-.11-.48.16-1.43.4c-.31.09-.68.17-1,.3a1.82,1.82,0,0,0-.91.85,1.87,1.87,0,0,0-.07,1.44c.14.54.3,1.1.46,1.7,1.28,4.81,3.12,11.74,5.4,20.3,4.52,17.2,10.76,41,17.69,67.28l-.32-.18,1.8-.47,4.53-1.19-.19.32c-6.7-25.72-12.71-48.8-17.05-65.48-2.14-8.32-3.88-15-5.08-19.7q-.43-1.74-.78-3.09c-.25-.88-.32-1.7-.79-2.12a1.86,1.86,0,0,0-1.26-.55C193.58,110.23,193.42,110.28,193.42,110.26Z" style="fill:#e0e0e0"></path><path d="M205.16,107.19a1.34,1.34,0,0,1,.48-.08,1.86,1.86,0,0,1,1.33.52c.52.45.6,1.3.86,2.16s.52,1.92.83,3.07c1.24,4.66,3,11.37,5.23,19.67,4.39,16.66,10.46,39.73,17.22,65.43l.06.25-.25.07-4.53,1.19-1.8.47-.25.06-.07-.25c-6.86-26.35-13.06-50.11-17.54-67.32l-5.24-20.34c-.15-.6-.3-1.17-.43-1.7a2,2,0,0,1,.11-1.56,1.91,1.91,0,0,1,1-.9c.39-.14.74-.2,1.06-.29l1.44-.35.5-.1s-.16.06-.49.15l-1.42.41c-.31.09-.68.16-1,.3a1.78,1.78,0,0,0-.91.85,1.87,1.87,0,0,0-.07,1.44c.14.53.29,1.1.45,1.69,1.28,4.82,3.13,11.75,5.41,20.31,4.52,17.19,10.76,40.95,17.69,67.28l-.32-.19,1.8-.47,4.53-1.18-.19.31c-6.7-25.71-12.71-48.8-17-65.47-2.15-8.32-3.88-15-5.08-19.71l-.78-3.08c-.25-.88-.32-1.71-.8-2.13a1.82,1.82,0,0,0-1.25-.54C205.32,107.15,205.16,107.21,205.16,107.19Z" style="fill:#e0e0e0"></path><polygon points="599.9 176.12 524.28 176.12 524.28 42.76 599.9 37.84 599.9 176.12" style="fill:#f5f5f5"></polygon><path d="M533.79,47.49a1.4,1.4,0,0,1,.66.09A1.88,1.88,0,0,1,535.67,49c.07,1.73.05,4.25.08,7.51,0,6.55,0,16,.08,27.69,0,23.42,0,55.84.08,91.88v.26h-7.06v-.26c0-36.69,0-69.82.07-93.78,0-12,.07-21.65.09-28.36,0-1.67,0-3.15,0-4.44a2,2,0,0,1,.67-1.64,1.93,1.93,0,0,1,1.41-.46l2,0,.68,0-.68,0-2,0a1.82,1.82,0,0,0-1.93,2q0,1.93,0,4.44c0,6.71,0,16.39.08,28.36,0,24,.05,57.09.08,93.78l-.26-.26h6.54l-.26.26c0-36,.06-68.46.08-91.88,0-11.7.06-21.14.08-27.69,0-3.25.06-5.8,0-7.5a1.81,1.81,0,0,0-1.14-1.42A2.16,2.16,0,0,0,533.79,47.49Z" style="fill:#e0e0e0"></path><path d="M545.93,47.49a1.4,1.4,0,0,1,.66.09A1.88,1.88,0,0,1,547.81,49c.07,1.73.05,4.25.07,7.51,0,6.55,0,16,.09,27.69,0,23.42,0,55.84.07,91.88v.26H541v-.26c0-36.69.06-69.82.08-93.78,0-12,.06-21.65.08-28.36,0-1.67,0-3.15,0-4.44a2,2,0,0,1,.68-1.64,1.9,1.9,0,0,1,1.4-.46l2,0,.68,0s-.23,0-.68,0l-2,0a1.81,1.81,0,0,0-1.92,2c0,1.29,0,2.77,0,4.44,0,6.71,0,16.39.08,28.36,0,24,.05,57.09.08,93.78l-.26-.26h6.54l-.26.26c0-36,.06-68.46.08-91.88,0-11.7.07-21.14.08-27.69,0-3.25.06-5.8,0-7.5a1.84,1.84,0,0,0-1.14-1.42A2.29,2.29,0,0,0,545.93,47.49Z" style="fill:#e0e0e0"></path><path d="M558.06,47.49a1.4,1.4,0,0,1,.66.09A1.88,1.88,0,0,1,559.94,49c.07,1.73,0,4.25.08,7.51,0,6.55.05,16,.08,27.69,0,23.42,0,55.84.08,91.88v.26h-7.07v-.26c0-36.69,0-69.82.07-93.78,0-12,.07-21.65.09-28.36,0-1.67,0-3.15,0-4.44A2,2,0,0,1,554,47.9a1.93,1.93,0,0,1,1.41-.46l2,0,.68,0s-.23,0-.68,0l-2,0a1.82,1.82,0,0,0-1.93,2q0,1.93,0,4.44c0,6.71,0,16.39.08,28.36,0,24,.05,57.09.08,93.78l-.26-.26h6.54l-.26.26c0-36,.06-68.46.08-91.88,0-11.7.06-21.14.08-27.69,0-3.25.06-5.8,0-7.5a1.81,1.81,0,0,0-1.14-1.42A2.16,2.16,0,0,0,558.06,47.49Z" style="fill:#e0e0e0"></path><path d="M570.2,47.49a1.36,1.36,0,0,1,.65.09A1.87,1.87,0,0,1,572.08,49c.07,1.73,0,4.25.07,7.51,0,6.55.05,16,.08,27.69,0,23.42,0,55.84.08,91.88v.26h-7.06v-.26c0-36.69.06-69.82.08-93.78,0-12,.06-21.65.08-28.36,0-1.67,0-3.15,0-4.44a2,2,0,0,1,.68-1.64,1.9,1.9,0,0,1,1.4-.46l2,0,.69,0s-.24,0-.69,0l-2,0a1.81,1.81,0,0,0-1.92,2c0,1.29,0,2.77,0,4.44,0,6.71,0,16.39.08,28.36,0,24,0,57.09.08,93.78l-.26-.26h6.54l-.26.26c0-36,.06-68.46.08-91.88,0-11.7.06-21.14.08-27.69,0-3.25.06-5.8,0-7.5a1.84,1.84,0,0,0-1.14-1.42A2.29,2.29,0,0,0,570.2,47.49Z" style="fill:#e0e0e0"></path><path d="M582.33,47.49a1.4,1.4,0,0,1,.66.09A1.88,1.88,0,0,1,584.21,49c.07,1.73,0,4.25.08,7.51,0,6.55,0,16,.08,27.69,0,23.42,0,55.84.08,91.88v.26h-7.07v-.26c0-36.69.06-69.82.08-93.78,0-12,.06-21.65.08-28.36q0-2.5,0-4.44a2,2,0,0,1,.67-1.64,1.93,1.93,0,0,1,1.41-.46l2,0,.68,0s-.23,0-.68,0l-2,0a1.82,1.82,0,0,0-1.93,2c0,1.29,0,2.77,0,4.44,0,6.71,0,16.39.09,28.36,0,24,0,57.09.07,93.78l-.26-.26h6.55l-.26.26c0-36,.06-68.46.08-91.88,0-11.7.06-21.14.08-27.69,0-3.25,0-5.8,0-7.5A1.83,1.83,0,0,0,583,47.63,2.22,2.22,0,0,0,582.33,47.49Z" style="fill:#e0e0e0"></path><path d="M594.46,47.49a1.4,1.4,0,0,1,.66.09A1.9,1.9,0,0,1,596.35,49c.07,1.73,0,4.25.07,7.51,0,6.55.05,16,.08,27.69,0,23.42,0,55.84.08,91.88v.26h-7.06v-.26c0-36.69.06-69.82.08-93.78,0-12,.06-21.65.08-28.36,0-1.67,0-3.15,0-4.44a2,2,0,0,1,.67-1.64,1.93,1.93,0,0,1,1.41-.46l2,0,.68,0s-.23,0-.68,0l-2,0a1.81,1.81,0,0,0-1.92,2c0,1.29,0,2.77,0,4.44,0,6.71,0,16.39.08,28.36,0,24,0,57.09.08,93.78l-.26-.26h6.54l-.26.26c0-36,.06-68.46.08-91.88,0-11.7.06-21.14.08-27.69,0-3.25.06-5.8,0-7.5a1.82,1.82,0,0,0-1.13-1.42A2.24,2.24,0,0,0,594.46,47.49Z" style="fill:#e0e0e0"></path><path d="M729.05,247.22c0,.14-158.53.26-354,.26S21,247.36,21,247.22,179.44,247,375,247,729.05,247.08,729.05,247.22Z" style="fill:#e0e0e0"></path><polygon points="667.5 247.22 422.61 247.22 422.61 156.13 693.19 156.13 693.19 217.23 667.5 217.15 667.5 247.22" style="fill:#f5f5f5"></polygon><rect x="393.7" y="187.08" width="36.35" height="60.14" style="fill:#f5f5f5"></rect><rect x="360.05" y="217.15" width="36.35" height="30.07" style="fill:#f5f5f5"></rect><rect x="684.58" y="186.95" width="36.35" height="30.07" style="fill:#f5f5f5"></rect><path d="M719.23,187c0,.14-66.47.26-148.46.26S422.3,187.09,422.3,187s66.46-.26,148.47-.26S719.23,186.81,719.23,187Z" style="fill:#e0e0e0"></path><path d="M719.23,217c0,.14-80.41.26-179.58.26s-179.6-.12-179.6-.26,80.4-.26,179.6-.26S719.23,216.87,719.23,217Z" style="fill:#e0e0e0"></path><path d="M430,247.22c-.14,0-.26-6.73-.26-15s.12-15,.26-15,.26,6.73.26,15S430.14,247.22,430,247.22Z" style="fill:#e0e0e0"></path><path d="M489.37,247.22c-.14,0-.26-6.73-.26-15s.12-15,.26-15,.26,6.73.26,15S489.51,247.22,489.37,247.22Z" style="fill:#e0e0e0"></path><path d="M548.75,247.22c-.15,0-.26-6.73-.26-15s.11-15,.26-15,.26,6.73.26,15S548.89,247.22,548.75,247.22Z" style="fill:#e0e0e0"></path><path d="M549.06,187.16c-.14,0-.26-6.73-.26-15s.12-15,.26-15,.26,6.73.26,15S549.21,187.16,549.06,187.16Z" style="fill:#e0e0e0"></path><path d="M623.67,187.16c-.14,0-.26-6.73-.26-15s.12-15,.26-15,.26,6.73.26,15S623.81,187.16,623.67,187.16Z" style="fill:#e0e0e0"></path><path d="M608.12,247.22c-.14,0-.26-6.73-.26-15s.12-15,.26-15,.26,6.73.26,15S608.27,247.22,608.12,247.22Z" style="fill:#e0e0e0"></path><path d="M456.55,217.23c-.14,0-.26-6.73-.26-15s.12-15,.26-15,.26,6.73.26,15S456.7,217.23,456.55,217.23Z" style="fill:#e0e0e0"></path><path d="M526,217.23c-.14,0-.26-6.73-.26-15s.12-15,.26-15,.26,6.73.26,15S526.11,217.23,526,217.23Z" style="fill:#e0e0e0"></path><path d="M595.37,217.23c-.14,0-.26-6.73-.26-15s.12-15,.26-15,.27,6.73.27,15S595.52,217.23,595.37,217.23Z" style="fill:#e0e0e0"></path><path d="M662.23,217.23c-.14,0-.26-6.73-.26-15s.12-15,.26-15,.26,6.73.26,15S662.37,217.23,662.23,217.23Z" style="fill:#e0e0e0"></path><path d="M483.11,187.25c-.14,0-.26-6.74-.26-15s.12-15,.26-15,.26,6.73.26,15S483.26,187.25,483.11,187.25Z" style="fill:#e0e0e0"></path><polygon points="345.11 247.22 100.22 247.22 100.22 186.69 370.8 186.69 370.8 217.28 345.11 217.15 345.11 247.22" style="fill:#f5f5f5"></polygon><rect x="71.31" y="187.08" width="36.35" height="60.14" style="fill:#f5f5f5"></rect><rect x="37.66" y="217.15" width="36.35" height="30.07" style="fill:#f5f5f5"></rect><rect x="362.19" y="186.95" width="36.35" height="30.07" style="fill:#f5f5f5"></rect><path d="M396.84,187c0,.14-66.47.26-148.45.26S99.91,187.09,99.91,187s66.46-.26,148.48-.26S396.84,186.81,396.84,187Z" style="fill:#e0e0e0"></path><path d="M396.84,217c0,.14-80.41.26-179.58.26s-179.6-.12-179.6-.26,80.4-.26,179.6-.26S396.84,216.87,396.84,217Z" style="fill:#e0e0e0"></path><path d="M107.6,247.22c-.14,0-.26-6.73-.26-15s.12-15,.26-15,.26,6.73.26,15S107.75,247.22,107.6,247.22Z" style="fill:#e0e0e0"></path><path d="M167,247.22c-.14,0-.26-6.73-.26-15s.12-15,.26-15,.26,6.73.26,15S167.12,247.22,167,247.22Z" style="fill:#e0e0e0"></path><path d="M226.36,247.22c-.15,0-.26-6.73-.26-15s.11-15,.26-15,.26,6.73.26,15S226.5,247.22,226.36,247.22Z" style="fill:#e0e0e0"></path><path d="M285.73,247.22c-.14,0-.26-6.73-.26-15s.12-15,.26-15,.26,6.73.26,15S285.88,247.22,285.73,247.22Z" style="fill:#e0e0e0"></path><path d="M134.16,217.23c-.14,0-.26-6.73-.26-15s.12-15,.26-15,.26,6.73.26,15S134.31,217.23,134.16,217.23Z" style="fill:#e0e0e0"></path><path d="M203.57,217.23c-.14,0-.26-6.73-.26-15s.12-15,.26-15,.27,6.73.27,15S203.72,217.23,203.57,217.23Z" style="fill:#e0e0e0"></path><path d="M273,217.23c-.15,0-.26-6.73-.26-15s.11-15,.26-15,.26,6.73.26,15S273.13,217.23,273,217.23Z" style="fill:#e0e0e0"></path><path d="M339.84,217.23c-.14,0-.26-6.73-.26-15s.12-15,.26-15,.26,6.73.26,15S340,217.23,339.84,217.23Z" style="fill:#e0e0e0"></path><path d="M345.39,73.41c.63-4.57-5.82-8.33-10.66-8.72-2.31-.18-4.71.17-6.9-.59-4.74-1.66-6.63-7.78-11.26-9.73-3.46-1.46-7.44-.16-10.79,1.53s-6.67,3.81-10.41,4.05c-3.26.21-6.8-1-9.65.59-2.12,1.18-3.23,3.63-5.19,5.08s-4.42,1.71-6.79,1.84-4.84.15-7,1.14-4,3.28-3.51,5.62Z" style="fill:#ebebeb"></path><path d="M417.66,113.33c.55-4-5.06-7.24-9.27-7.58-2-.16-4.1.14-6-.52-4.13-1.44-5.77-6.76-9.8-8.46-3-1.27-6.47-.14-9.39,1.33s-5.79,3.31-9.05,3.52c-2.84.18-5.91-.87-8.39.52-1.85,1-2.82,3.16-4.52,4.41a10.76,10.76,0,0,1-5.91,1.6,16.82,16.82,0,0,0-6.09,1c-1.88.86-3.44,2.85-3.05,4.88Z" style="fill:#f5f5f5"></path><path d="M105.47,141.73c.52-3.79-4.84-6.92-8.86-7.24-1.92-.15-3.92.14-5.74-.49-3.94-1.38-5.51-6.47-9.36-8.09-2.87-1.21-6.18-.13-9,1.27s-5.54,3.17-8.65,3.37c-2.71.17-5.65-.84-8,.49-1.76,1-2.69,3-4.31,4.22a10.38,10.38,0,0,1-5.65,1.53,16.06,16.06,0,0,0-5.82,1c-1.8.82-3.28,2.72-2.91,4.67Z" style="fill:#f5f5f5"></path><path d="M503.52,80c.52-3.79-4.84-6.92-8.86-7.24-1.92-.16-3.92.14-5.74-.5-3.94-1.37-5.51-6.46-9.35-8.08-2.88-1.21-6.19-.13-9,1.27s-5.54,3.17-8.66,3.36c-2.71.18-5.65-.83-8,.5-1.76,1-2.69,3-4.31,4.22A10.38,10.38,0,0,1,444,75a15.64,15.64,0,0,0-5.82,1c-1.79.82-3.28,2.72-2.91,4.67Z" style="fill:#f5f5f5"></path></g><g id="freepik--Pick--inject-7"><path d="M105.31,332.49H244.43a3,3,0,0,1,3,3v2a3,3,0,0,1-3,3H105.31a0,0,0,0,1,0,0v-8A0,0,0,0,1,105.31,332.49Z" transform="translate(317.46 -16.24) rotate(49.46)" style="fill:#455a64"></path><path d="M194.09,255.15c1.06-.22-79.33-3.05-103.81,84.65,0,0,11.58-29.72,39.7-50.25,2.71,3.34,9.44,11,9.44,11l7-5.95-8.68-11.14C148.54,275.3,171.21,259.89,194.09,255.15Z" style="fill:#e0e0e0"></path><path d="M194.09,255.15s-.37.11-1.11.29l-3.24.8a112.65,112.65,0,0,0-12.07,4.11c-10.23,4.1-24.37,11.63-39.82,23.29l0-.29,8.69,11.14.13.17-.16.14-7,5.95-.17.15-.15-.17-9.45-11,.33,0a114.18,114.18,0,0,0-19,17.62c-1.46,1.71-2.94,3.43-4.31,5.26s-2.75,3.66-4.11,5.54a136.75,136.75,0,0,0-7.42,11.94,95.3,95.3,0,0,0-4.77,9.78l-.5-.16a139,139,0,0,1,10.74-27.35A111.07,111.07,0,0,1,116.26,290a102.06,102.06,0,0,1,18.42-16.19,105.34,105.34,0,0,1,18.69-10.19,111,111,0,0,1,29.57-7.92c3.59-.44,6.39-.59,8.28-.63a14.24,14.24,0,0,1,2.87.08,4.78,4.78,0,0,0-.71,0c-.49,0-1.21,0-2.15,0-1.89.07-4.69.25-8.26.72a113.23,113.23,0,0,0-29.46,8.05,105.92,105.92,0,0,0-18.6,10.22,101.92,101.92,0,0,0-18.3,16.15,111.17,111.17,0,0,0-15.39,22.31,138.58,138.58,0,0,0-10.69,27.25L90,339.7a95.53,95.53,0,0,1,4.8-9.84,140.44,140.44,0,0,1,7.46-12c1.36-1.88,2.68-3.78,4.12-5.56s2.86-3.56,4.33-5.27a114.3,114.3,0,0,1,19.09-17.68l.18-.14.15.18,9.43,11-.33,0,7-5.94,0,.31-8.66-11.16-.13-.16.17-.13c15.51-11.65,29.7-19.14,40-23.18a106.43,106.43,0,0,1,12.13-4l3.26-.74Z" style="fill:#263238"></path></g><g id="freepik--Plant--inject-7"><path d="M31.94,294.59a3.58,3.58,0,0,1,1,.07,9.64,9.64,0,0,1,1.17.19c.45.11,1,.2,1.53.38a22.6,22.6,0,0,1,3.84,1.5,25.83,25.83,0,0,1,4.24,2.73A25.55,25.55,0,0,1,47.31,303a22.54,22.54,0,0,1,2.28,3.43,15.26,15.26,0,0,1,.7,1.41,9,9,0,0,1,.44,1.11,3.23,3.23,0,0,1,.28,1c-.09,0-.57-1.32-1.74-3.31a25.54,25.54,0,0,0-2.33-3.3,27.7,27.7,0,0,0-3.53-3.47,27.69,27.69,0,0,0-4.13-2.7,26.16,26.16,0,0,0-3.72-1.58C33.36,294.87,31.93,294.69,31.94,294.59Z" style="fill:#263238"></path><path d="M51.29,284.42c.08,0,.06,1.46.17,3.81a71.09,71.09,0,0,0,1,9.12,72.11,72.11,0,0,0,2.19,8.91c.7,2.24,1.22,3.61,1.14,3.64a4.1,4.1,0,0,1-.46-.92c-.28-.6-.63-1.49-1-2.6a56.2,56.2,0,0,1-2.35-8.94,55.49,55.49,0,0,1-.84-9.2c0-1.18,0-2.14.07-2.8A3.72,3.72,0,0,1,51.29,284.42Z" style="fill:#263238"></path><path d="M65.65,292.21c.06.07-.72.84-1.78,2.26a23,23,0,0,0-4.52,12.76c-.07,1.76,0,2.85,0,2.87a2.08,2.08,0,0,1-.17-.77,13.22,13.22,0,0,1-.16-2.11,20.53,20.53,0,0,1,4.6-13A15.9,15.9,0,0,1,65,292.69C65.41,292.36,65.62,292.19,65.65,292.21Z" style="fill:#263238"></path></g><g id="freepik--Rock--inject-7"><polygon points="699.26 291.15 683.89 282.39 656.89 292.23 635.12 310.12 714.83 310.12 699.26 291.15" style="fill:#f5f5f5"></polygon><polygon points="635.12 310.12 662.75 294.05 699.26 291.15 683.27 281.69 656.89 292.23 635.12 310.12" style="fill:#e0e0e0"></polygon><polygon points="675.1 310.16 688.65 301 701.25 300.1 690.71 302.44 685.45 310.12 675.1 310.16" style="fill:#e0e0e0"></polygon><path d="M701.68,299.91a5.9,5.9,0,0,1-1,.13l-2.75.25-9.27.72.08,0-1.52,1c-3.39,2.33-6.48,4.42-8.72,5.92l-2.67,1.76-.73.46q-.26.16-.27.15s.07-.08.23-.2l.7-.52,2.61-1.85c2.2-1.55,5.27-3.67,8.66-6,.52-.35,1-.7,1.52-1l0,0h0l9.28-.61,2.76-.15A7.78,7.78,0,0,1,701.68,299.91Z" style="fill:#263238"></path><path d="M699.22,291.1l.28.32.82,1,3.16,3.77c2.74,3.28,6.72,8,11.66,14l.1.11H634.83l.22-.18,21.73-17.8h0l26.33-10.6h.06l11.83,7,3.13,1.85.8.48.27.17-.28-.16-.82-.46L695,288.65l-11.86-6.91h.06l-26.31,10.64h0L635.18,310.2l-.06-.18H650l65.12.07-.06.12-11.61-14-3.13-3.79-.8-1Z" style="fill:#263238"></path></g><g id="freepik--Floor--inject-7"><path d="M644.42,275c0,.14-123.55.26-275.92.26S92.55,275.12,92.55,275s123.52-.27,276-.27S644.42,274.83,644.42,275Z" style="fill:#263238"></path><polygon points="92.35 310.78 88.74 310.73 87.29 271.98 84.06 265.62 95.04 265.62 92.69 272.08 92.35 310.78" style="fill:#e0e0e0"></polygon><path d="M92.35,310.78a1.07,1.07,0,0,1,0-.21c0-.15,0-.34,0-.57,0-.53,0-1.26,0-2.18v-8.09c0-6.89.08-16.52.13-27.65v0l0,0c.74-2.06,1.53-4.24,2.34-6.47l.24.35h-11l.23-.38,3.22,6.36,0,.05V272c.66,17.92,1.14,32.5,1.29,38.76l-.09-.09,2.67.09.69,0a.77.77,0,0,1,.25,0h-.22l-.67,0H88.65v-.09c-.32-6.25-.93-20.82-1.62-38.74l0,.1-3.24-6.35-.19-.38H95.41l-.13.35-2.35,6.46v-.09c-.14,11.2-.27,20.89-.36,27.83-.06,3.39-.11,6.11-.14,8,0,.89,0,1.6-.06,2.12A6.29,6.29,0,0,1,92.35,310.78Z" style="fill:#263238"></path><polygon points="647.2 309.83 643.53 309.83 642.02 271.98 638.6 265.62 650.23 265.62 647.75 272.08 647.2 309.83" style="fill:#e0e0e0"></polygon><path d="M647.2,309.83a.8.8,0,0,1,0-.2V307c0-1.88,0-4.55,0-7.88.07-6.72.17-16.12.28-27V272l0,0,2.47-6.46.24.35H638.6l.23-.38,3.42,6.36,0,.05V272c.68,17.45,1.18,31.64,1.35,37.86l-.09-.09,2.7.05.71,0,.25,0-.22,0-.68,0-2.76.06h-.09v-.09c-.33-6.22-1-20.4-1.67-37.85l0,.11c-1.11-2.06-2.26-4.18-3.43-6.36l-.21-.38h12.45l-.14.35c-.85,2.23-1.69,4.4-2.49,6.46l0-.08c-.21,10.94-.39,20.39-.52,27.15-.07,3.31-.14,6-.18,7.83q0,1.31-.06,2.07A6.53,6.53,0,0,1,647.2,309.83Z" style="fill:#263238"></path><polygon points="727.74 310.48 591.6 309.72 572.45 376.33 513.72 400.25 490.14 386.25 469.17 401.41 155.65 401.41 121.06 310.9 20.55 309.72 21.88 474.86 27.77 474.88 725.75 474.88 727.74 310.48" style="fill:#ad5d52"></polygon><g style="opacity:0.30000000000000004"><path d="M577.9,357.37s9.71-4.76,44,14.09,69.37,12.51,77,8.62A133.58,133.58,0,0,1,717.27,373v7.09s-18.75,5.17-36.9,11.93-44.19-5.25-61.7-14.63-46.22-1.05-46.22-1.05Z" style="fill:#fff"></path></g><path d="M546.14,360.57c-2-6.47,6.54-17.14,6.15-18.74L511.61,337c0,.53.7,14.26-1.76,17.79s-20.44,11.29-18.16,32.1c0,0,21.85,13.86,22,13.33s40.44-16.47,40.44-16.47C555.79,373.29,552.89,368.64,546.14,360.57Z" style="fill:#455a64"></path><ellipse cx="531.9" cy="338.86" rx="7.35" ry="20.6" transform="translate(119.92 816.38) rotate(-81.71)" style="fill:#455a64"></ellipse><g style="opacity:0.30000000000000004"><path d="M550.41,341.29c-.4,2.79-9,3.85-19.11,2.37s-18.06-4.93-17.65-7.72,9-3.85,19.12-2.37S550.82,338.51,550.41,341.29Z"></path></g><path d="M540.49,381.91a13.25,13.25,0,0,0,3.53-1.46,10.4,10.4,0,0,0,3-2.83,9,9,0,0,0,.69-9.51,10.2,10.2,0,0,0-2.51-3.24,13.7,13.7,0,0,0-3.27-1.95,3.13,3.13,0,0,1,1,.25,8.7,8.7,0,0,1,2.49,1.42,10.17,10.17,0,0,1,2.7,3.3,9.59,9.59,0,0,1,1.1,5.11,9.71,9.71,0,0,1-1.83,4.89,10.21,10.21,0,0,1-3.15,2.88,8.61,8.61,0,0,1-2.68,1A2.93,2.93,0,0,1,540.49,381.91Z" style="fill:#263238"></path><path d="M512.26,345.36a9.5,9.5,0,0,0-9.49,4.37c-1.9,3.18-1.25,8.42,1,11.34l4.31-3a5.3,5.3,0,0,1-.73-5.2c1.26-2.74,4.89-1.48,4.89-1.48Z" style="fill:#455a64"></path><path d="M552.11,343a1.61,1.61,0,0,1-.3.34,7.14,7.14,0,0,1-1,.83,13.73,13.73,0,0,1-4.3,2,28.09,28.09,0,0,1-7,.91,57.15,57.15,0,0,1-8.59-.61,50.27,50.27,0,0,1-8.39-1.91,32.85,32.85,0,0,1-6.48-2.75,12.11,12.11,0,0,1-3.57-3.14,7.24,7.24,0,0,1-.68-1.1,1.49,1.49,0,0,1-.17-.42s.31.54,1,1.4a12.82,12.82,0,0,0,3.59,2.94,34.63,34.63,0,0,0,6.44,2.61,51.7,51.7,0,0,0,8.33,1.85,60.59,60.59,0,0,0,8.5.65,28.71,28.71,0,0,0,6.89-.79,14.82,14.82,0,0,0,4.29-1.81,11.94,11.94,0,0,0,1-.75A1.82,1.82,0,0,1,552.11,343Z" style="fill:#263238"></path><path d="M547.46,351.83s-.07.11-.26.3a5.29,5.29,0,0,1-.87.74,12.11,12.11,0,0,1-3.81,1.79,24.51,24.51,0,0,1-6.18.81,49,49,0,0,1-7.61-.54,43,43,0,0,1-7.43-1.69,28.85,28.85,0,0,1-5.74-2.44A10.74,10.74,0,0,1,512.4,348a7,7,0,0,1-.6-1,1.19,1.19,0,0,1-.14-.37s.28.47.9,1.23a11.39,11.39,0,0,0,3.19,2.59,29.82,29.82,0,0,0,5.69,2.3,46.6,46.6,0,0,0,7.37,1.64,53.67,53.67,0,0,0,7.52.57,25.61,25.61,0,0,0,6.09-.69,13.2,13.2,0,0,0,3.8-1.59,9.72,9.72,0,0,0,.91-.66C547.34,351.89,547.45,351.81,547.46,351.83Z" style="fill:#263238"></path><path d="M546.88,354a1.56,1.56,0,0,1-.26.3,5.47,5.47,0,0,1-.85.74,11.94,11.94,0,0,1-3.74,1.79,24.33,24.33,0,0,1-6.1.82,48.91,48.91,0,0,1-7.5-.55,42.89,42.89,0,0,1-7.33-1.7,28.53,28.53,0,0,1-5.64-2.45,10.64,10.64,0,0,1-3.08-2.78,7.1,7.1,0,0,1-.58-1,1.19,1.19,0,0,1-.14-.37s.28.47.88,1.22a11.13,11.13,0,0,0,3.11,2.58,29.31,29.31,0,0,0,5.6,2.31,45.13,45.13,0,0,0,7.26,1.65,53.66,53.66,0,0,0,7.41.58,25.44,25.44,0,0,0,6-.7,12.77,12.77,0,0,0,3.72-1.6,7.19,7.19,0,0,0,.9-.65A1.13,1.13,0,0,1,546.88,354Z" style="fill:#263238"></path><g style="opacity:0.2"><path d="M541.67,371.33c-.56-1.77-2.17-3.29-4-3.11l-.1.66c.09,1,1.15,1.54,1.76,2.33a2.9,2.9,0,0,1-.15,3.62c-.27.3-.6.54-.85.85a1.18,1.18,0,0,0-.28,1.12,1.06,1.06,0,0,0,1.23.55,2.31,2.31,0,0,0,1.17-.84A5.6,5.6,0,0,0,541.67,371.33Z"></path></g><path d="M537.85,377.9a11.27,11.27,0,0,0,1.91-1.13,5,5,0,0,0,1.81-4.64,4.48,4.48,0,0,0-1.22-2.52,4.74,4.74,0,0,0-2-1.2,7.76,7.76,0,0,0-2.19-.19,3.14,3.14,0,0,1,2.29-.16,4.7,4.7,0,0,1,3.62,4,5.17,5.17,0,0,1-2.09,5A3.55,3.55,0,0,1,537.85,377.9Z" style="fill:#263238"></path><g style="opacity:0.2"><path d="M503.33,360.35a5.57,5.57,0,0,1-.72-1.33l4.52-2.93a8.54,8.54,0,0,0,.5,1.25Z"></path></g><g style="opacity:0.2"><path d="M510.37,345.24a45.08,45.08,0,0,1,0,5.87l.9.07s.7-5.08.68-5.92C512,345.26,511.58,345.24,510.37,345.24Z"></path></g><path d="M511.52,339.47a7.13,7.13,0,0,1,.24,1.4c.12.91.27,2.22.34,3.86a23,23,0,0,1-.42,5.75,13.27,13.27,0,0,1-3.12,6.33,16.45,16.45,0,0,1-2.87,2.3c-1,.65-1.92,1.26-2.76,1.92a25.59,25.59,0,0,0-4.06,4c-2,2.52-3.06,4.27-3.15,4.22a6.87,6.87,0,0,1,.68-1.25,29.78,29.78,0,0,1,2.18-3.2,25,25,0,0,1,4.05-4.1c1.68-1.38,3.87-2.44,5.55-4.2a13,13,0,0,0,3-6.08,23.33,23.33,0,0,0,.52-5.63c0-1.62-.12-2.94-.17-3.85A9.54,9.54,0,0,1,511.52,339.47Z" style="fill:#263238"></path><g style="opacity:0.2"><path d="M508.45,363c-.54-1.08-1.77-1.59-3.42-.72h0a25,25,0,0,0-10.29,17.11,9.05,9.05,0,0,0,.28,4.3,4.1,4.1,0,0,0,3.08,2.77,4.15,4.15,0,0,0,4-2.27,9.31,9.31,0,0,0,.89-4.76,33.13,33.13,0,0,1,0-4.88,10.19,10.19,0,0,1,2.47-5.48,29.36,29.36,0,0,0,2.47-2.65A3.5,3.5,0,0,0,508.45,363Z" style="fill:#fff"></path></g><path d="M513.58,342a7.39,7.39,0,0,1,.37,2.29,21.47,21.47,0,0,1-.38,5.62,21.69,21.69,0,0,1-1.81,5.32,7.11,7.11,0,0,1-1.24,2,39.27,39.27,0,0,0,2.54-7.4A39.86,39.86,0,0,0,513.58,342Z" style="fill:#fff"></path><path d="M514.18,333.82c.08.13-.58.63-.93,1.54s-.23,1.72-.37,1.76-.55-.86-.11-1.95S514.14,333.68,514.18,333.82Z" style="fill:#fff"></path><path d="M505.15,349c.09.13-.87.84-1.56,2.07s-.85,2.41-1,2.4a3.34,3.34,0,0,1,.55-2.65C503.91,349.46,505.1,348.89,505.15,349Z" style="fill:#fff"></path><path d="M497.29,369.82a31.44,31.44,0,0,0-3,7.48,32,32,0,0,0-.45,8,7.61,7.61,0,0,1-.45-2.36,19.32,19.32,0,0,1,.39-5.79,19.77,19.77,0,0,1,2.06-5.42A7.33,7.33,0,0,1,497.29,369.82Z" style="fill:#fff"></path><circle cx="583.76" cy="396.99" r="4.42" style="fill:#934741"></circle><circle cx="254.03" cy="409.61" r="4.42" style="fill:#934741"></circle><path d="M603.79,388a2.64,2.64,0,1,1-2.64-2.64A2.64,2.64,0,0,1,603.79,388Z" style="fill:#934741"></path><circle cx="386.48" cy="456.58" r="4.42" style="fill:#934741"></circle><path d="M406.52,447.56a2.64,2.64,0,1,1-2.64-2.64A2.64,2.64,0,0,1,406.52,447.56Z" style="fill:#934741"></path><path d="M171.27,457.43a2.64,2.64,0,1,1-2.64-2.64A2.64,2.64,0,0,1,171.27,457.43Z" style="fill:#934741"></path><polygon points="617.01 342.37 628.94 344.38 638.63 332.71 629.15 325.26 612.07 331.16 617.01 342.37" style="fill:#934741"></polygon><polygon points="92.39 397.33 104.33 399.34 114.01 387.67 104.54 380.22 87.45 386.12 92.39 397.33" style="fill:#934741"></polygon><polygon points="697.26 397.42 698.98 403.53 706.68 405.52 708.1 399.36 701.48 392.57 697.26 397.42" style="fill:#934741"></polygon><polygon points="638.63 351.38 646.92 360.19 666.13 362.37 674.21 348.74 656.42 343.79 638.63 351.38" style="fill:#934741"></polygon><polygon points="43.7 363.45 51.99 372.26 71.21 374.44 79.28 360.81 61.49 355.85 43.7 363.45" style="fill:#934741"></polygon><path d="M623.18,355.6c.27,1,1,5.25,1,5.25h3.73l4-2.63Z" style="fill:#934741"></path><path d="M86.43,366.21c.27,1,1,5.25,1,5.25h3.73l4-2.63Z" style="fill:#934741"></path><path d="M21.88,414s48.32,1.55,75.35,5,87.73,3.91,105.17,4.53,74.91-5.54,96.83-3,98,3.9,121.78,2.92S464.8,417.1,470,417.5s80.13,2.42,107.6,3.12,42.06-1.27,60-3.14,88.36-.57,88.36-.57v18.81l-202.81-7.63L21.56,435.72Z" style="fill:#934741"></path><path d="M21.81,465.75s52.74-2.83,80.35.61,89.59,3.92,107.4,4.54,76.49-5.54,98.87-3,100.09,3.9,124.36,2.92,44.72-6.35,50-6,81.82,2.43,109.88,3.13,43-1.27,61.21-3.15,71.54-.21,71.62,1.55.38,8.5.38,8.5h-704Z" style="fill:#934741"></path><g style="opacity:0.30000000000000004"><path d="M20.55,332.61s34,2.31,50.87,6.86,36.44,18.34,44.88,18.78,21.94-2.4,21.94-2.4L143.63,370s-20.24-1.91-32.45-5.72-22.32-14.12-30.71-16-59.57,4.92-59.57,4.92Z" style="fill:#fff"></path></g><path d="M691,341.66l-1.86,1.17s-1.78,6.25-1.7,6.4-8.5,6-7.81,8.61c.36,1.33.88,3.94,1.3,6.16a7.2,7.2,0,0,0,4.41,5.35L691,371.6a5.67,5.67,0,0,0,5.35-.61c2.71-1.88,6.71-4.77,7.5-5.92,1.22-1.77,2-9.26,2-9.54,0,0,0-.1,0-.22a14.56,14.56,0,0,0-9.16-11.46Z" style="fill:#934741"></path><path d="M688.79,352.59a15.34,15.34,0,0,0-4.53,2.64,6.92,6.92,0,0,0-2.39,4.56,7.47,7.47,0,0,0,.56,3.12c1.19,3.21,3.93,6,7.32,6.49a11.25,11.25,0,0,0,4.08-.31c4.11-.92,8.3-3.29,9.61-7.3a11.22,11.22,0,0,0,.48-3.74,14.12,14.12,0,0,0-4.1-10.21,15.78,15.78,0,0,0-9.31-3.65Z" style="fill:#e0e0e0"></path><path d="M691.46,358.59a1.91,1.91,0,0,0-1,.68,1.86,1.86,0,0,0-.35,1.31,2.21,2.21,0,0,0,.91,1.53,3.51,3.51,0,0,0,4.38-.54,4.87,4.87,0,0,0,1.41-2.42,4.64,4.64,0,0,0-.28-3,5.55,5.55,0,0,0-1.92-2.32,6.33,6.33,0,0,0-2.64-1,8.08,8.08,0,0,0-2.58-.09,8,8,0,0,0-2.15.66,14.78,14.78,0,0,0-2.78,1.75l-.7.57a1.41,1.41,0,0,1-.24.19,9.64,9.64,0,0,1,.89-.82,13.89,13.89,0,0,1,2.77-1.82,8,8,0,0,1,2.18-.7,8.13,8.13,0,0,1,2.64.07,6.56,6.56,0,0,1,2.73,1,5.69,5.69,0,0,1,2,2.41,4.83,4.83,0,0,1,.29,3.1,5,5,0,0,1-1.48,2.51,3.66,3.66,0,0,1-4.6.52,2.4,2.4,0,0,1-.94-1.64,2,2,0,0,1,.41-1.36,1.72,1.72,0,0,1,.71-.56A.87.87,0,0,1,691.46,358.59Z" style="fill:#263238"></path><path d="M691.43,369.17a7.28,7.28,0,0,1,0-3.24c.15-.88.34-1.67.47-2.24a4.31,4.31,0,0,1,.25-.92,29.08,29.08,0,0,1-.51,3.2,13.83,13.83,0,0,0-.2,2.26C691.42,368.81,691.46,369.17,691.43,369.17Z" style="fill:#263238"></path><path d="M700.4,365.11a22.2,22.2,0,0,0-2-2.17A23.63,23.63,0,0,0,696,361.2a2.8,2.8,0,0,1,.8.35,9.61,9.61,0,0,1,1.73,1.23,10,10,0,0,1,1.42,1.57A2.74,2.74,0,0,1,700.4,365.11Z" style="fill:#263238"></path><path d="M703.57,355.13c.06.19-1.53.32-3.4.7-.94.18-1.78.39-2.39.54a4.88,4.88,0,0,1-1,.22,4.73,4.73,0,0,1,1-.36,23.89,23.89,0,0,1,2.39-.61C702,355.24,703.59,355.21,703.57,355.13Z" style="fill:#263238"></path><path d="M698.19,346.5a3.7,3.7,0,0,0-1,.69,12.91,12.91,0,0,0-1.64,2.34,17.81,17.81,0,0,0-1.19,2.61,11,11,0,0,1-.41,1.12,5.09,5.09,0,0,1,.27-1.17,13.82,13.82,0,0,1,1.15-2.66,10.66,10.66,0,0,1,1.72-2.34,2.5,2.5,0,0,1,.73-.5A.65.65,0,0,1,698.19,346.5Z" style="fill:#263238"></path><path d="M691.85,359.8s-.11.07-.28.17a.54.54,0,0,0-.11.72,1.18,1.18,0,0,0,1,.65,1.15,1.15,0,0,0,1.16-.75,1.54,1.54,0,0,0-.29-1.41,1.49,1.49,0,0,0-1-.62,3.1,3.1,0,0,0-1.16.16s.08-.08.28-.16a2,2,0,0,1,.9-.15,1.78,1.78,0,0,1,1.5,2.26,1.33,1.33,0,0,1-2.46.08.63.63,0,0,1,.21-.85A.76.76,0,0,1,691.85,359.8Z" style="fill:#263238"></path><path d="M690.18,360.9s-.44.15-1.13.4a12,12,0,0,0-4.71,3.17c-.5.54-.77.91-.8.89s0-.11.16-.29a8.06,8.06,0,0,1,.53-.7,10.66,10.66,0,0,1,2.16-1.94,11,11,0,0,1,2.62-1.27,7.73,7.73,0,0,1,.85-.22A1.09,1.09,0,0,1,690.18,360.9Z" style="fill:#263238"></path><path d="M690.9,358.79a2.64,2.64,0,0,1-1-.81,5.63,5.63,0,0,0-1-.91,4.15,4.15,0,0,0-1.55-.56,10,10,0,0,0-3,0,5.19,5.19,0,0,1-1.27.11,12.61,12.61,0,0,1,1.25-.26,9.21,9.21,0,0,1,3.09,0,4.1,4.1,0,0,1,1.61.61,5.25,5.25,0,0,1,1,1A8.35,8.35,0,0,0,690.9,358.79Z" style="fill:#263238"></path><path d="M691.91,353.17a2.21,2.21,0,0,1,.43.69,5.46,5.46,0,0,1,.28,3.84,2.15,2.15,0,0,1-.33.75,8.86,8.86,0,0,0,.33-2.68A8.74,8.74,0,0,0,691.91,353.17Z" style="fill:#263238"></path><path d="M696.77,359.74a1.9,1.9,0,0,1-1.52.81,1.85,1.85,0,0,1-1.62-.59,3.37,3.37,0,0,0,1.61.38A3.68,3.68,0,0,0,696.77,359.74Z" style="fill:#263238"></path><path d="M697.37,368a29.68,29.68,0,0,0-1.12-2.92,24.46,24.46,0,0,0-1.65-2.65,2.87,2.87,0,0,1,.64.67,11,11,0,0,1,1.2,1.89,10.76,10.76,0,0,1,.78,2.1A3.9,3.9,0,0,1,697.37,368Z" style="fill:#263238"></path><path d="M703.31,361.73s-.24-.33-.63-.84a4.08,4.08,0,0,0-2-1.45,15.41,15.41,0,0,0-2.45-.59,6.36,6.36,0,0,1-1-.25,4.91,4.91,0,0,1,1,.1,12.49,12.49,0,0,1,2.5.54,4,4,0,0,1,2,1.56A3.81,3.81,0,0,1,703.31,361.73Z" style="fill:#263238"></path><path d="M701.49,349.76a22.86,22.86,0,0,0-3.31,2.09,8.8,8.8,0,0,0-1.82,2.06c-.37.6-.53,1-.56,1a.87.87,0,0,1,.08-.3,4.09,4.09,0,0,1,.36-.77,7.62,7.62,0,0,1,1.81-2.15,11.24,11.24,0,0,1,2.36-1.5A4.48,4.48,0,0,1,701.49,349.76Z" style="fill:#263238"></path><path d="M690.57,344s.07.12.14.35a7.39,7.39,0,0,1,.21,1,14.19,14.19,0,0,1,0,3.43,5.75,5.75,0,0,1-1.17,3.2,2.86,2.86,0,0,1-.8.67,1.1,1.1,0,0,1-.36.15,4.12,4.12,0,0,0,1.05-.91,6,6,0,0,0,1.07-3.14,16.71,16.71,0,0,0,.1-3.38C690.7,344.47,690.54,344,690.57,344Z" style="fill:#263238"></path><g style="opacity:0.30000000000000004"><path d="M690.23,361.18a1.55,1.55,0,0,0,.34,1.62,2.55,2.55,0,0,0,1.54.74,5.39,5.39,0,0,0,5-2.63,6.08,6.08,0,0,0,1.07-4.16,5.44,5.44,0,0,0-3.13-4,6.88,6.88,0,0,0-5.2-.1,9.21,9.21,0,0,1,4.59,1.12,7.1,7.1,0,0,1,.94.8,5.3,5.3,0,0,1,1.64,2.56,5,5,0,0,1-.33,2.74,4.44,4.44,0,0,1-.69,1.31,4.19,4.19,0,0,1-4.39,1.07,1.62,1.62,0,0,1-1.27-1"></path></g><path d="M491.69,386.92c.63,9.16,5.54,20.29,13.43,27.61h36.76c7.08-7.23,11-19.74,11.54-30.15l-39.7,15.87Z" style="fill:#934741"></path><path d="M27.77,309.72s.54,0,1.61,0l4.73,0,18.35.19,68.61.79h.11l0,.11,34.63,90.49-.2-.14,217,0h96.52l-.15,0,21-15.16.13-.09.14.08,23.57,14-.21,0,58.74-23.89-.13.14c7-24.22,13.39-46.48,19.18-66.6l0-.14h.14l91.24.5,24.8.16,6.46.06,2.19,0h-8.65l-24.8-.06-91.24-.33.18-.14c-5.77,20.13-12.16,42.4-19.12,66.62l0,.11-.1,0-58.72,23.93-.11,0-.1-.06-23.58-14h.27l-21,15.16-.07,0h-96.6l-217,0h-.15l-.06-.14C142.28,367,130.55,336.23,120.91,311l.15.1-68.61-.94-18.34-.27-4.73-.09Z" style="fill:#263238"></path><path d="M49,364.92l3.86,4.81a.69.69,0,0,0,.48.25l16.62,1.44a.69.69,0,0,0,.66-.36l5-8.87a.69.69,0,0,0-.42-1l-12.68-3.53a.69.69,0,0,0-.49,0l-12.76,6.15A.69.69,0,0,0,49,364.92Z" style="fill:#455a64"></path></g><g id="freepik--Character--inject-7"><path d="M379.19,254.74c0,2,17.94,46.84,17.94,46.84l43.35,17.16L434,330.54s-45.3-2.34-52.28-6.19S367.48,311,367.48,311l-12.7-46Z" style="fill:#ffbf9d"></path><path d="M398.15,301.39a22.1,22.1,0,0,0-12.36,9.29,7,7,0,0,1,1.1-2.08,17.56,17.56,0,0,1,9-6.73A6.7,6.7,0,0,1,398.15,301.39Z" style="fill:#ff9a6c"></path><polygon points="343.91 279.04 343.91 332.34 367.03 395.42 385.36 395.42 372.07 322.1 375.02 269.5 343.91 279.04" style="fill:#ffbf9d"></polygon><path d="M381,371.46a2.81,2.81,0,0,1-.17-.63c-.09-.46-.22-1.06-.37-1.8-.32-1.63-.76-3.89-1.29-6.65l-4.06-22c-1.22-6.85-2.35-13.17-3.26-18.29v0c.25-3.91.46-7.13.62-9.46.08-1.08.15-1.95.2-2.61a5.29,5.29,0,0,1,.11-.92,4.71,4.71,0,0,1,0,.93q0,1-.09,2.61c-.1,2.33-.25,5.56-.43,9.47v-.05c.94,5.11,2.1,11.43,3.36,18.27,1.52,8.56,2.9,16.3,3.91,22,.47,2.77.85,5,1.13,6.67.11.75.2,1.35.28,1.82A3.44,3.44,0,0,1,381,371.46Z" style="fill:#ff9a6c"></path><path d="M211,400.5l-20.84-6.6s-26.44,16.35-30.89,13.31l34.63-44.46,8.24,7.89,5.62,1.1L229,385.27Z" style="fill:#455a64"></path><path d="M202.78,381.65a2.31,2.31,0,0,0-1.1-2.87,2.22,2.22,0,0,0-2.85,1.06,2.44,2.44,0,0,0,1.17,3,2.3,2.3,0,0,0,2.85-1.43" style="fill:#e0e0e0"></path><path d="M193,362l3.48,2.68-33.58,42.54s-2.4,1.31-3.62,0Z" style="fill:#263238"></path><path d="M189.81,394.8c-.22-.18.53-1.34.67-2.95s-.34-2.9-.1-3,1.25,1.17,1.05,3.12S190,395,189.81,394.8Z" style="fill:#263238"></path><path d="M184.24,398c-.24-.12.12-1.35-.22-2.8s-1.15-2.42-1-2.63,1.52.61,1.91,2.42S184.46,398.11,184.24,398Z" style="fill:#263238"></path><path d="M176.6,396.26c.11-.24,1.43.31,2.18,1.79s.44,2.87.19,2.82-.4-1.17-1-2.38S176.45,396.49,176.6,396.26Z" style="fill:#263238"></path><path d="M424.64,139.85a6.78,6.78,0,0,1,7.67,1.58,9.25,9.25,0,0,1,8.87,7.14,8.23,8.23,0,0,1,5.7,12.92,6.88,6.88,0,0,1-2.34,12.84,6.61,6.61,0,0,1-10.07,8.46l-13.58-36.07A6.77,6.77,0,0,1,424.64,139.85Z" style="fill:#263238"></path><path d="M434.66,184.11a28,28,0,0,0-6.32-37.5l-1.14-.89c-12.94-8.85-27.69-2.81-36.19,10.36l-30.12,42.61-2.31,6.5,8.13,26.14,14-2.06,11-11.19s13.33,7.36,22.69-4.43C418.88,208,427.24,195.49,434.66,184.11Z" style="fill:#ffbf9d"></path><path d="M391.79,218.14a36.56,36.56,0,0,1-12.06-16.63s-3.64,11.4,9.06,19.52Z" style="fill:#ff9a6c"></path><path d="M422.69,192.46a2.15,2.15,0,0,1-3,.44,2.05,2.05,0,0,1-.56-2.89,2.14,2.14,0,0,1,3-.44A2.05,2.05,0,0,1,422.69,192.46Z" style="fill:#263238"></path><path d="M427.26,188.65c-.38.06-.93-1.89-2.76-3.3s-3.88-1.53-3.9-1.91c0-.17.5-.41,1.41-.38a5.84,5.84,0,0,1,3.34,1.26,5.67,5.67,0,0,1,2,2.9C427.57,188.09,427.45,188.64,427.26,188.65Z" style="fill:#263238"></path><path d="M406.41,181.11a2.16,2.16,0,0,1-3,.45,2.06,2.06,0,0,1-.56-2.89,2.15,2.15,0,0,1,3-.45A2.06,2.06,0,0,1,406.41,181.11Z" style="fill:#263238"></path><path d="M410,174.86c-.38.06-.93-1.89-2.77-3.3s-3.88-1.53-3.9-1.91c0-.18.5-.41,1.42-.38a5.94,5.94,0,0,1,3.34,1.25,5.68,5.68,0,0,1,2,2.91C410.27,174.29,410.15,174.84,410,174.86Z" style="fill:#263238"></path><path d="M405.5,193.07a15.77,15.77,0,0,1,3.39,1.77c.5.31,1,.56,1.34.3a3,3,0,0,0,.76-1.62c.44-1.47.89-3,1.37-4.63,2-6.54,3.84-11.78,4.1-11.7s-1.15,5.46-3.15,12q-.75,2.42-1.44,4.6a3.43,3.43,0,0,1-1.18,2,1.47,1.47,0,0,1-1.3.09,4.08,4.08,0,0,1-.87-.5A15.51,15.51,0,0,1,405.5,193.07Z" style="fill:#263238"></path><path d="M399.14,190.17c.31.22-1.22,2.2-.61,4.93s2.89,4.14,2.69,4.43c-.07.14-.77,0-1.68-.65a6.24,6.24,0,0,1-2.33-3.58,5.42,5.42,0,0,1,.64-4C398.41,190.38,399,190.06,399.14,190.17Z" style="fill:#263238"></path><path d="M414,169.66c-.59.3-1.83-1.34-3.77-2.79s-3.84-2.29-3.67-2.91c.09-.29.74-.48,1.73-.36a7.13,7.13,0,0,1,3.41,1.45,6.92,6.92,0,0,1,2.25,2.89C414.34,168.84,414.31,169.5,414,169.66Z" style="fill:#263238"></path><path d="M430.73,183.32c-.63.22-1.66-1.11-3.26-2.17s-3.15-1.64-3.17-2.3c0-.31.51-.61,1.38-.64a5.68,5.68,0,0,1,5.18,3.6C431.13,182.63,431,183.2,430.73,183.32Z" style="fill:#263238"></path><path d="M437.74,177.76s2.63-9.88.39-14.4c-2.73-5.47-8.29-2.14-11.54-6.51s-5.84-9.6-12.56-9.68c-7.35-.08-7.08,4.06-11.45,9.12-17.73,20.51-26.32,23.53-19.63,12.59.73-1.2-1.66-4.45,1.5-9.47,4.1-6.5,9.55-14,14.23-17.28,3.94-2.74,7.94-3.64,13.77-3.54,9.21.17,17.31,6.29,22.33,11.06S445.46,168.82,437.74,177.76Z" style="fill:#263238"></path><path d="M384,169.14a4.09,4.09,0,0,0-1.08-5.81c-2.38-1.5-5.83-2.15-9.23,2.54-6,8.34,3.58,12.68,3.76,12.45S381.46,172.65,384,169.14Z" style="fill:#ffbf9d"></path><path d="M377.87,173.87c0-.05-.22,0-.55-.07a1.79,1.79,0,0,1-1.1-.76c-.64-1-.37-2.9.67-4.43a6,6,0,0,1,1.92-1.78,2.07,2.07,0,0,1,1.9-.33.93.93,0,0,1,.57,1c-.06.32-.24.44-.2.49s.28,0,.46-.4a1.12,1.12,0,0,0,0-.76,1.36,1.36,0,0,0-.65-.8,2.53,2.53,0,0,0-2.45.2,6.14,6.14,0,0,0-2.19,2c-1.16,1.72-1.44,3.91-.49,5.13a1.91,1.91,0,0,0,1.49.74C377.71,174.06,377.89,173.91,377.87,173.87Z" style="fill:#ff9a6c"></path><path d="M396.31,153.51a9.71,9.71,0,0,0,2.22,4.25c1.17,1.12,3.2,1.51,4.39.42.53-.49.9-1.26,1.61-1.41s1.54.62,2.17,1.22a6.57,6.57,0,0,0,8.27.45c-.1,1.37,1.34,2.42,2.71,2.54a14.53,14.53,0,0,0,4.05-.66,4.22,4.22,0,0,1,3.87.77c.54.55.82,1.34,1.47,1.76,1.14.73,2.63-.12,3.61-1s2.07-2.08,3.42-2,2.1,1.26,3,2.17,2.32,1.65,3.32.89a2.44,2.44,0,0,0,.77-1.76,6.67,6.67,0,0,0-4.67-6.81,9,9,0,0,0-12.05-11.54,9.17,9.17,0,0,0-13.63-6.32A6.64,6.64,0,0,0,399,139.54c-2.1-.3-4.48.18-5.81,1.84s-1,4.61,1,5.43a3.68,3.68,0,0,0,2.79,6.79" style="fill:#263238"></path><path d="M393.55,146.33a2.42,2.42,0,0,0-.7,1.95,3.33,3.33,0,0,0,.87,2.24,3.59,3.59,0,0,0,2.84,1.12l-.3-.32a10.37,10.37,0,0,0,.05,3.28,5.87,5.87,0,0,0,.77,2.07,4,4,0,0,0,1.52,1.42,4,4,0,0,0,3.39.47,6.06,6.06,0,0,0,2-1.18c.41-.35.59-.58.57-.61s-.27.14-.71.43a6.9,6.9,0,0,1-1.95,1,4.2,4.2,0,0,1-5-3.67,10.47,10.47,0,0,1-.07-3.1l0-.35-.35,0a3.13,3.13,0,0,1-2.44-.9,3,3,0,0,1-.87-1.91A5,5,0,0,1,393.55,146.33Z" style="fill:#455a64"></path><path d="M423.3,139.64s.17.23.41.66a3.48,3.48,0,0,1,.43,2l0,.23.23-.06a12.78,12.78,0,0,1,6.4-.14,9.92,9.92,0,0,1,3.75,1.78,8.5,8.5,0,0,1,3.22,7.18,6.89,6.89,0,0,1-1,3.14l-.17.28.3.12a5.81,5.81,0,0,1,3.06,3,5.6,5.6,0,0,1,.31,3.41,8.07,8.07,0,0,1-1.35,2.81,2.32,2.32,0,0,0,.61-.59,5.7,5.7,0,0,0,1.07-2.14,5.87,5.87,0,0,0-.22-3.66,6.17,6.17,0,0,0-3.28-3.36l.13.4a7.34,7.34,0,0,0,1.12-3.4,9,9,0,0,0-3.45-7.68,10.33,10.33,0,0,0-4-1.82,12.47,12.47,0,0,0-6.61.33l.2.17a3.49,3.49,0,0,0-.6-2.17A1.74,1.74,0,0,0,423.3,139.64Z" style="fill:#455a64"></path><path d="M299.48,320.16s56.77,34.61,60.06,44.08c1.95,5.61,7.79,35.78-17,37.17-26.15,1.46-147,0-147,0l12.3-32.58L234.46,370l44.78.52s-50.4-20.83-61.41-38c-13.77-21.52,7.54-53.29,7.54-53.29Z" style="fill:#263238"></path><path d="M326.07,387.37a2.17,2.17,0,0,1-.57-.11l-1.61-.41c-1.38-.4-3.37-1-5.8-1.85-4.87-1.66-11.52-4.15-18.82-7s-13.87-5.57-18.61-7.56l-5.6-2.39-1.51-.68a2.13,2.13,0,0,1-.51-.27,4,4,0,0,1,.55.18l1.55.58,5.66,2.24,18.66,7.41c7.3,2.87,13.92,5.41,18.75,7.16,2.41.89,4.38,1.55,5.74,2l1.58.5A3.07,3.07,0,0,1,326.07,387.37Z" style="fill:#455a64"></path><path d="M461.63,329.15a9.55,9.55,0,0,0-5.51-6.76,10.78,10.78,0,0,0-8.79.18,6.63,6.63,0,0,0-2.81,2.23,3.7,3.7,0,0,0-.44,3.46l1.7-.42A61.59,61.59,0,0,0,460,330.93a1.79,1.79,0,0,0,1.39-.27A1.64,1.64,0,0,0,461.63,329.15Z" style="fill:#e0e0e0"></path><path d="M423.5,310.68c.47.16,12.16,5.62,12.16,5.62l17.46-.07a3.74,3.74,0,0,1,2.39.83l9,7.22,3.86,10.43s.44,3.1-2.94.51-9-10.68-9-10.68L448.2,323l-12.08,10.11-20.87-2.54s.4-4.08,3.88-11S423.5,310.68,423.5,310.68Z" style="fill:#e0e0e0"></path><path d="M472.62,343.35h0a2.1,2.1,0,0,0-.39-2.94l-40.48-31.05a2.1,2.1,0,0,0-2.94.38h0a2.09,2.09,0,0,0,.39,2.94l40.48,31.06A2.1,2.1,0,0,0,472.62,343.35Z" style="fill:#455a64"></path><path d="M476.83,343.51a21,21,0,0,0,4.47,1.59,27.79,27.79,0,0,0,9.75.38l4.67-.61a80,80,0,0,1-5.37,7,19.69,19.69,0,0,1-10.33-1.5s6.39,3.24,9,3.5l-1.3,1.7a34.25,34.25,0,0,1-6.95-2,15.33,15.33,0,0,1-7.28-6.2Z" style="fill:#ff9a6c"></path><path d="M459.35,332.24l-8.64-2.83-11.2-7.17-7.07,9.34s7.49,2.84,10.79,4A45.17,45.17,0,0,0,458,337.5c2.29-.19,3.73-1.66,4-2.68S460.77,333,459.35,332.24Z" style="fill:#e0e0e0"></path><path d="M450.56,322.15a9.19,9.19,0,0,1,2,.88c1.22.61,2.88,1.48,4.7,2.47a5.66,5.66,0,0,1,1.3.89,5.06,5.06,0,0,1,.89,1.16,21.4,21.4,0,0,1,1,2.19c.51,1.25,1,1.89,1,1.94a4.07,4.07,0,0,1-1.31-1.78c-.64-1.19-1.21-3.11-3.11-3.94-1.82-1-3.46-1.91-4.63-2.6A9.63,9.63,0,0,1,450.56,322.15Z" style="fill:#263238"></path><path d="M461.91,334.82c-.06,0,.07-.34-.23-.79a4.7,4.7,0,0,0-1.81-1.38,39.87,39.87,0,0,0-7.33-2.53c-.64-.17-1.28-.32-1.88-.46h0l0,0c-2.26-1.3-4.17-2.54-5.59-3.33a21.8,21.8,0,0,1-2.27-1.29,10.1,10.1,0,0,1,2.43,1c1.48.71,3.43,1.9,5.68,3.17l-.07,0c.62.13,1.25.29,1.9.46a32.7,32.7,0,0,1,7.38,2.71,4.56,4.56,0,0,1,1.81,1.6A.88.88,0,0,1,461.91,334.82Z" style="fill:#263238"></path><polygon points="467.42 342.33 473.45 347.38 476.83 343.51 470.54 338.77 467.42 342.33" style="fill:#e0e0e0"></polygon><path d="M425,310.24l-8.87,21.62a1.37,1.37,0,0,1-1.79.74h0a1.36,1.36,0,0,1-.74-1.78l8.87-21.62a1.37,1.37,0,0,1,1.79-.74h0A1.36,1.36,0,0,1,425,310.24Z" style="fill:#e0e0e0"></path><path d="M424.83,310.37a20.26,20.26,0,0,1-1,3.16c-.69,1.93-1.7,4.57-2.91,7.45s-2.37,5.46-3.26,7.31a19.31,19.31,0,0,1-1.54,2.93,21.57,21.57,0,0,1,1.21-3.08c.85-2,1.92-4.56,3.11-7.36l3.05-7.38A21.76,21.76,0,0,1,424.83,310.37Z" style="fill:#263238"></path><path d="M405,392l-5.37-1.91c-1.69-.14-13.19-1.53-13.19-1.53l-3.76-14.88-21,10.81s3.71,14.29,6.66,16.91,31.3,4.8,34.89,5.06a7.36,7.36,0,0,0,5.48-1.57s8.65.65,10.76,0,1.9-2.1,1.9-2.1,2.74-.53,3.42-2h0c.43-1.95-1.4-3.11-3.25-3.85C415.82,394.7,405,392,405,392Z" style="fill:#e0e0e0"></path><path d="M383.6,374.45l-21.23,9.77a1.36,1.36,0,0,1-1.81-.66h0a1.38,1.38,0,0,1,.67-1.82L382.46,372a1.36,1.36,0,0,1,1.81.66h0A1.37,1.37,0,0,1,383.6,374.45Z" style="fill:#e0e0e0"></path><path d="M382.93,375.27a30.71,30.71,0,0,1-3.19,1.24c-2,.73-4.69,1.8-7.62,3.13s-5.51,2.66-7.37,3.67a27.44,27.44,0,0,1-3,1.58,3,3,0,0,1,.73-.56c.49-.34,1.21-.8,2.12-1.34a75.37,75.37,0,0,1,15.05-6.83c1-.32,1.83-.57,2.4-.71A2.93,2.93,0,0,1,382.93,375.27Z" style="fill:#263238"></path><path d="M386.48,388.57c0,.15-2,.66-4.33,1.61s-4.15,2-4.23,1.83a12,12,0,0,1,4-2.32A12.22,12.22,0,0,1,386.48,388.57Z" style="fill:#263238"></path><path d="M408.78,404.9s.07-.19.17-.53a2.27,2.27,0,0,0-.06-1.42l.1.09c-1.64-.42-4.19-1.14-7-2-2.5-.74-4.74-1.44-6.36-2a15.51,15.51,0,0,1-2.59-1,13.46,13.46,0,0,1,2.69.61c1.65.44,3.91,1.08,6.4,1.82,2.85.85,5.38,1.64,7,2.18l.09,0,0,.06a2.25,2.25,0,0,1-.07,1.61C409,404.77,408.8,404.91,408.78,404.9Z" style="fill:#263238"></path><path d="M399.34,394.68a3.17,3.17,0,0,1,1,.07c.62.09,1.5.24,2.59.48a85,85,0,0,1,8.31,2.4c3.21,1.08,6.09,2,8.23,2.65a3.21,3.21,0,0,1,2.08,1.63,1.17,1.17,0,0,1,.09,1,2.92,2.92,0,0,0-.27-.89,3.13,3.13,0,0,0-2-1.37c-2.13-.55-5.08-1.43-8.27-2.5s-6.11-2-8.24-2.54S399.33,394.76,399.34,394.68Z" style="fill:#263238"></path><path d="M225.37,279.17c-2.49-4.87,1.58-8,4.11-9.67,19.37-12.49,79.83-52.85,91.45-60.27,13.66-8.72,33.22-10.53,33.22-10.53l8.81-7L388.38,225l-3,11.07-2.15,15.13-78.6,60.27.09,5.46-4.33,3.62-40.22-18Z" style="fill:#CFAE3D"></path><path d="M376.23,289.78,391,282.5s-10.92-43.4-11.73-40.93S364,269.49,364,269.49Z" style="fill:#CFAE3D"></path><path d="M376.22,289.81v0L364,269.49v0c.15-.25,14.47-25.48,15.27-27.91,0-.08.06-.12.11-.12h0c.12,0,.48,0,2.4,6.45,1,3.41,2.35,8.15,3.94,14.1,2.71,10.14,5.29,20.4,5.32,20.5v0h0ZM364,269.49l12.2,20.25L391,282.49c-.13-.52-2.66-10.56-5.32-20.48-1.59-6-2.92-10.7-3.94-14.11-1.58-5.28-2.15-6.4-2.35-6.41h0s-.05,0-.07.08C378.51,244,364.44,268.8,364,269.49Z" style="fill:#263238"></path><path d="M379.48,281.5,389.3,276a2.43,2.43,0,0,1,3.57,1.67l1.74,9.25a2.43,2.43,0,0,1-1.48,2.7l-12.67,5.13a2.42,2.42,0,0,1-3.31-2.55l1.11-8.88A2.43,2.43,0,0,1,379.48,281.5Z" style="fill:#CFAE3D"></path><path d="M379.48,281.5s-.17.11-.44.38a2.46,2.46,0,0,0-.68,1.47c-.18,1.54-.41,3.66-.7,6.24-.08.66-.16,1.34-.24,2.06a4.84,4.84,0,0,0-.07,1.06,2.17,2.17,0,0,0,.34,1,2.25,2.25,0,0,0,1.85,1,2.71,2.71,0,0,0,1.13-.29l1.2-.49,10.54-4.29a4,4,0,0,0,1.26-.64,2.21,2.21,0,0,0,.66-1.13,2.79,2.79,0,0,0-.06-1.34c-.09-.48-.18-.95-.26-1.42-.35-1.87-.68-3.68-1-5.4-.08-.43-.16-.86-.24-1.27a6,6,0,0,0-.27-1.18,2.19,2.19,0,0,0-2.68-1.24,5.17,5.17,0,0,0-.95.46l-1.82,1-5.51,3-1.51.79a2.9,2.9,0,0,1-.55.25,2,2,0,0,1,.49-.34l1.47-.88,5.43-3.14,1.8-1a5.71,5.71,0,0,1,1-.51,2.59,2.59,0,0,1,1.24-.09,2.63,2.63,0,0,1,2,1.55,6.18,6.18,0,0,1,.31,1.27c.08.42.17.84.25,1.27.33,1.72.67,3.53,1,5.4l.27,1.41a3.53,3.53,0,0,1,.06,1.56,2.77,2.77,0,0,1-.83,1.39,2.42,2.42,0,0,1-.69.45l-.71.29-10.56,4.26-1.21.48a3.31,3.31,0,0,1-1.3.31,2.68,2.68,0,0,1-2.21-1.24,2.6,2.6,0,0,1-.4-1.17,5.17,5.17,0,0,1,.09-1.14l.27-2.06c.36-2.57.65-4.68.87-6.21a2.37,2.37,0,0,1,.81-1.52,2.15,2.15,0,0,1,.37-.26Z" style="fill:#263238"></path><path d="M388.1,225.42a2,2,0,0,1-.32.5l-1,1.39c-.94,1.25-2.23,2.94-3.8,5l-.16.21-.16-.22c-2.52-3.61-5.95-8.38-9.91-13.46-4.29-5.52-8.37-10.36-11.38-13.81L357.77,201l-1-1.11a1.91,1.91,0,0,1-.31-.42,2.32,2.32,0,0,1,.39.34l1,1c.89.92,2.16,2.28,3.7,4,3.09,3.4,7.23,8.21,11.52,13.74,4,5.09,7.37,9.9,9.82,13.56h-.31l3.94-4.91c.45-.53.81-1,1.1-1.32A3.43,3.43,0,0,1,388.1,225.42Z" style="fill:#263238"></path><path d="M337.65,255.47v47.31l38.57,2.65a54.91,54.91,0,0,0,1.46-8.32c.34-10.1,4.38-30.35,5.14-34,4-19.35.4-39.12-21.78-39.12" style="fill:#CFAE3D"></path><path d="M361,224h1.85a27.94,27.94,0,0,1,5.25.71,19.24,19.24,0,0,1,14.13,12.39,36.13,36.13,0,0,1,2.19,13.27,72.06,72.06,0,0,1-1.92,15.32c-1,5.34-2.06,10.95-3,16.79-.44,2.92-.86,5.9-1.19,8.93-.16,1.51-.3,3-.38,4.58,0,.76-.06,1.56-.16,2.34s-.22,1.56-.36,2.34c-.29,1.63-.62,3.23-1,4.81l-.06.22-.21,0L337.63,303l-.21,0v-.21c0-14.13.07-25.95.09-34.26,0-4.13.05-7.39.07-9.64,0-1.09,0-1.94,0-2.54l0-.65a1,1,0,0,1,0-.22,1,1,0,0,1,0,.22c0,.17,0,.38,0,.65,0,.6,0,1.45,0,2.54,0,2.25,0,5.51.06,9.64,0,8.31.06,20.13.1,34.26l-.22-.23,38.58,2.62-.27.2c.38-1.57.71-3.17,1-4.78.13-.77.26-1.54.35-2.31s.12-1.52.16-2.3c.08-1.56.22-3.09.39-4.62.33-3,.75-6,1.2-8.95.91-5.85,1.94-11.46,3-16.8a72.39,72.39,0,0,0,2-15.24,36.27,36.27,0,0,0-2.1-13.13,20.06,20.06,0,0,0-6.35-8.81,20.42,20.42,0,0,0-7.48-3.52,29.26,29.26,0,0,0-5.22-.79l-1.37-.07A3.45,3.45,0,0,1,361,224Z" style="fill:#263238"></path><path d="M354.5,222.36c.05.08-1.24.83-3.14,2.28A36.25,36.25,0,0,0,340,239.19c-.94,2.19-1.35,3.63-1.44,3.6a3.74,3.74,0,0,1,.21-1,24.91,24.91,0,0,1,.89-2.71,32.7,32.7,0,0,1,11.46-14.71,27.19,27.19,0,0,1,2.41-1.53A4.18,4.18,0,0,1,354.5,222.36Z" style="fill:#263238"></path><path d="M349.83,225.57c-.07,0-.71-1.26-1.83-3.3a86.12,86.12,0,0,0-10.33-14.9c-1.52-1.76-2.51-2.82-2.45-2.87a4,4,0,0,1,.78.65c.48.45,1.14,1.12,1.94,2a64.48,64.48,0,0,1,5.72,7.12,66.2,66.2,0,0,1,4.67,7.85c.52,1.05.91,1.91,1.16,2.51A3.63,3.63,0,0,1,349.83,225.57Z" style="fill:#263238"></path><path d="M376.32,309.1H338.45a2.38,2.38,0,0,1-2.36-2.15l-1-11.05a2.36,2.36,0,0,1,2.35-2.58h40.25A2.36,2.36,0,0,1,380,296l-1.36,11A2.37,2.37,0,0,1,376.32,309.1Z" style="fill:#CFAE3D"></path><path d="M376.32,309.1a2.81,2.81,0,0,0,1.1-.33,2.3,2.3,0,0,0,.93-1,5.6,5.6,0,0,0,.35-1.86c.17-1.46.37-3.23.61-5.28.12-1,.25-2.12.39-3.29.05-.57.18-1.21.17-1.77a2.22,2.22,0,0,0-.76-1.54,2.3,2.3,0,0,0-1.73-.52h-6.53l-9.78,0-22.42,0c-.48,0-1,0-1.45,0a2.09,2.09,0,0,0-1.81,1.66,2.35,2.35,0,0,0,0,.65l.07.72q.25,2.89.51,5.7c.08.93.17,1.86.25,2.77l.12,1.37a3,3,0,0,0,.27,1.23c.78,1.66,2.92,1,4.57,1.16l18.31.06,12.35.08,3.35.05.87,0a1.71,1.71,0,0,1,.3,0l-.3,0-.87,0-3.35,0-12.35.09-18.31,0h-2.61a2.66,2.66,0,0,1-2.41-1.42,3.47,3.47,0,0,1-.32-1.41l-.12-1.37c-.09-.92-.17-1.84-.26-2.77q-.26-2.81-.52-5.7l-.07-.73a3.11,3.11,0,0,1,.05-.8,2.63,2.63,0,0,1,.79-1.39,2.67,2.67,0,0,1,1.46-.68c.56,0,1,0,1.52,0l22.42,0,9.78,0h6.53a2.71,2.71,0,0,1,2,.64,2.51,2.51,0,0,1,.86,1.79c0,.68-.14,1.24-.19,1.83-.16,1.16-.3,2.26-.43,3.29-.27,2-.5,3.81-.7,5.27a5.77,5.77,0,0,1-.41,1.91,2.39,2.39,0,0,1-1.87,1.25A1.36,1.36,0,0,1,376.32,309.1Z" style="fill:#263238"></path><path d="M287.05,295.47a3.07,3.07,0,0,1,.82.46c.51.32,1.23.81,2.11,1.44a68.23,68.23,0,0,1,6.48,5.4,66.25,66.25,0,0,1,5.77,6.16c.68.83,1.21,1.52,1.56,2a4.31,4.31,0,0,1,.51.8,29.07,29.07,0,0,1-2.35-2.57c-1.43-1.61-3.46-3.77-5.84-6s-4.67-4.15-6.35-5.48A31,31,0,0,1,287.05,295.47Z" style="fill:#263238"></path><g style="opacity:0.30000000000000004"><path d="M334.47,288.55c.26-.2.2-34.65,1.63-38.78a23.23,23.23,0,0,1,2.48-5.55l-.93,41.9Z"></path></g><g style="opacity:0.30000000000000004"><path d="M358.45,201.55l25.2,33.71,3.26-8.32-4.11,5.26S361.1,203.09,358.45,201.55Z"></path></g><g style="opacity:0.30000000000000004"><path d="M337.65,293.32s22.14-4.88,39.86,0Z"></path></g><g style="opacity:0.30000000000000004"><path d="M294.51,301.8c-3.76-4.42-9.29-6.9-14.76-8.83s-11.16-3.47-16.06-6.58a4.84,4.84,0,0,1-1.78-1.64,1.9,1.9,0,0,1,.18-2.26c.7-.67,1.83-.46,2.76-.18a63,63,0,0,1,29,18.63"></path></g><path d="M275.43,286.51a9.37,9.37,0,0,1-2.35-.71,34.74,34.74,0,0,1-5.31-2.63,33.09,33.09,0,0,1-4.77-3.5,9,9,0,0,1-1.71-1.76,16.28,16.28,0,0,1,1.95,1.47,49.75,49.75,0,0,0,4.8,3.35,51.4,51.4,0,0,0,5.19,2.73A14.09,14.09,0,0,1,275.43,286.51Z" style="fill:#263238"></path><path d="M282.1,296.72c.07.14-3.18,1.69-6.78,4.25s-6.15,5.09-6.26,5a8.62,8.62,0,0,1,1.57-1.77,37.94,37.94,0,0,1,4.39-3.63,38.33,38.33,0,0,1,4.89-2.94A8.87,8.87,0,0,1,282.1,296.72Z" style="fill:#263238"></path><path d="M331.51,264.94c.07.12-9.2,6.2-20.71,13.58s-20.91,13.26-21,13.14,9.2-6.2,20.71-13.58S331.43,264.82,331.51,264.94Z" style="fill:#263238"></path><path d="M386.48,230.21s.09-.12.3-.32.55-.47,1-.79a16.32,16.32,0,0,1,4.13-2.17c.46-.16,1-.32,1.48-.45l.81-.19a1.77,1.77,0,0,1,1,0,1,1,0,0,1,.59.89,1.37,1.37,0,0,1-.37,1,5.92,5.92,0,0,1-1.66,1.06,17.4,17.4,0,0,1-3.88,1.34,15.11,15.11,0,0,1-2.17.33,1.35,1.35,0,0,1-1.19-.48,4.76,4.76,0,0,1-.55-1,31.57,31.57,0,0,1-1.47-4.14c-.19-.68-.35-1.36-.48-2a5.67,5.67,0,0,1-.19-2.07,1.48,1.48,0,0,1,.6-.93,1.09,1.09,0,0,1,1.11-.09,2.71,2.71,0,0,1,1.2,1.48,11.92,11.92,0,0,1,.89,3.12,12.1,12.1,0,0,1-.21,4.65,9.69,9.69,0,0,1-.39,1.21,2,2,0,0,1-.19.4c-.05,0,.17-.59.38-1.65a12.71,12.71,0,0,0,.05-4.56,12.06,12.06,0,0,0-.92-3,2.34,2.34,0,0,0-1-1.23c-.44-.24-1,.15-1.05.7a5.46,5.46,0,0,0,.2,1.87c.14.65.31,1.32.49,2a30.63,30.63,0,0,0,1.46,4.07,4.16,4.16,0,0,0,.47.92.84.84,0,0,0,.77.3,16.06,16.06,0,0,0,2.08-.32,16.49,16.49,0,0,0,3.78-1.28,5.65,5.65,0,0,0,1.53-.92c.36-.36.35-1,0-1.17a3.06,3.06,0,0,0-1.5.14,14,14,0,0,0-1.46.41,18,18,0,0,0-4.14,2C387,229.86,386.5,230.24,386.48,230.21Z" style="fill:#455a64"></path><path d="M388.6,261a10.23,10.23,0,0,0,.09-4.53c-.25-1.39-.81-3-1.34-4.81a11.94,11.94,0,0,1-.44-6.17c.23-1.08.54-2.1.72-3.09a7.88,7.88,0,0,0,0-2.86c-.34-1.81-1.06-3.39-1.34-4.81a6.91,6.91,0,0,1,0-3.42,3.82,3.82,0,0,1,.36-.85c.12-.18.19-.27.2-.26s-.2.4-.37,1.16a7.32,7.32,0,0,0,.16,3.29c.31,1.37,1.07,2.91,1.45,4.81a8.13,8.13,0,0,1,0,3c-.18,1-.49,2.06-.71,3.11a11.76,11.76,0,0,0,.39,5.93,42.19,42.19,0,0,1,1.24,4.88,9.26,9.26,0,0,1,0,3.41A3.08,3.08,0,0,1,388.6,261Z" style="fill:#455a64"></path><path d="M392.25,244.17a6.81,6.81,0,0,1-1.68-1.68,16.31,16.31,0,0,1-3.5-10.74,6.73,6.73,0,0,1,.37-2.35,20.09,20.09,0,0,0,4.81,14.77Z" style="fill:#455a64"></path><path d="M371.93,216.88a3.42,3.42,0,0,1-.64-.06l-1.83-.29-1.32-.22-1.58-.17c-1.14-.11-2.43-.3-3.86-.35l-2.25-.13c-.78,0-1.6,0-2.44,0-1.69-.05-3.5,0-5.39,0-3.8.14-8,.42-12.35.77s-8.55.69-12.35.89-7.24.26-10.13.15c-1.44,0-2.74-.14-3.88-.21s-2.12-.19-2.92-.3l-1.84-.26a2.85,2.85,0,0,1-.64-.12,2.93,2.93,0,0,1,.65,0l1.85.16c.8.08,1.78.17,2.92.21s2.43.14,3.87.13c2.87.06,6.3-.05,10.09-.25s8-.58,12.34-.94,8.56-.62,12.37-.73c1.91,0,3.72-.07,5.41,0,.85,0,1.67,0,2.46.08l2.26.16c1.44.08,2.73.29,3.86.43.57.08,1.1.14,1.58.22l1.32.26,1.82.38A3.07,3.07,0,0,1,371.93,216.88Z" style="fill:#455a64"></path><path d="M297.33,218.53c-28.06,17.32-49.2,33.94-47.24,37.13l101.6-62.72C349.72,189.75,325.38,201.21,297.33,218.53Z" style="fill:#455a64"></path><path d="M271.44,235.85s-21.8-30.64,4.87-47,46.37,16.7,46.37,16.7Z" style="fill:#455a64"></path><path d="M351.86,192.64a1.26,1.26,0,0,1-.26.18l-.77.48-3,1.78-11,6.54c-9.32,5.54-22.13,13.27-36.14,22.06s-26.56,17-35.6,22.93l-10.69,7.1-2.91,1.92-.77.49q-.26.17-.27.15l.24-.2.74-.53,2.86-2c2.48-1.73,6.1-4.21,10.6-7.23,9-6.06,21.51-14.28,35.52-23.07s26.87-16.48,36.23-21.94c4.68-2.72,8.49-4.91,11.13-6.39l3-1.7.8-.43Z" style="fill:#263238"></path><path d="M321.9,204.31a2.69,2.69,0,0,1-.43.43l-1.32,1.15c-1.14,1-2.82,2.4-4.92,4.12-4.2,3.43-10.08,8.09-17,12.67-3.46,2.28-6.86,4.29-10,6s-6.09,3.08-8.6,4.11c-1.24.56-2.4,1-3.41,1.35s-1.88.69-2.61.91l-1.66.53a4.58,4.58,0,0,1-.59.15,1.94,1.94,0,0,1,.55-.25l1.64-.62c.71-.25,1.58-.57,2.57-1s2.14-.84,3.36-1.41c2.49-1.08,5.38-2.5,8.52-4.2s6.51-3.75,10-6c6.88-4.56,12.79-9.16,17-12.52l5-4c.57-.43,1-.79,1.38-1.07A3.51,3.51,0,0,1,321.9,204.31Z" style="fill:#263238"></path><path d="M279.67,231.91a11.22,11.22,0,0,1-.91-1.37c-.28-.44-.62-1-1-1.66s-.78-1.41-1.18-2.27a54.9,54.9,0,0,1-2.55-6.13,60.72,60.72,0,0,1-2.12-7.86,61.79,61.79,0,0,1-1-8.08,54.76,54.76,0,0,1,.09-6.65c0-.94.17-1.79.25-2.53s.18-1.39.28-1.91a11,11,0,0,1,.34-1.6,8.59,8.59,0,0,1-.14,1.63c-.06.52-.14,1.16-.19,1.91s-.15,1.59-.17,2.53a60.54,60.54,0,0,0,0,6.59,64.59,64.59,0,0,0,1,8,66.43,66.43,0,0,0,2.05,7.81,63.72,63.72,0,0,0,2.43,6.13c.37.86.78,1.61,1.11,2.28s.63,1.24.89,1.7A9.9,9.9,0,0,1,279.67,231.91Z" style="fill:#263238"></path><path d="M297.05,222.72a9.84,9.84,0,0,1-.87-1.31L294,217.78c-1.88-3.06-4.52-7.27-7.49-11.87l-7.67-11.77-2.29-3.59a8.93,8.93,0,0,1-.79-1.36,9,9,0,0,1,.95,1.25l2.44,3.49c2,3,4.81,7.08,7.8,11.69s5.57,8.86,7.36,12c.9,1.56,1.62,2.83,2.09,3.72A9.52,9.52,0,0,1,297.05,222.72Z" style="fill:#263238"></path><path d="M314.55,210a17.26,17.26,0,0,1-1-1.43,39.43,39.43,0,0,0-2.88-3.74c-1.3-1.51-3-3.21-4.81-5.1a66.75,66.75,0,0,0-6.19-5.93,30,30,0,0,0-7.26-4.43,27.18,27.18,0,0,0-6.71-1.85,56.61,56.61,0,0,0-6.44-.37A10,10,0,0,1,281,187c.56,0,1.25,0,2.05,0s1.71.06,2.7.21a25.71,25.71,0,0,1,6.84,1.77,28.93,28.93,0,0,1,7.4,4.47,59.57,59.57,0,0,1,6.21,6c1.84,1.91,3.48,3.65,4.75,5.2a31.68,31.68,0,0,1,2.77,3.87c.29.48.5.86.63,1.13S314.57,210,314.55,210Z" style="fill:#263238"></path><path d="M276.45,190.2h0a1.48,1.48,0,0,1-2-.49L274,189a1.47,1.47,0,0,1,.48-2h0a1.48,1.48,0,0,1,2,.48l.44.72A1.48,1.48,0,0,1,276.45,190.2Z" style="fill:#455a64"></path></g></svg>